<svg xmlns="http://www.w3.org/2000/svg" xmlns:xlink="http://www.w3.org/1999/xlink" width="500" zoomAndPan="magnify" viewBox="0 0 375 374.999991" height="500" preserveAspectRatio="xMidYMid meet" version="1.0"><defs><g/><clipPath id="029184b779"><path d="M 107.710938 96.363281 L 267.460938 96.363281 L 267.460938 211.113281 L 107.710938 211.113281 Z M 107.710938 96.363281 " clip-rule="nonzero"/></clipPath></defs><rect x="-37.5" width="450" fill="#ffffff" y="-37.499999" height="449.999989" fill-opacity="1"/><rect x="-37.5" width="450" fill="#ffffff" y="-37.499999" height="449.999989" fill-opacity="1"/><rect x="-37.5" width="450" fill="#010f20" y="-37.499999" height="449.999989" fill-opacity="1"/><g clip-path="url(#029184b779)"><path fill="#feba00" d="M 175.472656 166.992188 L 186.609375 166.992188 L 181.039062 157.351562 L 173.46875 144.253906 L 154.417969 177.25 L 146.863281 190.328125 L 134.851562 211.113281 L 149.980469 211.113281 L 161.988281 190.328125 L 169.542969 177.25 Z M 208.707031 109.464844 L 201.136719 96.363281 L 193.582031 109.464844 L 201.136719 122.5625 L 208.707031 135.640625 L 232.726562 177.25 L 240.296875 190.328125 L 252.308594 211.113281 L 267.4375 211.113281 L 255.425781 190.328125 L 247.871094 177.25 L 216.261719 122.5625 Z M 213.179688 190.328125 L 225.1875 211.113281 L 240.316406 211.113281 L 228.304688 190.328125 L 220.75 177.25 L 202.710938 146.019531 L 195.140625 132.9375 L 187.585938 119.839844 L 181.585938 109.464844 L 174.015625 96.363281 L 166.460938 109.464844 L 159.917969 120.78125 L 127.296875 177.25 L 119.742188 190.328125 L 107.730469 211.113281 L 122.859375 211.113281 L 134.871094 190.328125 L 142.425781 177.25 L 167.488281 133.878906 L 174.015625 122.5625 L 180.011719 132.9375 L 187.585938 146.019531 L 195.140625 159.117188 L 205.625 177.25 L 184.671875 177.25 L 177.117188 190.328125 Z M 213.179688 190.328125 " fill-opacity="1" fill-rule="evenodd"/></g><g fill="#ffffff" fill-opacity="1"><g transform="translate(47.441998, 239.783555)"><g><path d="M 12.0625 -3.5625 L 4.359375 -3.5625 L 2.84375 0 L -0.109375 0 L 6.8125 -15.40625 L 9.640625 -15.40625 L 16.59375 0 L 13.59375 0 Z M 11.109375 -5.8125 L 8.203125 -12.546875 L 5.328125 -5.8125 Z M 11.109375 -5.8125 "/></g></g></g><g fill="#ffffff" fill-opacity="1"><g transform="translate(67.393091, 239.783555)"><g/></g></g><g fill="#ffffff" fill-opacity="1"><g transform="translate(76.940041, 239.783555)"><g><path d="M 6.84375 0.21875 C 5.65625 0.21875 4.503906 0.0507812 3.390625 -0.28125 C 2.285156 -0.625 1.410156 -1.070312 0.765625 -1.625 L 1.765625 -3.84375 C 2.390625 -3.351562 3.160156 -2.945312 4.078125 -2.625 C 4.992188 -2.3125 5.914062 -2.15625 6.84375 -2.15625 C 7.988281 -2.15625 8.84375 -2.335938 9.40625 -2.703125 C 9.96875 -3.066406 10.25 -3.550781 10.25 -4.15625 C 10.25 -4.59375 10.09375 -4.953125 9.78125 -5.234375 C 9.46875 -5.523438 9.066406 -5.75 8.578125 -5.90625 C 8.097656 -6.070312 7.4375 -6.257812 6.59375 -6.46875 C 5.425781 -6.75 4.476562 -7.023438 3.75 -7.296875 C 3.019531 -7.578125 2.394531 -8.015625 1.875 -8.609375 C 1.351562 -9.203125 1.09375 -10.003906 1.09375 -11.015625 C 1.09375 -11.867188 1.320312 -12.644531 1.78125 -13.34375 C 2.25 -14.039062 2.945312 -14.59375 3.875 -15 C 4.8125 -15.414062 5.953125 -15.625 7.296875 -15.625 C 8.242188 -15.625 9.171875 -15.503906 10.078125 -15.265625 C 10.984375 -15.035156 11.769531 -14.695312 12.4375 -14.25 L 11.53125 -12.03125 C 10.851562 -12.425781 10.144531 -12.726562 9.40625 -12.9375 C 8.675781 -13.144531 7.96875 -13.25 7.28125 -13.25 C 6.15625 -13.25 5.316406 -13.054688 4.765625 -12.671875 C 4.210938 -12.285156 3.9375 -11.78125 3.9375 -11.15625 C 3.9375 -10.71875 4.09375 -10.359375 4.40625 -10.078125 C 4.726562 -9.796875 5.128906 -9.570312 5.609375 -9.40625 C 6.097656 -9.25 6.757812 -9.066406 7.59375 -8.859375 C 8.738281 -8.597656 9.675781 -8.320312 10.40625 -8.03125 C 11.132812 -7.75 11.757812 -7.316406 12.28125 -6.734375 C 12.800781 -6.148438 13.0625 -5.359375 13.0625 -4.359375 C 13.0625 -3.503906 12.832031 -2.734375 12.375 -2.046875 C 11.914062 -1.359375 11.210938 -0.804688 10.265625 -0.390625 C 9.328125 0.015625 8.1875 0.21875 6.84375 0.21875 Z M 6.84375 0.21875 "/></g></g></g><g fill="#ffffff" fill-opacity="1"><g transform="translate(94.251601, 239.783555)"><g><path d="M 5.1875 -12.984375 L 0.09375 -12.984375 L 0.09375 -15.40625 L 13.15625 -15.40625 L 13.15625 -12.984375 L 8.046875 -12.984375 L 8.046875 0 L 5.1875 0 Z M 5.1875 -12.984375 "/></g></g></g><g fill="#ffffff" fill-opacity="1"><g transform="translate(110.969269, 239.783555)"><g><path d="M 12.0625 -3.5625 L 4.359375 -3.5625 L 2.84375 0 L -0.109375 0 L 6.8125 -15.40625 L 9.640625 -15.40625 L 16.59375 0 L 13.59375 0 Z M 11.109375 -5.8125 L 8.203125 -12.546875 L 5.328125 -5.8125 Z M 11.109375 -5.8125 "/></g></g></g><g fill="#ffffff" fill-opacity="1"><g transform="translate(130.92036, 239.783555)"><g><path d="M 12.140625 0 L 9 -4.515625 C 8.863281 -4.492188 8.664062 -4.484375 8.40625 -4.484375 L 4.921875 -4.484375 L 4.921875 0 L 2.0625 0 L 2.0625 -15.40625 L 8.40625 -15.40625 C 9.738281 -15.40625 10.898438 -15.179688 11.890625 -14.734375 C 12.878906 -14.296875 13.632812 -13.664062 14.15625 -12.84375 C 14.6875 -12.019531 14.953125 -11.046875 14.953125 -9.921875 C 14.953125 -8.765625 14.671875 -7.765625 14.109375 -6.921875 C 13.546875 -6.085938 12.738281 -5.46875 11.6875 -5.0625 L 15.21875 0 Z M 12.078125 -9.921875 C 12.078125 -10.898438 11.753906 -11.65625 11.109375 -12.1875 C 10.460938 -12.71875 9.515625 -12.984375 8.265625 -12.984375 L 4.921875 -12.984375 L 4.921875 -6.84375 L 8.265625 -6.84375 C 9.515625 -6.84375 10.460938 -7.109375 11.109375 -7.640625 C 11.753906 -8.179688 12.078125 -8.941406 12.078125 -9.921875 Z M 12.078125 -9.921875 "/></g></g></g><g fill="#ffffff" fill-opacity="1"><g transform="translate(150.475519, 239.783555)"><g/></g></g><g fill="#ffffff" fill-opacity="1"><g transform="translate(160.022466, 239.783555)"><g><path d="M 12.0625 -3.5625 L 4.359375 -3.5625 L 2.84375 0 L -0.109375 0 L 6.8125 -15.40625 L 9.640625 -15.40625 L 16.59375 0 L 13.59375 0 Z M 11.109375 -5.8125 L 8.203125 -12.546875 L 5.328125 -5.8125 Z M 11.109375 -5.8125 "/></g></g></g><g fill="#ffffff" fill-opacity="1"><g transform="translate(179.973556, 239.783555)"><g><path d="M 6.84375 0.21875 C 5.65625 0.21875 4.503906 0.0507812 3.390625 -0.28125 C 2.285156 -0.625 1.410156 -1.070312 0.765625 -1.625 L 1.765625 -3.84375 C 2.390625 -3.351562 3.160156 -2.945312 4.078125 -2.625 C 4.992188 -2.3125 5.914062 -2.15625 6.84375 -2.15625 C 7.988281 -2.15625 8.84375 -2.335938 9.40625 -2.703125 C 9.96875 -3.066406 10.25 -3.550781 10.25 -4.15625 C 10.25 -4.59375 10.09375 -4.953125 9.78125 -5.234375 C 9.46875 -5.523438 9.066406 -5.75 8.578125 -5.90625 C 8.097656 -6.070312 7.4375 -6.257812 6.59375 -6.46875 C 5.425781 -6.75 4.476562 -7.023438 3.75 -7.296875 C 3.019531 -7.578125 2.394531 -8.015625 1.875 -8.609375 C 1.351562 -9.203125 1.09375 -10.003906 1.09375 -11.015625 C 1.09375 -11.867188 1.320312 -12.644531 1.78125 -13.34375 C 2.25 -14.039062 2.945312 -14.59375 3.875 -15 C 4.8125 -15.414062 5.953125 -15.625 7.296875 -15.625 C 8.242188 -15.625 9.171875 -15.503906 10.078125 -15.265625 C 10.984375 -15.035156 11.769531 -14.695312 12.4375 -14.25 L 11.53125 -12.03125 C 10.851562 -12.425781 10.144531 -12.726562 9.40625 -12.9375 C 8.675781 -13.144531 7.96875 -13.25 7.28125 -13.25 C 6.15625 -13.25 5.316406 -13.054688 4.765625 -12.671875 C 4.210938 -12.285156 3.9375 -11.78125 3.9375 -11.15625 C 3.9375 -10.71875 4.09375 -10.359375 4.40625 -10.078125 C 4.726562 -9.796875 5.128906 -9.570312 5.609375 -9.40625 C 6.097656 -9.25 6.757812 -9.066406 7.59375 -8.859375 C 8.738281 -8.597656 9.675781 -8.320312 10.40625 -8.03125 C 11.132812 -7.75 11.757812 -7.316406 12.28125 -6.734375 C 12.800781 -6.148438 13.0625 -5.359375 13.0625 -4.359375 C 13.0625 -3.503906 12.832031 -2.734375 12.375 -2.046875 C 11.914062 -1.359375 11.210938 -0.804688 10.265625 -0.390625 C 9.328125 0.015625 8.1875 0.21875 6.84375 0.21875 Z M 6.84375 0.21875 "/></g></g></g><g fill="#ffffff" fill-opacity="1"><g transform="translate(197.285113, 239.783555)"><g><path d="M 6.84375 0.21875 C 5.65625 0.21875 4.503906 0.0507812 3.390625 -0.28125 C 2.285156 -0.625 1.410156 -1.070312 0.765625 -1.625 L 1.765625 -3.84375 C 2.390625 -3.351562 3.160156 -2.945312 4.078125 -2.625 C 4.992188 -2.3125 5.914062 -2.15625 6.84375 -2.15625 C 7.988281 -2.15625 8.84375 -2.335938 9.40625 -2.703125 C 9.96875 -3.066406 10.25 -3.550781 10.25 -4.15625 C 10.25 -4.59375 10.09375 -4.953125 9.78125 -5.234375 C 9.46875 -5.523438 9.066406 -5.75 8.578125 -5.90625 C 8.097656 -6.070312 7.4375 -6.257812 6.59375 -6.46875 C 5.425781 -6.75 4.476562 -7.023438 3.75 -7.296875 C 3.019531 -7.578125 2.394531 -8.015625 1.875 -8.609375 C 1.351562 -9.203125 1.09375 -10.003906 1.09375 -11.015625 C 1.09375 -11.867188 1.320312 -12.644531 1.78125 -13.34375 C 2.25 -14.039062 2.945312 -14.59375 3.875 -15 C 4.8125 -15.414062 5.953125 -15.625 7.296875 -15.625 C 8.242188 -15.625 9.171875 -15.503906 10.078125 -15.265625 C 10.984375 -15.035156 11.769531 -14.695312 12.4375 -14.25 L 11.53125 -12.03125 C 10.851562 -12.425781 10.144531 -12.726562 9.40625 -12.9375 C 8.675781 -13.144531 7.96875 -13.25 7.28125 -13.25 C 6.15625 -13.25 5.316406 -13.054688 4.765625 -12.671875 C 4.210938 -12.285156 3.9375 -11.78125 3.9375 -11.15625 C 3.9375 -10.71875 4.09375 -10.359375 4.40625 -10.078125 C 4.726562 -9.796875 5.128906 -9.570312 5.609375 -9.40625 C 6.097656 -9.25 6.757812 -9.066406 7.59375 -8.859375 C 8.738281 -8.597656 9.675781 -8.320312 10.40625 -8.03125 C 11.132812 -7.75 11.757812 -7.316406 12.28125 -6.734375 C 12.800781 -6.148438 13.0625 -5.359375 13.0625 -4.359375 C 13.0625 -3.503906 12.832031 -2.734375 12.375 -2.046875 C 11.914062 -1.359375 11.210938 -0.804688 10.265625 -0.390625 C 9.328125 0.015625 8.1875 0.21875 6.84375 0.21875 Z M 6.84375 0.21875 "/></g></g></g><g fill="#ffffff" fill-opacity="1"><g transform="translate(214.59667, 239.783555)"><g><path d="M 9.265625 0.21875 C 7.691406 0.21875 6.273438 -0.117188 5.015625 -0.796875 C 3.753906 -1.484375 2.765625 -2.429688 2.046875 -3.640625 C 1.328125 -4.847656 0.96875 -6.203125 0.96875 -7.703125 C 0.96875 -9.191406 1.328125 -10.539062 2.046875 -11.75 C 2.765625 -12.96875 3.753906 -13.914062 5.015625 -14.59375 C 6.273438 -15.28125 7.691406 -15.625 9.265625 -15.625 C 10.828125 -15.625 12.238281 -15.28125 13.5 -14.59375 C 14.769531 -13.914062 15.765625 -12.972656 16.484375 -11.765625 C 17.203125 -10.566406 17.5625 -9.210938 17.5625 -7.703125 C 17.5625 -6.191406 17.203125 -4.832031 16.484375 -3.625 C 15.765625 -2.425781 14.769531 -1.484375 13.5 -0.796875 C 12.238281 -0.117188 10.828125 0.21875 9.265625 0.21875 Z M 9.265625 -2.28125 C 10.285156 -2.28125 11.207031 -2.507812 12.03125 -2.96875 C 12.851562 -3.4375 13.5 -4.082031 13.96875 -4.90625 C 14.4375 -5.738281 14.671875 -6.671875 14.671875 -7.703125 C 14.671875 -8.722656 14.4375 -9.644531 13.96875 -10.46875 C 13.5 -11.300781 12.851562 -11.945312 12.03125 -12.40625 C 11.207031 -12.875 10.285156 -13.109375 9.265625 -13.109375 C 8.234375 -13.109375 7.304688 -12.875 6.484375 -12.40625 C 5.671875 -11.945312 5.023438 -11.300781 4.546875 -10.46875 C 4.078125 -9.644531 3.84375 -8.722656 3.84375 -7.703125 C 3.84375 -6.671875 4.078125 -5.738281 4.546875 -4.90625 C 5.023438 -4.082031 5.671875 -3.4375 6.484375 -2.96875 C 7.304688 -2.507812 8.234375 -2.28125 9.265625 -2.28125 Z M 9.265625 -2.28125 "/></g></g></g><g fill="#ffffff" fill-opacity="1"><g transform="translate(236.593391, 239.783555)"><g><path d="M 9.203125 0.21875 C 7.640625 0.21875 6.234375 -0.117188 4.984375 -0.796875 C 3.734375 -1.484375 2.75 -2.425781 2.03125 -3.625 C 1.320312 -4.832031 0.96875 -6.191406 0.96875 -7.703125 C 0.96875 -9.210938 1.328125 -10.566406 2.046875 -11.765625 C 2.765625 -12.972656 3.75 -13.914062 5 -14.59375 C 6.257812 -15.28125 7.664062 -15.625 9.21875 -15.625 C 10.476562 -15.625 11.628906 -15.398438 12.671875 -14.953125 C 13.710938 -14.515625 14.59375 -13.878906 15.3125 -13.046875 L 13.46875 -11.3125 C 12.351562 -12.507812 10.976562 -13.109375 9.34375 -13.109375 C 8.289062 -13.109375 7.347656 -12.875 6.515625 -12.40625 C 5.679688 -11.945312 5.023438 -11.304688 4.546875 -10.484375 C 4.078125 -9.671875 3.84375 -8.742188 3.84375 -7.703125 C 3.84375 -6.660156 4.078125 -5.726562 4.546875 -4.90625 C 5.023438 -4.082031 5.679688 -3.4375 6.515625 -2.96875 C 7.347656 -2.507812 8.289062 -2.28125 9.34375 -2.28125 C 10.976562 -2.28125 12.351562 -2.890625 13.46875 -4.109375 L 15.3125 -2.359375 C 14.59375 -1.515625 13.707031 -0.875 12.65625 -0.4375 C 11.613281 0 10.460938 0.21875 9.203125 0.21875 Z M 9.203125 0.21875 "/></g></g></g><g fill="#ffffff" fill-opacity="1"><g transform="translate(256.060568, 239.783555)"><g><path d="M 2.0625 -15.40625 L 4.921875 -15.40625 L 4.921875 0 L 2.0625 0 Z M 2.0625 -15.40625 "/></g></g></g><g fill="#ffffff" fill-opacity="1"><g transform="translate(266.553358, 239.783555)"><g><path d="M 12.0625 -3.5625 L 4.359375 -3.5625 L 2.84375 0 L -0.109375 0 L 6.8125 -15.40625 L 9.640625 -15.40625 L 16.59375 0 L 13.59375 0 Z M 11.109375 -5.8125 L 8.203125 -12.546875 L 5.328125 -5.8125 Z M 11.109375 -5.8125 "/></g></g></g><g fill="#ffffff" fill-opacity="1"><g transform="translate(286.50446, 239.783555)"><g><path d="M 5.1875 -12.984375 L 0.09375 -12.984375 L 0.09375 -15.40625 L 13.15625 -15.40625 L 13.15625 -12.984375 L 8.046875 -12.984375 L 8.046875 0 L 5.1875 0 Z M 5.1875 -12.984375 "/></g></g></g><g fill="#ffffff" fill-opacity="1"><g transform="translate(303.222125, 239.783555)"><g><path d="M 13.625 -2.390625 L 13.625 0 L 2.0625 0 L 2.0625 -15.40625 L 13.3125 -15.40625 L 13.3125 -13 L 4.921875 -13 L 4.921875 -9 L 12.359375 -9 L 12.359375 -6.640625 L 4.921875 -6.640625 L 4.921875 -2.390625 Z M 13.625 -2.390625 "/></g></g></g><g fill="#ffffff" fill-opacity="1"><g transform="translate(321.435534, 239.783555)"><g><path d="M 6.84375 0.21875 C 5.65625 0.21875 4.503906 0.0507812 3.390625 -0.28125 C 2.285156 -0.625 1.410156 -1.070312 0.765625 -1.625 L 1.765625 -3.84375 C 2.390625 -3.351562 3.160156 -2.945312 4.078125 -2.625 C 4.992188 -2.3125 5.914062 -2.15625 6.84375 -2.15625 C 7.988281 -2.15625 8.84375 -2.335938 9.40625 -2.703125 C 9.96875 -3.066406 10.25 -3.550781 10.25 -4.15625 C 10.25 -4.59375 10.09375 -4.953125 9.78125 -5.234375 C 9.46875 -5.523438 9.066406 -5.75 8.578125 -5.90625 C 8.097656 -6.070312 7.4375 -6.257812 6.59375 -6.46875 C 5.425781 -6.75 4.476562 -7.023438 3.75 -7.296875 C 3.019531 -7.578125 2.394531 -8.015625 1.875 -8.609375 C 1.351562 -9.203125 1.09375 -10.003906 1.09375 -11.015625 C 1.09375 -11.867188 1.320312 -12.644531 1.78125 -13.34375 C 2.25 -14.039062 2.945312 -14.59375 3.875 -15 C 4.8125 -15.414062 5.953125 -15.625 7.296875 -15.625 C 8.242188 -15.625 9.171875 -15.503906 10.078125 -15.265625 C 10.984375 -15.035156 11.769531 -14.695312 12.4375 -14.25 L 11.53125 -12.03125 C 10.851562 -12.425781 10.144531 -12.726562 9.40625 -12.9375 C 8.675781 -13.144531 7.96875 -13.25 7.28125 -13.25 C 6.15625 -13.25 5.316406 -13.054688 4.765625 -12.671875 C 4.210938 -12.285156 3.9375 -11.78125 3.9375 -11.15625 C 3.9375 -10.71875 4.09375 -10.359375 4.40625 -10.078125 C 4.726562 -9.796875 5.128906 -9.570312 5.609375 -9.40625 C 6.097656 -9.25 6.757812 -9.066406 7.59375 -8.859375 C 8.738281 -8.597656 9.675781 -8.320312 10.40625 -8.03125 C 11.132812 -7.75 11.757812 -7.316406 12.28125 -6.734375 C 12.800781 -6.148438 13.0625 -5.359375 13.0625 -4.359375 C 13.0625 -3.503906 12.832031 -2.734375 12.375 -2.046875 C 11.914062 -1.359375 11.210938 -0.804688 10.265625 -0.390625 C 9.328125 0.015625 8.1875 0.21875 6.84375 0.21875 Z M 6.84375 0.21875 "/></g></g></g><g fill="#feba00" fill-opacity="1"><g transform="translate(66.742778, 262.283553)"><g><path d="M 6.546875 -1.9375 L 2.359375 -1.9375 L 1.546875 0 L -0.0625 0 L 3.703125 -8.359375 L 5.234375 -8.359375 L 9.015625 0 L 7.390625 0 Z M 6.03125 -3.15625 L 4.453125 -6.8125 L 2.890625 -3.15625 Z M 6.03125 -3.15625 "/></g></g></g><g fill="#feba00" fill-opacity="1"><g transform="translate(78.615303, 262.283553)"><g/></g></g><g fill="#feba00" fill-opacity="1"><g transform="translate(84.839564, 262.283553)"><g><path d="M 5 0.125 C 4.15625 0.125 3.390625 -0.0546875 2.703125 -0.421875 C 2.023438 -0.796875 1.492188 -1.3125 1.109375 -1.96875 C 0.722656 -2.625 0.53125 -3.363281 0.53125 -4.1875 C 0.53125 -5.007812 0.722656 -5.742188 1.109375 -6.390625 C 1.503906 -7.046875 2.039062 -7.554688 2.71875 -7.921875 C 3.394531 -8.296875 4.160156 -8.484375 5.015625 -8.484375 C 5.691406 -8.484375 6.3125 -8.363281 6.875 -8.125 C 7.445312 -7.882812 7.925781 -7.539062 8.3125 -7.09375 L 7.3125 -6.140625 C 6.707031 -6.796875 5.960938 -7.125 5.078125 -7.125 C 4.503906 -7.125 3.988281 -7 3.53125 -6.75 C 3.082031 -6.5 2.726562 -6.148438 2.46875 -5.703125 C 2.21875 -5.253906 2.09375 -4.75 2.09375 -4.1875 C 2.09375 -3.613281 2.21875 -3.101562 2.46875 -2.65625 C 2.726562 -2.21875 3.082031 -1.875 3.53125 -1.625 C 3.988281 -1.375 4.503906 -1.25 5.078125 -1.25 C 5.960938 -1.25 6.707031 -1.578125 7.3125 -2.234375 L 8.3125 -1.28125 C 7.925781 -0.820312 7.445312 -0.472656 6.875 -0.234375 C 6.3125 0.00390625 5.6875 0.125 5 0.125 Z M 5 0.125 "/></g></g></g><g fill="#feba00" fill-opacity="1"><g transform="translate(96.449378, 262.283553)"><g><path d="M 5.03125 0.125 C 4.175781 0.125 3.40625 -0.0546875 2.71875 -0.421875 C 2.039062 -0.796875 1.503906 -1.3125 1.109375 -1.96875 C 0.722656 -2.632812 0.53125 -3.375 0.53125 -4.1875 C 0.53125 -5 0.722656 -5.734375 1.109375 -6.390625 C 1.503906 -7.046875 2.039062 -7.554688 2.71875 -7.921875 C 3.40625 -8.296875 4.175781 -8.484375 5.03125 -8.484375 C 5.882812 -8.484375 6.648438 -8.296875 7.328125 -7.921875 C 8.015625 -7.554688 8.550781 -7.046875 8.9375 -6.390625 C 9.332031 -5.742188 9.53125 -5.007812 9.53125 -4.1875 C 9.53125 -3.363281 9.332031 -2.625 8.9375 -1.96875 C 8.550781 -1.3125 8.015625 -0.796875 7.328125 -0.421875 C 6.648438 -0.0546875 5.882812 0.125 5.03125 0.125 Z M 5.03125 -1.25 C 5.59375 -1.25 6.09375 -1.375 6.53125 -1.625 C 6.976562 -1.875 7.328125 -2.222656 7.578125 -2.671875 C 7.835938 -3.117188 7.96875 -3.625 7.96875 -4.1875 C 7.96875 -4.738281 7.835938 -5.238281 7.578125 -5.6875 C 7.328125 -6.144531 6.976562 -6.5 6.53125 -6.75 C 6.09375 -7 5.59375 -7.125 5.03125 -7.125 C 4.476562 -7.125 3.976562 -7 3.53125 -6.75 C 3.082031 -6.5 2.726562 -6.144531 2.46875 -5.6875 C 2.21875 -5.238281 2.09375 -4.738281 2.09375 -4.1875 C 2.09375 -3.625 2.21875 -3.117188 2.46875 -2.671875 C 2.726562 -2.222656 3.082031 -1.875 3.53125 -1.625 C 3.976562 -1.375 4.476562 -1.25 5.03125 -1.25 Z M 5.03125 -1.25 "/></g></g></g><g fill="#feba00" fill-opacity="1"><g transform="translate(109.432462, 262.283553)"><g><path d="M 8.8125 0 L 8.796875 -5.546875 L 6.046875 -0.953125 L 5.359375 -0.953125 L 2.609375 -5.46875 L 2.609375 0 L 1.125 0 L 1.125 -8.359375 L 2.40625 -8.359375 L 5.71875 -2.828125 L 8.984375 -8.359375 L 10.265625 -8.359375 L 10.28125 0 Z M 8.8125 0 "/></g></g></g><g fill="#feba00" fill-opacity="1"><g transform="translate(123.764918, 262.283553)"><g><path d="M 4.5625 -8.359375 C 5.289062 -8.359375 5.921875 -8.238281 6.453125 -8 C 6.992188 -7.769531 7.40625 -7.429688 7.6875 -6.984375 C 7.976562 -6.535156 8.125 -6.003906 8.125 -5.390625 C 8.125 -4.785156 7.976562 -4.253906 7.6875 -3.796875 C 7.40625 -3.347656 6.992188 -3.003906 6.453125 -2.765625 C 5.921875 -2.535156 5.289062 -2.421875 4.5625 -2.421875 L 2.671875 -2.421875 L 2.671875 0 L 1.125 0 L 1.125 -8.359375 Z M 4.5 -3.734375 C 5.175781 -3.734375 5.6875 -3.875 6.03125 -4.15625 C 6.382812 -4.445312 6.5625 -4.859375 6.5625 -5.390625 C 6.5625 -5.921875 6.382812 -6.328125 6.03125 -6.609375 C 5.6875 -6.898438 5.175781 -7.046875 4.5 -7.046875 L 2.671875 -7.046875 L 2.671875 -3.734375 Z M 4.5 -3.734375 "/></g></g></g><g fill="#feba00" fill-opacity="1"><g transform="translate(135.362795, 262.283553)"><g><path d="M 1.125 -8.359375 L 2.671875 -8.359375 L 2.671875 -1.3125 L 7.046875 -1.3125 L 7.046875 0 L 1.125 0 Z M 1.125 -8.359375 "/></g></g></g><g fill="#feba00" fill-opacity="1"><g transform="translate(145.444112, 262.283553)"><g><path d="M 7.40625 -1.296875 L 7.40625 0 L 1.125 0 L 1.125 -8.359375 L 7.234375 -8.359375 L 7.234375 -7.0625 L 2.671875 -7.0625 L 2.671875 -4.890625 L 6.71875 -4.890625 L 6.71875 -3.609375 L 2.671875 -3.609375 L 2.671875 -1.296875 Z M 7.40625 -1.296875 "/></g></g></g><g fill="#feba00" fill-opacity="1"><g transform="translate(156.373277, 262.283553)"><g><path d="M 2.828125 -7.046875 L 0.046875 -7.046875 L 0.046875 -8.359375 L 7.140625 -8.359375 L 7.140625 -7.046875 L 4.375 -7.046875 L 4.375 0 L 2.828125 0 Z M 2.828125 -7.046875 "/></g></g></g><g fill="#feba00" fill-opacity="1"><g transform="translate(166.490425, 262.283553)"><g><path d="M 7.40625 -1.296875 L 7.40625 0 L 1.125 0 L 1.125 -8.359375 L 7.234375 -8.359375 L 7.234375 -7.0625 L 2.671875 -7.0625 L 2.671875 -4.890625 L 6.71875 -4.890625 L 6.71875 -3.609375 L 2.671875 -3.609375 L 2.671875 -1.296875 Z M 7.40625 -1.296875 "/></g></g></g><g fill="#feba00" fill-opacity="1"><g transform="translate(177.419589, 262.283553)"><g/></g></g><g fill="#feba00" fill-opacity="1"><g transform="translate(183.643847, 262.283553)"><g><path d="M 5 0.125 C 4.15625 0.125 3.390625 -0.0546875 2.703125 -0.421875 C 2.023438 -0.796875 1.492188 -1.3125 1.109375 -1.96875 C 0.722656 -2.625 0.53125 -3.363281 0.53125 -4.1875 C 0.53125 -5.007812 0.722656 -5.742188 1.109375 -6.390625 C 1.503906 -7.046875 2.039062 -7.554688 2.71875 -7.921875 C 3.394531 -8.296875 4.160156 -8.484375 5.015625 -8.484375 C 5.691406 -8.484375 6.3125 -8.363281 6.875 -8.125 C 7.445312 -7.882812 7.925781 -7.539062 8.3125 -7.09375 L 7.3125 -6.140625 C 6.707031 -6.796875 5.960938 -7.125 5.078125 -7.125 C 4.503906 -7.125 3.988281 -7 3.53125 -6.75 C 3.082031 -6.5 2.726562 -6.148438 2.46875 -5.703125 C 2.21875 -5.253906 2.09375 -4.75 2.09375 -4.1875 C 2.09375 -3.613281 2.21875 -3.101562 2.46875 -2.65625 C 2.726562 -2.21875 3.082031 -1.875 3.53125 -1.625 C 3.988281 -1.375 4.503906 -1.25 5.078125 -1.25 C 5.960938 -1.25 6.707031 -1.578125 7.3125 -2.234375 L 8.3125 -1.28125 C 7.925781 -0.820312 7.445312 -0.472656 6.875 -0.234375 C 6.3125 0.00390625 5.6875 0.125 5 0.125 Z M 5 0.125 "/></g></g></g><g fill="#feba00" fill-opacity="1"><g transform="translate(195.25366, 262.283553)"><g><path d="M 5.03125 0.125 C 4.175781 0.125 3.40625 -0.0546875 2.71875 -0.421875 C 2.039062 -0.796875 1.503906 -1.3125 1.109375 -1.96875 C 0.722656 -2.632812 0.53125 -3.375 0.53125 -4.1875 C 0.53125 -5 0.722656 -5.734375 1.109375 -6.390625 C 1.503906 -7.046875 2.039062 -7.554688 2.71875 -7.921875 C 3.40625 -8.296875 4.175781 -8.484375 5.03125 -8.484375 C 5.882812 -8.484375 6.648438 -8.296875 7.328125 -7.921875 C 8.015625 -7.554688 8.550781 -7.046875 8.9375 -6.390625 C 9.332031 -5.742188 9.53125 -5.007812 9.53125 -4.1875 C 9.53125 -3.363281 9.332031 -2.625 8.9375 -1.96875 C 8.550781 -1.3125 8.015625 -0.796875 7.328125 -0.421875 C 6.648438 -0.0546875 5.882812 0.125 5.03125 0.125 Z M 5.03125 -1.25 C 5.59375 -1.25 6.09375 -1.375 6.53125 -1.625 C 6.976562 -1.875 7.328125 -2.222656 7.578125 -2.671875 C 7.835938 -3.117188 7.96875 -3.625 7.96875 -4.1875 C 7.96875 -4.738281 7.835938 -5.238281 7.578125 -5.6875 C 7.328125 -6.144531 6.976562 -6.5 6.53125 -6.75 C 6.09375 -7 5.59375 -7.125 5.03125 -7.125 C 4.476562 -7.125 3.976562 -7 3.53125 -6.75 C 3.082031 -6.5 2.726562 -6.144531 2.46875 -5.6875 C 2.21875 -5.238281 2.09375 -4.738281 2.09375 -4.1875 C 2.09375 -3.625 2.21875 -3.117188 2.46875 -2.671875 C 2.726562 -2.222656 3.082031 -1.875 3.53125 -1.625 C 3.976562 -1.375 4.476562 -1.25 5.03125 -1.25 Z M 5.03125 -1.25 "/></g></g></g><g fill="#feba00" fill-opacity="1"><g transform="translate(208.236741, 262.283553)"><g><path d="M 8.5625 -8.359375 L 8.5625 0 L 7.28125 0 L 2.671875 -5.671875 L 2.671875 0 L 1.125 0 L 1.125 -8.359375 L 2.40625 -8.359375 L 7.015625 -2.703125 L 7.015625 -8.359375 Z M 8.5625 -8.359375 "/></g></g></g><g fill="#feba00" fill-opacity="1"><g transform="translate(220.837693, 262.283553)"><g><path d="M 3.71875 0.125 C 3.070312 0.125 2.445312 0.03125 1.84375 -0.15625 C 1.238281 -0.34375 0.765625 -0.585938 0.421875 -0.890625 L 0.953125 -2.09375 C 1.296875 -1.820312 1.71875 -1.597656 2.21875 -1.421875 C 2.71875 -1.253906 3.21875 -1.171875 3.71875 -1.171875 C 4.34375 -1.171875 4.804688 -1.269531 5.109375 -1.46875 C 5.410156 -1.664062 5.5625 -1.929688 5.5625 -2.265625 C 5.5625 -2.503906 5.476562 -2.695312 5.3125 -2.84375 C 5.144531 -3 4.925781 -3.117188 4.65625 -3.203125 C 4.394531 -3.296875 4.035156 -3.398438 3.578125 -3.515625 C 2.941406 -3.660156 2.425781 -3.8125 2.03125 -3.96875 C 1.644531 -4.125 1.304688 -4.359375 1.015625 -4.671875 C 0.734375 -4.992188 0.59375 -5.429688 0.59375 -5.984375 C 0.59375 -6.453125 0.71875 -6.875 0.96875 -7.25 C 1.21875 -7.625 1.597656 -7.921875 2.109375 -8.140625 C 2.617188 -8.367188 3.238281 -8.484375 3.96875 -8.484375 C 4.476562 -8.484375 4.976562 -8.421875 5.46875 -8.296875 C 5.96875 -8.171875 6.394531 -7.988281 6.75 -7.75 L 6.265625 -6.53125 C 5.898438 -6.75 5.515625 -6.914062 5.109375 -7.03125 C 4.710938 -7.144531 4.328125 -7.203125 3.953125 -7.203125 C 3.335938 -7.203125 2.878906 -7.097656 2.578125 -6.890625 C 2.285156 -6.679688 2.140625 -6.40625 2.140625 -6.0625 C 2.140625 -5.820312 2.222656 -5.625 2.390625 -5.46875 C 2.566406 -5.320312 2.785156 -5.203125 3.046875 -5.109375 C 3.304688 -5.023438 3.664062 -4.925781 4.125 -4.8125 C 4.75 -4.675781 5.257812 -4.53125 5.65625 -4.375 C 6.050781 -4.21875 6.390625 -3.976562 6.671875 -3.65625 C 6.953125 -3.332031 7.09375 -2.898438 7.09375 -2.359375 C 7.09375 -1.898438 6.96875 -1.484375 6.71875 -1.109375 C 6.46875 -0.734375 6.085938 -0.429688 5.578125 -0.203125 C 5.066406 0.015625 4.445312 0.125 3.71875 0.125 Z M 3.71875 0.125 "/></g></g></g><g fill="#feba00" fill-opacity="1"><g transform="translate(231.277256, 262.283553)"><g><path d="M 2.828125 -7.046875 L 0.046875 -7.046875 L 0.046875 -8.359375 L 7.140625 -8.359375 L 7.140625 -7.046875 L 4.375 -7.046875 L 4.375 0 L 2.828125 0 Z M 2.828125 -7.046875 "/></g></g></g><g fill="#feba00" fill-opacity="1"><g transform="translate(241.394405, 262.283553)"><g><path d="M 6.59375 0 L 4.890625 -2.453125 C 4.816406 -2.441406 4.707031 -2.4375 4.5625 -2.4375 L 2.671875 -2.4375 L 2.671875 0 L 1.125 0 L 1.125 -8.359375 L 4.5625 -8.359375 C 5.289062 -8.359375 5.921875 -8.238281 6.453125 -8 C 6.992188 -7.769531 7.40625 -7.429688 7.6875 -6.984375 C 7.976562 -6.535156 8.125 -6.003906 8.125 -5.390625 C 8.125 -4.765625 7.96875 -4.222656 7.65625 -3.765625 C 7.351562 -3.304688 6.914062 -2.96875 6.34375 -2.75 L 8.265625 0 Z M 6.5625 -5.390625 C 6.5625 -5.921875 6.382812 -6.328125 6.03125 -6.609375 C 5.6875 -6.898438 5.175781 -7.046875 4.5 -7.046875 L 2.671875 -7.046875 L 2.671875 -3.71875 L 4.5 -3.71875 C 5.175781 -3.71875 5.6875 -3.863281 6.03125 -4.15625 C 6.382812 -4.445312 6.5625 -4.859375 6.5625 -5.390625 Z M 6.5625 -5.390625 "/></g></g></g><g fill="#feba00" fill-opacity="1"><g transform="translate(253.051985, 262.283553)"><g><path d="M 4.71875 0.125 C 3.5625 0.125 2.660156 -0.195312 2.015625 -0.84375 C 1.367188 -1.5 1.046875 -2.429688 1.046875 -3.640625 L 1.046875 -8.359375 L 2.609375 -8.359375 L 2.609375 -3.703125 C 2.609375 -2.066406 3.316406 -1.25 4.734375 -1.25 C 6.140625 -1.25 6.84375 -2.066406 6.84375 -3.703125 L 6.84375 -8.359375 L 8.375 -8.359375 L 8.375 -3.640625 C 8.375 -2.429688 8.050781 -1.5 7.40625 -0.84375 C 6.769531 -0.195312 5.875 0.125 4.71875 0.125 Z M 4.71875 0.125 "/></g></g></g><g fill="#feba00" fill-opacity="1"><g transform="translate(265.402174, 262.283553)"><g><path d="M 5 0.125 C 4.15625 0.125 3.390625 -0.0546875 2.703125 -0.421875 C 2.023438 -0.796875 1.492188 -1.3125 1.109375 -1.96875 C 0.722656 -2.625 0.53125 -3.363281 0.53125 -4.1875 C 0.53125 -5.007812 0.722656 -5.742188 1.109375 -6.390625 C 1.503906 -7.046875 2.039062 -7.554688 2.71875 -7.921875 C 3.394531 -8.296875 4.160156 -8.484375 5.015625 -8.484375 C 5.691406 -8.484375 6.3125 -8.363281 6.875 -8.125 C 7.445312 -7.882812 7.925781 -7.539062 8.3125 -7.09375 L 7.3125 -6.140625 C 6.707031 -6.796875 5.960938 -7.125 5.078125 -7.125 C 4.503906 -7.125 3.988281 -7 3.53125 -6.75 C 3.082031 -6.5 2.726562 -6.148438 2.46875 -5.703125 C 2.21875 -5.253906 2.09375 -4.75 2.09375 -4.1875 C 2.09375 -3.613281 2.21875 -3.101562 2.46875 -2.65625 C 2.726562 -2.21875 3.082031 -1.875 3.53125 -1.625 C 3.988281 -1.375 4.503906 -1.25 5.078125 -1.25 C 5.960938 -1.25 6.707031 -1.578125 7.3125 -2.234375 L 8.3125 -1.28125 C 7.925781 -0.820312 7.445312 -0.472656 6.875 -0.234375 C 6.3125 0.00390625 5.6875 0.125 5 0.125 Z M 5 0.125 "/></g></g></g><g fill="#feba00" fill-opacity="1"><g transform="translate(277.011998, 262.283553)"><g><path d="M 2.828125 -7.046875 L 0.046875 -7.046875 L 0.046875 -8.359375 L 7.140625 -8.359375 L 7.140625 -7.046875 L 4.375 -7.046875 L 4.375 0 L 2.828125 0 Z M 2.828125 -7.046875 "/></g></g></g><g fill="#feba00" fill-opacity="1"><g transform="translate(287.129147, 262.283553)"><g><path d="M 1.125 -8.359375 L 2.671875 -8.359375 L 2.671875 0 L 1.125 0 Z M 1.125 -8.359375 "/></g></g></g><g fill="#feba00" fill-opacity="1"><g transform="translate(293.866901, 262.283553)"><g><path d="M 5.03125 0.125 C 4.175781 0.125 3.40625 -0.0546875 2.71875 -0.421875 C 2.039062 -0.796875 1.503906 -1.3125 1.109375 -1.96875 C 0.722656 -2.632812 0.53125 -3.375 0.53125 -4.1875 C 0.53125 -5 0.722656 -5.734375 1.109375 -6.390625 C 1.503906 -7.046875 2.039062 -7.554688 2.71875 -7.921875 C 3.40625 -8.296875 4.175781 -8.484375 5.03125 -8.484375 C 5.882812 -8.484375 6.648438 -8.296875 7.328125 -7.921875 C 8.015625 -7.554688 8.550781 -7.046875 8.9375 -6.390625 C 9.332031 -5.742188 9.53125 -5.007812 9.53125 -4.1875 C 9.53125 -3.363281 9.332031 -2.625 8.9375 -1.96875 C 8.550781 -1.3125 8.015625 -0.796875 7.328125 -0.421875 C 6.648438 -0.0546875 5.882812 0.125 5.03125 0.125 Z M 5.03125 -1.25 C 5.59375 -1.25 6.09375 -1.375 6.53125 -1.625 C 6.976562 -1.875 7.328125 -2.222656 7.578125 -2.671875 C 7.835938 -3.117188 7.96875 -3.625 7.96875 -4.1875 C 7.96875 -4.738281 7.835938 -5.238281 7.578125 -5.6875 C 7.328125 -6.144531 6.976562 -6.5 6.53125 -6.75 C 6.09375 -7 5.59375 -7.125 5.03125 -7.125 C 4.476562 -7.125 3.976562 -7 3.53125 -6.75 C 3.082031 -6.5 2.726562 -6.144531 2.46875 -5.6875 C 2.21875 -5.238281 2.09375 -4.738281 2.09375 -4.1875 C 2.09375 -3.625 2.21875 -3.117188 2.46875 -2.671875 C 2.726562 -2.222656 3.082031 -1.875 3.53125 -1.625 C 3.976562 -1.375 4.476562 -1.25 5.03125 -1.25 Z M 5.03125 -1.25 "/></g></g></g><g fill="#feba00" fill-opacity="1"><g transform="translate(306.849994, 262.283553)"><g><path d="M 8.5625 -8.359375 L 8.5625 0 L 7.28125 0 L 2.671875 -5.671875 L 2.671875 0 L 1.125 0 L 1.125 -8.359375 L 2.40625 -8.359375 L 7.015625 -2.703125 L 7.015625 -8.359375 Z M 8.5625 -8.359375 "/></g></g></g><g fill="#feba00" fill-opacity="1"><g transform="translate(138.332617, 280.283552)"><g><path d="M 6.59375 0 L 4.890625 -2.453125 C 4.816406 -2.441406 4.707031 -2.4375 4.5625 -2.4375 L 2.671875 -2.4375 L 2.671875 0 L 1.125 0 L 1.125 -8.359375 L 4.5625 -8.359375 C 5.289062 -8.359375 5.921875 -8.238281 6.453125 -8 C 6.992188 -7.769531 7.40625 -7.429688 7.6875 -6.984375 C 7.976562 -6.535156 8.125 -6.003906 8.125 -5.390625 C 8.125 -4.765625 7.96875 -4.222656 7.65625 -3.765625 C 7.351562 -3.304688 6.914062 -2.96875 6.34375 -2.75 L 8.265625 0 Z M 6.5625 -5.390625 C 6.5625 -5.921875 6.382812 -6.328125 6.03125 -6.609375 C 5.6875 -6.898438 5.175781 -7.046875 4.5 -7.046875 L 2.671875 -7.046875 L 2.671875 -3.71875 L 4.5 -3.71875 C 5.175781 -3.71875 5.6875 -3.863281 6.03125 -4.15625 C 6.382812 -4.445312 6.5625 -4.859375 6.5625 -5.390625 Z M 6.5625 -5.390625 "/></g></g></g><g fill="#feba00" fill-opacity="1"><g transform="translate(149.9902, 280.283552)"><g><path d="M 7.40625 -1.296875 L 7.40625 0 L 1.125 0 L 1.125 -8.359375 L 7.234375 -8.359375 L 7.234375 -7.0625 L 2.671875 -7.0625 L 2.671875 -4.890625 L 6.71875 -4.890625 L 6.71875 -3.609375 L 2.671875 -3.609375 L 2.671875 -1.296875 Z M 7.40625 -1.296875 "/></g></g></g><g fill="#feba00" fill-opacity="1"><g transform="translate(160.919366, 280.283552)"><g><path d="M 8.78125 -8.359375 L 5.125 0 L 3.59375 0 L -0.0625 -8.359375 L 1.625 -8.359375 L 4.40625 -1.90625 L 7.21875 -8.359375 Z M 8.78125 -8.359375 "/></g></g></g><g fill="#feba00" fill-opacity="1"><g transform="translate(172.553064, 280.283552)"><g><path d="M 7.40625 -1.296875 L 7.40625 0 L 1.125 0 L 1.125 -8.359375 L 7.234375 -8.359375 L 7.234375 -7.0625 L 2.671875 -7.0625 L 2.671875 -4.890625 L 6.71875 -4.890625 L 6.71875 -3.609375 L 2.671875 -3.609375 L 2.671875 -1.296875 Z M 7.40625 -1.296875 "/></g></g></g><g fill="#feba00" fill-opacity="1"><g transform="translate(183.482231, 280.283552)"><g><path d="M 1.125 -8.359375 L 2.671875 -8.359375 L 2.671875 -1.3125 L 7.046875 -1.3125 L 7.046875 0 L 1.125 0 Z M 1.125 -8.359375 "/></g></g></g><g fill="#feba00" fill-opacity="1"><g transform="translate(193.563551, 280.283552)"><g><path d="M 6.546875 -1.9375 L 2.359375 -1.9375 L 1.546875 0 L -0.0625 0 L 3.703125 -8.359375 L 5.234375 -8.359375 L 9.015625 0 L 7.390625 0 Z M 6.03125 -3.15625 L 4.453125 -6.8125 L 2.890625 -3.15625 Z M 6.03125 -3.15625 "/></g></g></g><g fill="#feba00" fill-opacity="1"><g transform="translate(205.436075, 280.283552)"><g><path d="M 2.828125 -7.046875 L 0.046875 -7.046875 L 0.046875 -8.359375 L 7.140625 -8.359375 L 7.140625 -7.046875 L 4.375 -7.046875 L 4.375 0 L 2.828125 0 Z M 2.828125 -7.046875 "/></g></g></g><g fill="#feba00" fill-opacity="1"><g transform="translate(215.553223, 280.283552)"><g><path d="M 1.125 -8.359375 L 2.671875 -8.359375 L 2.671875 0 L 1.125 0 Z M 1.125 -8.359375 "/></g></g></g><g fill="#feba00" fill-opacity="1"><g transform="translate(222.290966, 280.283552)"><g><path d="M 5.03125 0.125 C 4.175781 0.125 3.40625 -0.0546875 2.71875 -0.421875 C 2.039062 -0.796875 1.503906 -1.3125 1.109375 -1.96875 C 0.722656 -2.632812 0.53125 -3.375 0.53125 -4.1875 C 0.53125 -5 0.722656 -5.734375 1.109375 -6.390625 C 1.503906 -7.046875 2.039062 -7.554688 2.71875 -7.921875 C 3.40625 -8.296875 4.175781 -8.484375 5.03125 -8.484375 C 5.882812 -8.484375 6.648438 -8.296875 7.328125 -7.921875 C 8.015625 -7.554688 8.550781 -7.046875 8.9375 -6.390625 C 9.332031 -5.742188 9.53125 -5.007812 9.53125 -4.1875 C 9.53125 -3.363281 9.332031 -2.625 8.9375 -1.96875 C 8.550781 -1.3125 8.015625 -0.796875 7.328125 -0.421875 C 6.648438 -0.0546875 5.882812 0.125 5.03125 0.125 Z M 5.03125 -1.25 C 5.59375 -1.25 6.09375 -1.375 6.53125 -1.625 C 6.976562 -1.875 7.328125 -2.222656 7.578125 -2.671875 C 7.835938 -3.117188 7.96875 -3.625 7.96875 -4.1875 C 7.96875 -4.738281 7.835938 -5.238281 7.578125 -5.6875 C 7.328125 -6.144531 6.976562 -6.5 6.53125 -6.75 C 6.09375 -7 5.59375 -7.125 5.03125 -7.125 C 4.476562 -7.125 3.976562 -7 3.53125 -6.75 C 3.082031 -6.5 2.726562 -6.144531 2.46875 -5.6875 C 2.21875 -5.238281 2.09375 -4.738281 2.09375 -4.1875 C 2.09375 -3.625 2.21875 -3.117188 2.46875 -2.671875 C 2.726562 -2.222656 3.082031 -1.875 3.53125 -1.625 C 3.976562 -1.375 4.476562 -1.25 5.03125 -1.25 Z M 5.03125 -1.25 "/></g></g></g><g fill="#feba00" fill-opacity="1"><g transform="translate(235.274047, 280.283552)"><g><path d="M 8.5625 -8.359375 L 8.5625 0 L 7.28125 0 L 2.671875 -5.671875 L 2.671875 0 L 1.125 0 L 1.125 -8.359375 L 2.40625 -8.359375 L 7.015625 -2.703125 L 7.015625 -8.359375 Z M 8.5625 -8.359375 "/></g></g></g></svg>