<svg xmlns="http://www.w3.org/2000/svg" xmlns:xlink="http://www.w3.org/1999/xlink" width="335" zoomAndPan="magnify" viewBox="0 0 251.25 48" height="64" preserveAspectRatio="xMidYMid meet" version="1.0"><defs><g/><clipPath id="46466b63b3"><path d="M 5.140625 3.480469 L 59.507812 3.480469 L 59.507812 42.421875 L 5.140625 42.421875 Z M 5.140625 3.480469 " clip-rule="nonzero"/></clipPath></defs><g clip-path="url(#46466b63b3)"><path fill="#feba00" d="M 28.199219 27.449219 L 31.988281 27.449219 L 30.09375 24.175781 L 27.515625 19.730469 L 21.03125 30.929688 L 18.460938 35.367188 L 14.371094 42.421875 L 19.523438 42.421875 L 23.609375 35.367188 L 26.183594 30.929688 Z M 39.511719 7.925781 L 36.933594 3.480469 L 34.363281 7.925781 L 36.933594 12.371094 L 39.511719 16.808594 L 47.6875 30.929688 L 50.265625 35.367188 L 54.355469 42.421875 L 59.503906 42.421875 L 55.414062 35.367188 L 52.84375 30.929688 L 42.085938 12.371094 Z M 41.035156 35.367188 L 45.121094 42.421875 L 50.273438 42.421875 L 46.183594 35.367188 L 43.613281 30.929688 L 37.472656 20.332031 L 34.894531 15.890625 L 32.324219 11.445312 L 30.28125 7.925781 L 27.703125 3.480469 L 25.132812 7.925781 L 22.90625 11.765625 L 11.800781 30.929688 L 9.230469 35.367188 L 5.140625 42.421875 L 10.289062 42.421875 L 14.378906 35.367188 L 16.949219 30.929688 L 25.480469 16.210938 L 27.703125 12.371094 L 29.746094 15.890625 L 32.324219 20.332031 L 34.894531 24.773438 L 38.464844 30.929688 L 31.332031 30.929688 L 28.757812 35.367188 Z M 41.035156 35.367188 " fill-opacity="1" fill-rule="evenodd"/></g><g fill="#ffffff" fill-opacity="1"><g transform="translate(56.874161, 17.295228)"><g><path d="M 7.40625 -2.1875 L 2.671875 -2.1875 L 1.75 0 L -0.0625 0 L 4.1875 -9.46875 L 5.921875 -9.46875 L 10.1875 0 L 8.359375 0 Z M 6.828125 -3.5625 L 5.046875 -7.703125 L 3.265625 -3.5625 Z M 6.828125 -3.5625 "/></g></g></g><g fill="#ffffff" fill-opacity="1"><g transform="translate(69.130544, 17.295228)"><g/></g></g><g fill="#ffffff" fill-opacity="1"><g transform="translate(74.99568, 17.295228)"><g><path d="M 4.203125 0.140625 C 3.472656 0.140625 2.765625 0.0351562 2.078125 -0.171875 C 1.398438 -0.378906 0.863281 -0.65625 0.46875 -1 L 1.078125 -2.359375 C 1.460938 -2.054688 1.9375 -1.804688 2.5 -1.609375 C 3.070312 -1.421875 3.640625 -1.328125 4.203125 -1.328125 C 4.898438 -1.328125 5.421875 -1.4375 5.765625 -1.65625 C 6.117188 -1.882812 6.296875 -2.179688 6.296875 -2.546875 C 6.296875 -2.816406 6.195312 -3.039062 6 -3.21875 C 5.8125 -3.394531 5.566406 -3.53125 5.265625 -3.625 C 4.972656 -3.726562 4.570312 -3.84375 4.0625 -3.96875 C 3.332031 -4.144531 2.742188 -4.316406 2.296875 -4.484375 C 1.859375 -4.660156 1.476562 -4.929688 1.15625 -5.296875 C 0.832031 -5.660156 0.671875 -6.148438 0.671875 -6.765625 C 0.671875 -7.296875 0.8125 -7.773438 1.09375 -8.203125 C 1.382812 -8.628906 1.816406 -8.96875 2.390625 -9.21875 C 2.960938 -9.46875 3.660156 -9.59375 4.484375 -9.59375 C 5.066406 -9.59375 5.632812 -9.519531 6.1875 -9.375 C 6.75 -9.226562 7.234375 -9.023438 7.640625 -8.765625 L 7.078125 -7.390625 C 6.660156 -7.640625 6.226562 -7.828125 5.78125 -7.953125 C 5.332031 -8.078125 4.894531 -8.140625 4.46875 -8.140625 C 3.78125 -8.140625 3.265625 -8.019531 2.921875 -7.78125 C 2.585938 -7.550781 2.421875 -7.242188 2.421875 -6.859375 C 2.421875 -6.585938 2.515625 -6.363281 2.703125 -6.1875 C 2.898438 -6.019531 3.144531 -5.882812 3.4375 -5.78125 C 3.738281 -5.6875 4.144531 -5.578125 4.65625 -5.453125 C 5.363281 -5.285156 5.941406 -5.113281 6.390625 -4.9375 C 6.835938 -4.757812 7.222656 -4.488281 7.546875 -4.125 C 7.867188 -3.769531 8.03125 -3.285156 8.03125 -2.671875 C 8.03125 -2.148438 7.882812 -1.675781 7.59375 -1.25 C 7.3125 -0.832031 6.882812 -0.492188 6.3125 -0.234375 C 5.738281 0.015625 5.035156 0.140625 4.203125 0.140625 Z M 4.203125 0.140625 "/></g></g></g><g fill="#ffffff" fill-opacity="1"><g transform="translate(85.630603, 17.295228)"><g><path d="M 3.1875 -7.96875 L 0.046875 -7.96875 L 0.046875 -9.46875 L 8.078125 -9.46875 L 8.078125 -7.96875 L 4.953125 -7.96875 L 4.953125 0 L 3.1875 0 Z M 3.1875 -7.96875 "/></g></g></g><g fill="#ffffff" fill-opacity="1"><g transform="translate(95.900703, 17.295228)"><g><path d="M 7.40625 -2.1875 L 2.671875 -2.1875 L 1.75 0 L -0.0625 0 L 4.1875 -9.46875 L 5.921875 -9.46875 L 10.1875 0 L 8.359375 0 Z M 6.828125 -3.5625 L 5.046875 -7.703125 L 3.265625 -3.5625 Z M 6.828125 -3.5625 "/></g></g></g><g fill="#ffffff" fill-opacity="1"><g transform="translate(108.157086, 17.295228)"><g><path d="M 7.453125 0 L 5.53125 -2.765625 C 5.445312 -2.753906 5.320312 -2.75 5.15625 -2.75 L 3.03125 -2.75 L 3.03125 0 L 1.265625 0 L 1.265625 -9.46875 L 5.15625 -9.46875 C 5.976562 -9.46875 6.691406 -9.332031 7.296875 -9.0625 C 7.910156 -8.789062 8.378906 -8.398438 8.703125 -7.890625 C 9.023438 -7.390625 9.1875 -6.789062 9.1875 -6.09375 C 9.1875 -5.382812 9.015625 -4.769531 8.671875 -4.25 C 8.328125 -3.738281 7.828125 -3.359375 7.171875 -3.109375 L 9.359375 0 Z M 7.421875 -6.09375 C 7.421875 -6.695312 7.222656 -7.160156 6.828125 -7.484375 C 6.429688 -7.804688 5.847656 -7.96875 5.078125 -7.96875 L 3.03125 -7.96875 L 3.03125 -4.203125 L 5.078125 -4.203125 C 5.847656 -4.203125 6.429688 -4.363281 6.828125 -4.6875 C 7.222656 -5.019531 7.421875 -5.488281 7.421875 -6.09375 Z M 7.421875 -6.09375 "/></g></g></g><g fill="#ffffff" fill-opacity="1"><g transform="translate(120.170244, 17.295228)"><g/></g></g><g fill="#ffffff" fill-opacity="1"><g transform="translate(126.035379, 17.295228)"><g><path d="M 7.40625 -2.1875 L 2.671875 -2.1875 L 1.75 0 L -0.0625 0 L 4.1875 -9.46875 L 5.921875 -9.46875 L 10.1875 0 L 8.359375 0 Z M 6.828125 -3.5625 L 5.046875 -7.703125 L 3.265625 -3.5625 Z M 6.828125 -3.5625 "/></g></g></g><g fill="#ffffff" fill-opacity="1"><g transform="translate(138.291762, 17.295228)"><g><path d="M 4.203125 0.140625 C 3.472656 0.140625 2.765625 0.0351562 2.078125 -0.171875 C 1.398438 -0.378906 0.863281 -0.65625 0.46875 -1 L 1.078125 -2.359375 C 1.460938 -2.054688 1.9375 -1.804688 2.5 -1.609375 C 3.070312 -1.421875 3.640625 -1.328125 4.203125 -1.328125 C 4.898438 -1.328125 5.421875 -1.4375 5.765625 -1.65625 C 6.117188 -1.882812 6.296875 -2.179688 6.296875 -2.546875 C 6.296875 -2.816406 6.195312 -3.039062 6 -3.21875 C 5.8125 -3.394531 5.566406 -3.53125 5.265625 -3.625 C 4.972656 -3.726562 4.570312 -3.84375 4.0625 -3.96875 C 3.332031 -4.144531 2.742188 -4.316406 2.296875 -4.484375 C 1.859375 -4.660156 1.476562 -4.929688 1.15625 -5.296875 C 0.832031 -5.660156 0.671875 -6.148438 0.671875 -6.765625 C 0.671875 -7.296875 0.8125 -7.773438 1.09375 -8.203125 C 1.382812 -8.628906 1.816406 -8.96875 2.390625 -9.21875 C 2.960938 -9.46875 3.660156 -9.59375 4.484375 -9.59375 C 5.066406 -9.59375 5.632812 -9.519531 6.1875 -9.375 C 6.75 -9.226562 7.234375 -9.023438 7.640625 -8.765625 L 7.078125 -7.390625 C 6.660156 -7.640625 6.226562 -7.828125 5.78125 -7.953125 C 5.332031 -8.078125 4.894531 -8.140625 4.46875 -8.140625 C 3.78125 -8.140625 3.265625 -8.019531 2.921875 -7.78125 C 2.585938 -7.550781 2.421875 -7.242188 2.421875 -6.859375 C 2.421875 -6.585938 2.515625 -6.363281 2.703125 -6.1875 C 2.898438 -6.019531 3.144531 -5.882812 3.4375 -5.78125 C 3.738281 -5.6875 4.144531 -5.578125 4.65625 -5.453125 C 5.363281 -5.285156 5.941406 -5.113281 6.390625 -4.9375 C 6.835938 -4.757812 7.222656 -4.488281 7.546875 -4.125 C 7.867188 -3.769531 8.03125 -3.285156 8.03125 -2.671875 C 8.03125 -2.148438 7.882812 -1.675781 7.59375 -1.25 C 7.3125 -0.832031 6.882812 -0.492188 6.3125 -0.234375 C 5.738281 0.015625 5.035156 0.140625 4.203125 0.140625 Z M 4.203125 0.140625 "/></g></g></g><g fill="#ffffff" fill-opacity="1"><g transform="translate(148.926685, 17.295228)"><g><path d="M 4.203125 0.140625 C 3.472656 0.140625 2.765625 0.0351562 2.078125 -0.171875 C 1.398438 -0.378906 0.863281 -0.65625 0.46875 -1 L 1.078125 -2.359375 C 1.460938 -2.054688 1.9375 -1.804688 2.5 -1.609375 C 3.070312 -1.421875 3.640625 -1.328125 4.203125 -1.328125 C 4.898438 -1.328125 5.421875 -1.4375 5.765625 -1.65625 C 6.117188 -1.882812 6.296875 -2.179688 6.296875 -2.546875 C 6.296875 -2.816406 6.195312 -3.039062 6 -3.21875 C 5.8125 -3.394531 5.566406 -3.53125 5.265625 -3.625 C 4.972656 -3.726562 4.570312 -3.84375 4.0625 -3.96875 C 3.332031 -4.144531 2.742188 -4.316406 2.296875 -4.484375 C 1.859375 -4.660156 1.476562 -4.929688 1.15625 -5.296875 C 0.832031 -5.660156 0.671875 -6.148438 0.671875 -6.765625 C 0.671875 -7.296875 0.8125 -7.773438 1.09375 -8.203125 C 1.382812 -8.628906 1.816406 -8.96875 2.390625 -9.21875 C 2.960938 -9.46875 3.660156 -9.59375 4.484375 -9.59375 C 5.066406 -9.59375 5.632812 -9.519531 6.1875 -9.375 C 6.75 -9.226562 7.234375 -9.023438 7.640625 -8.765625 L 7.078125 -7.390625 C 6.660156 -7.640625 6.226562 -7.828125 5.78125 -7.953125 C 5.332031 -8.078125 4.894531 -8.140625 4.46875 -8.140625 C 3.78125 -8.140625 3.265625 -8.019531 2.921875 -7.78125 C 2.585938 -7.550781 2.421875 -7.242188 2.421875 -6.859375 C 2.421875 -6.585938 2.515625 -6.363281 2.703125 -6.1875 C 2.898438 -6.019531 3.144531 -5.882812 3.4375 -5.78125 C 3.738281 -5.6875 4.144531 -5.578125 4.65625 -5.453125 C 5.363281 -5.285156 5.941406 -5.113281 6.390625 -4.9375 C 6.835938 -4.757812 7.222656 -4.488281 7.546875 -4.125 C 7.867188 -3.769531 8.03125 -3.285156 8.03125 -2.671875 C 8.03125 -2.148438 7.882812 -1.675781 7.59375 -1.25 C 7.3125 -0.832031 6.882812 -0.492188 6.3125 -0.234375 C 5.738281 0.015625 5.035156 0.140625 4.203125 0.140625 Z M 4.203125 0.140625 "/></g></g></g><g fill="#ffffff" fill-opacity="1"><g transform="translate(159.561609, 17.295228)"><g><path d="M 5.6875 0.140625 C 4.726562 0.140625 3.859375 -0.0664062 3.078125 -0.484375 C 2.304688 -0.910156 1.695312 -1.492188 1.25 -2.234375 C 0.8125 -2.984375 0.59375 -3.816406 0.59375 -4.734375 C 0.59375 -5.648438 0.8125 -6.476562 1.25 -7.21875 C 1.695312 -7.96875 2.304688 -8.550781 3.078125 -8.96875 C 3.859375 -9.382812 4.726562 -9.59375 5.6875 -9.59375 C 6.65625 -9.59375 7.523438 -9.382812 8.296875 -8.96875 C 9.078125 -8.550781 9.6875 -7.972656 10.125 -7.234375 C 10.5625 -6.492188 10.78125 -5.660156 10.78125 -4.734375 C 10.78125 -3.804688 10.5625 -2.972656 10.125 -2.234375 C 9.6875 -1.492188 9.078125 -0.910156 8.296875 -0.484375 C 7.523438 -0.0664062 6.65625 0.140625 5.6875 0.140625 Z M 5.6875 -1.40625 C 6.320312 -1.40625 6.890625 -1.546875 7.390625 -1.828125 C 7.898438 -2.109375 8.296875 -2.503906 8.578125 -3.015625 C 8.867188 -3.523438 9.015625 -4.097656 9.015625 -4.734375 C 9.015625 -5.359375 8.867188 -5.925781 8.578125 -6.4375 C 8.296875 -6.945312 7.898438 -7.34375 7.390625 -7.625 C 6.890625 -7.914062 6.320312 -8.0625 5.6875 -8.0625 C 5.0625 -8.0625 4.492188 -7.914062 3.984375 -7.625 C 3.484375 -7.34375 3.085938 -6.945312 2.796875 -6.4375 C 2.503906 -5.925781 2.359375 -5.359375 2.359375 -4.734375 C 2.359375 -4.097656 2.503906 -3.523438 2.796875 -3.015625 C 3.085938 -2.503906 3.484375 -2.109375 3.984375 -1.828125 C 4.492188 -1.546875 5.0625 -1.40625 5.6875 -1.40625 Z M 5.6875 -1.40625 "/></g></g></g><g fill="#ffffff" fill-opacity="1"><g transform="translate(173.074619, 17.295228)"><g><path d="M 5.65625 0.140625 C 4.695312 0.140625 3.832031 -0.0664062 3.0625 -0.484375 C 2.289062 -0.910156 1.6875 -1.492188 1.25 -2.234375 C 0.8125 -2.972656 0.59375 -3.804688 0.59375 -4.734375 C 0.59375 -5.660156 0.8125 -6.492188 1.25 -7.234375 C 1.695312 -7.972656 2.304688 -8.550781 3.078125 -8.96875 C 3.847656 -9.382812 4.707031 -9.59375 5.65625 -9.59375 C 6.4375 -9.59375 7.144531 -9.457031 7.78125 -9.1875 C 8.425781 -8.914062 8.96875 -8.523438 9.40625 -8.015625 L 8.265625 -6.953125 C 7.585938 -7.691406 6.75 -8.0625 5.75 -8.0625 C 5.09375 -8.0625 4.507812 -7.914062 4 -7.625 C 3.488281 -7.34375 3.085938 -6.945312 2.796875 -6.4375 C 2.503906 -5.9375 2.359375 -5.367188 2.359375 -4.734375 C 2.359375 -4.085938 2.503906 -3.507812 2.796875 -3 C 3.085938 -2.5 3.488281 -2.109375 4 -1.828125 C 4.507812 -1.546875 5.09375 -1.40625 5.75 -1.40625 C 6.75 -1.40625 7.585938 -1.78125 8.265625 -2.53125 L 9.40625 -1.453125 C 8.96875 -0.929688 8.425781 -0.535156 7.78125 -0.265625 C 7.132812 0.00390625 6.425781 0.140625 5.65625 0.140625 Z M 5.65625 0.140625 "/></g></g></g><g fill="#ffffff" fill-opacity="1"><g transform="translate(185.033734, 17.295228)"><g><path d="M 1.265625 -9.46875 L 3.03125 -9.46875 L 3.03125 0 L 1.265625 0 Z M 1.265625 -9.46875 "/></g></g></g><g fill="#ffffff" fill-opacity="1"><g transform="translate(191.479893, 17.295228)"><g><path d="M 7.40625 -2.1875 L 2.671875 -2.1875 L 1.75 0 L -0.0625 0 L 4.1875 -9.46875 L 5.921875 -9.46875 L 10.1875 0 L 8.359375 0 Z M 6.828125 -3.5625 L 5.046875 -7.703125 L 3.265625 -3.5625 Z M 6.828125 -3.5625 "/></g></g></g><g fill="#ffffff" fill-opacity="1"><g transform="translate(203.736275, 17.295228)"><g><path d="M 3.1875 -7.96875 L 0.046875 -7.96875 L 0.046875 -9.46875 L 8.078125 -9.46875 L 8.078125 -7.96875 L 4.953125 -7.96875 L 4.953125 0 L 3.1875 0 Z M 3.1875 -7.96875 "/></g></g></g><g fill="#ffffff" fill-opacity="1"><g transform="translate(214.006384, 17.295228)"><g><path d="M 8.359375 -1.46875 L 8.359375 0 L 1.265625 0 L 1.265625 -9.46875 L 8.171875 -9.46875 L 8.171875 -7.984375 L 3.03125 -7.984375 L 3.03125 -5.53125 L 7.59375 -5.53125 L 7.59375 -4.078125 L 3.03125 -4.078125 L 3.03125 -1.46875 Z M 8.359375 -1.46875 "/></g></g></g><g fill="#ffffff" fill-opacity="1"><g transform="translate(225.195313, 17.295228)"><g><path d="M 4.203125 0.140625 C 3.472656 0.140625 2.765625 0.0351562 2.078125 -0.171875 C 1.398438 -0.378906 0.863281 -0.65625 0.46875 -1 L 1.078125 -2.359375 C 1.460938 -2.054688 1.9375 -1.804688 2.5 -1.609375 C 3.070312 -1.421875 3.640625 -1.328125 4.203125 -1.328125 C 4.898438 -1.328125 5.421875 -1.4375 5.765625 -1.65625 C 6.117188 -1.882812 6.296875 -2.179688 6.296875 -2.546875 C 6.296875 -2.816406 6.195312 -3.039062 6 -3.21875 C 5.8125 -3.394531 5.566406 -3.53125 5.265625 -3.625 C 4.972656 -3.726562 4.570312 -3.84375 4.0625 -3.96875 C 3.332031 -4.144531 2.742188 -4.316406 2.296875 -4.484375 C 1.859375 -4.660156 1.476562 -4.929688 1.15625 -5.296875 C 0.832031 -5.660156 0.671875 -6.148438 0.671875 -6.765625 C 0.671875 -7.296875 0.8125 -7.773438 1.09375 -8.203125 C 1.382812 -8.628906 1.816406 -8.96875 2.390625 -9.21875 C 2.960938 -9.46875 3.660156 -9.59375 4.484375 -9.59375 C 5.066406 -9.59375 5.632812 -9.519531 6.1875 -9.375 C 6.75 -9.226562 7.234375 -9.023438 7.640625 -8.765625 L 7.078125 -7.390625 C 6.660156 -7.640625 6.226562 -7.828125 5.78125 -7.953125 C 5.332031 -8.078125 4.894531 -8.140625 4.46875 -8.140625 C 3.78125 -8.140625 3.265625 -8.019531 2.921875 -7.78125 C 2.585938 -7.550781 2.421875 -7.242188 2.421875 -6.859375 C 2.421875 -6.585938 2.515625 -6.363281 2.703125 -6.1875 C 2.898438 -6.019531 3.144531 -5.882812 3.4375 -5.78125 C 3.738281 -5.6875 4.144531 -5.578125 4.65625 -5.453125 C 5.363281 -5.285156 5.941406 -5.113281 6.390625 -4.9375 C 6.835938 -4.757812 7.222656 -4.488281 7.546875 -4.125 C 7.867188 -3.769531 8.03125 -3.285156 8.03125 -2.671875 C 8.03125 -2.148438 7.882812 -1.675781 7.59375 -1.25 C 7.3125 -0.832031 6.882812 -0.492188 6.3125 -0.234375 C 5.738281 0.015625 5.035156 0.140625 4.203125 0.140625 Z M 4.203125 0.140625 "/></g></g></g><g fill="#ffffff" fill-opacity="1"><g transform="translate(68.655497, 30.147594)"><g><path d="M 4.03125 -1.1875 L 1.453125 -1.1875 L 0.953125 0 L -0.03125 0 L 2.28125 -5.140625 L 3.21875 -5.140625 L 5.53125 0 L 4.53125 0 Z M 3.703125 -1.9375 L 2.734375 -4.1875 L 1.78125 -1.9375 Z M 3.703125 -1.9375 "/></g></g></g><g fill="#ffffff" fill-opacity="1"><g transform="translate(75.955682, 30.147594)"><g/></g></g><g fill="#ffffff" fill-opacity="1"><g transform="translate(79.782032, 30.147594)"><g><path d="M 3.0625 0.078125 C 2.550781 0.078125 2.082031 -0.0351562 1.65625 -0.265625 C 1.238281 -0.492188 0.910156 -0.804688 0.671875 -1.203125 C 0.441406 -1.609375 0.328125 -2.066406 0.328125 -2.578125 C 0.328125 -3.078125 0.445312 -3.523438 0.6875 -3.921875 C 0.925781 -4.328125 1.253906 -4.644531 1.671875 -4.875 C 2.085938 -5.101562 2.554688 -5.21875 3.078125 -5.21875 C 3.492188 -5.21875 3.875 -5.144531 4.21875 -5 C 4.570312 -4.851562 4.867188 -4.640625 5.109375 -4.359375 L 4.5 -3.78125 C 4.125 -4.175781 3.664062 -4.375 3.125 -4.375 C 2.769531 -4.375 2.453125 -4.296875 2.171875 -4.140625 C 1.890625 -3.992188 1.671875 -3.78125 1.515625 -3.5 C 1.359375 -3.226562 1.28125 -2.921875 1.28125 -2.578125 C 1.28125 -2.222656 1.359375 -1.90625 1.515625 -1.625 C 1.671875 -1.351562 1.890625 -1.140625 2.171875 -0.984375 C 2.453125 -0.835938 2.769531 -0.765625 3.125 -0.765625 C 3.664062 -0.765625 4.125 -0.96875 4.5 -1.375 L 5.109375 -0.78125 C 4.867188 -0.507812 4.570312 -0.296875 4.21875 -0.140625 C 3.875 0.00390625 3.488281 0.078125 3.0625 0.078125 Z M 3.0625 0.078125 "/></g></g></g><g fill="#ffffff" fill-opacity="1"><g transform="translate(86.92064, 30.147594)"><g><path d="M 3.09375 0.078125 C 2.570312 0.078125 2.097656 -0.0351562 1.671875 -0.265625 C 1.253906 -0.492188 0.925781 -0.8125 0.6875 -1.21875 C 0.445312 -1.625 0.328125 -2.078125 0.328125 -2.578125 C 0.328125 -3.066406 0.445312 -3.515625 0.6875 -3.921875 C 0.925781 -4.328125 1.253906 -4.644531 1.671875 -4.875 C 2.097656 -5.101562 2.570312 -5.21875 3.09375 -5.21875 C 3.613281 -5.21875 4.082031 -5.101562 4.5 -4.875 C 4.925781 -4.644531 5.257812 -4.328125 5.5 -3.921875 C 5.738281 -3.523438 5.859375 -3.078125 5.859375 -2.578125 C 5.859375 -2.066406 5.738281 -1.609375 5.5 -1.203125 C 5.257812 -0.804688 4.925781 -0.492188 4.5 -0.265625 C 4.082031 -0.0351562 3.613281 0.078125 3.09375 0.078125 Z M 3.09375 -0.765625 C 3.4375 -0.765625 3.742188 -0.835938 4.015625 -0.984375 C 4.285156 -1.140625 4.5 -1.359375 4.65625 -1.640625 C 4.8125 -1.921875 4.890625 -2.234375 4.890625 -2.578125 C 4.890625 -2.910156 4.8125 -3.21875 4.65625 -3.5 C 4.5 -3.78125 4.285156 -3.992188 4.015625 -4.140625 C 3.742188 -4.296875 3.4375 -4.375 3.09375 -4.375 C 2.75 -4.375 2.4375 -4.296875 2.15625 -4.140625 C 1.882812 -3.992188 1.671875 -3.78125 1.515625 -3.5 C 1.359375 -3.21875 1.28125 -2.910156 1.28125 -2.578125 C 1.28125 -2.234375 1.359375 -1.921875 1.515625 -1.640625 C 1.671875 -1.359375 1.882812 -1.140625 2.15625 -0.984375 C 2.4375 -0.835938 2.75 -0.765625 3.09375 -0.765625 Z M 3.09375 -0.765625 "/></g></g></g><g fill="#ffffff" fill-opacity="1"><g transform="translate(94.903836, 30.147594)"><g><path d="M 5.40625 0 L 5.40625 -3.40625 L 3.71875 -0.59375 L 3.296875 -0.59375 L 1.59375 -3.359375 L 1.59375 0 L 0.6875 0 L 0.6875 -5.140625 L 1.46875 -5.140625 L 3.515625 -1.734375 L 5.515625 -5.140625 L 6.3125 -5.140625 L 6.3125 0 Z M 5.40625 0 "/></g></g></g><g fill="#ffffff" fill-opacity="1"><g transform="translate(103.716939, 30.147594)"><g><path d="M 2.8125 -5.140625 C 3.25 -5.140625 3.632812 -5.066406 3.96875 -4.921875 C 4.300781 -4.773438 4.554688 -4.5625 4.734375 -4.28125 C 4.910156 -4.007812 5 -3.6875 5 -3.3125 C 5 -2.9375 4.910156 -2.609375 4.734375 -2.328125 C 4.554688 -2.054688 4.300781 -1.847656 3.96875 -1.703125 C 3.632812 -1.554688 3.25 -1.484375 2.8125 -1.484375 L 1.640625 -1.484375 L 1.640625 0 L 0.6875 0 L 0.6875 -5.140625 Z M 2.765625 -2.296875 C 3.179688 -2.296875 3.492188 -2.378906 3.703125 -2.546875 C 3.921875 -2.722656 4.03125 -2.976562 4.03125 -3.3125 C 4.03125 -3.632812 3.921875 -3.882812 3.703125 -4.0625 C 3.492188 -4.238281 3.179688 -4.328125 2.765625 -4.328125 L 1.640625 -4.328125 L 1.640625 -2.296875 Z M 2.765625 -2.296875 "/></g></g></g><g fill="#ffffff" fill-opacity="1"><g transform="translate(110.848208, 30.147594)"><g><path d="M 0.6875 -5.140625 L 1.640625 -5.140625 L 1.640625 -0.8125 L 4.328125 -0.8125 L 4.328125 0 L 0.6875 0 Z M 0.6875 -5.140625 "/></g></g></g><g fill="#ffffff" fill-opacity="1"><g transform="translate(117.046752, 30.147594)"><g><path d="M 4.546875 -0.796875 L 4.546875 0 L 0.6875 0 L 0.6875 -5.140625 L 4.4375 -5.140625 L 4.4375 -4.34375 L 1.640625 -4.34375 L 1.640625 -3 L 4.125 -3 L 4.125 -2.21875 L 1.640625 -2.21875 L 1.640625 -0.796875 Z M 4.546875 -0.796875 "/></g></g></g><g fill="#ffffff" fill-opacity="1"><g transform="translate(123.766738, 30.147594)"><g><path d="M 1.734375 -4.328125 L 0.03125 -4.328125 L 0.03125 -5.140625 L 4.390625 -5.140625 L 4.390625 -4.328125 L 2.6875 -4.328125 L 2.6875 0 L 1.734375 0 Z M 1.734375 -4.328125 "/></g></g></g><g fill="#ffffff" fill-opacity="1"><g transform="translate(129.987312, 30.147594)"><g><path d="M 4.546875 -0.796875 L 4.546875 0 L 0.6875 0 L 0.6875 -5.140625 L 4.4375 -5.140625 L 4.4375 -4.34375 L 1.640625 -4.34375 L 1.640625 -3 L 4.125 -3 L 4.125 -2.21875 L 1.640625 -2.21875 L 1.640625 -0.796875 Z M 4.546875 -0.796875 "/></g></g></g><g fill="#ffffff" fill-opacity="1"><g transform="translate(136.707299, 30.147594)"><g/></g></g><g fill="#ffffff" fill-opacity="1"><g transform="translate(140.533649, 30.147594)"><g><path d="M 3.0625 0.078125 C 2.550781 0.078125 2.082031 -0.0351562 1.65625 -0.265625 C 1.238281 -0.492188 0.910156 -0.804688 0.671875 -1.203125 C 0.441406 -1.609375 0.328125 -2.066406 0.328125 -2.578125 C 0.328125 -3.078125 0.445312 -3.523438 0.6875 -3.921875 C 0.925781 -4.328125 1.253906 -4.644531 1.671875 -4.875 C 2.085938 -5.101562 2.554688 -5.21875 3.078125 -5.21875 C 3.492188 -5.21875 3.875 -5.144531 4.21875 -5 C 4.570312 -4.851562 4.867188 -4.640625 5.109375 -4.359375 L 4.5 -3.78125 C 4.125 -4.175781 3.664062 -4.375 3.125 -4.375 C 2.769531 -4.375 2.453125 -4.296875 2.171875 -4.140625 C 1.890625 -3.992188 1.671875 -3.78125 1.515625 -3.5 C 1.359375 -3.226562 1.28125 -2.921875 1.28125 -2.578125 C 1.28125 -2.222656 1.359375 -1.90625 1.515625 -1.625 C 1.671875 -1.351562 1.890625 -1.140625 2.171875 -0.984375 C 2.453125 -0.835938 2.769531 -0.765625 3.125 -0.765625 C 3.664062 -0.765625 4.125 -0.96875 4.5 -1.375 L 5.109375 -0.78125 C 4.867188 -0.507812 4.570312 -0.296875 4.21875 -0.140625 C 3.875 0.00390625 3.488281 0.078125 3.0625 0.078125 Z M 3.0625 0.078125 "/></g></g></g><g fill="#ffffff" fill-opacity="1"><g transform="translate(147.672254, 30.147594)"><g><path d="M 3.09375 0.078125 C 2.570312 0.078125 2.097656 -0.0351562 1.671875 -0.265625 C 1.253906 -0.492188 0.925781 -0.8125 0.6875 -1.21875 C 0.445312 -1.625 0.328125 -2.078125 0.328125 -2.578125 C 0.328125 -3.066406 0.445312 -3.515625 0.6875 -3.921875 C 0.925781 -4.328125 1.253906 -4.644531 1.671875 -4.875 C 2.097656 -5.101562 2.570312 -5.21875 3.09375 -5.21875 C 3.613281 -5.21875 4.082031 -5.101562 4.5 -4.875 C 4.925781 -4.644531 5.257812 -4.328125 5.5 -3.921875 C 5.738281 -3.523438 5.859375 -3.078125 5.859375 -2.578125 C 5.859375 -2.066406 5.738281 -1.609375 5.5 -1.203125 C 5.257812 -0.804688 4.925781 -0.492188 4.5 -0.265625 C 4.082031 -0.0351562 3.613281 0.078125 3.09375 0.078125 Z M 3.09375 -0.765625 C 3.4375 -0.765625 3.742188 -0.835938 4.015625 -0.984375 C 4.285156 -1.140625 4.5 -1.359375 4.65625 -1.640625 C 4.8125 -1.921875 4.890625 -2.234375 4.890625 -2.578125 C 4.890625 -2.910156 4.8125 -3.21875 4.65625 -3.5 C 4.5 -3.78125 4.285156 -3.992188 4.015625 -4.140625 C 3.742188 -4.296875 3.4375 -4.375 3.09375 -4.375 C 2.75 -4.375 2.4375 -4.296875 2.15625 -4.140625 C 1.882812 -3.992188 1.671875 -3.78125 1.515625 -3.5 C 1.359375 -3.21875 1.28125 -2.910156 1.28125 -2.578125 C 1.28125 -2.234375 1.359375 -1.921875 1.515625 -1.640625 C 1.671875 -1.359375 1.882812 -1.140625 2.15625 -0.984375 C 2.4375 -0.835938 2.75 -0.765625 3.09375 -0.765625 Z M 3.09375 -0.765625 "/></g></g></g><g fill="#ffffff" fill-opacity="1"><g transform="translate(155.655451, 30.147594)"><g><path d="M 5.265625 -5.140625 L 5.265625 0 L 4.46875 0 L 1.640625 -3.484375 L 1.640625 0 L 0.6875 0 L 0.6875 -5.140625 L 1.46875 -5.140625 L 4.3125 -1.65625 L 4.3125 -5.140625 Z M 5.265625 -5.140625 "/></g></g></g><g fill="#ffffff" fill-opacity="1"><g transform="translate(163.403631, 30.147594)"><g><path d="M 2.28125 0.078125 C 1.882812 0.078125 1.5 0.0195312 1.125 -0.09375 C 0.757812 -0.207031 0.46875 -0.359375 0.25 -0.546875 L 0.59375 -1.28125 C 0.800781 -1.113281 1.054688 -0.976562 1.359375 -0.875 C 1.671875 -0.769531 1.976562 -0.71875 2.28125 -0.71875 C 2.664062 -0.71875 2.953125 -0.78125 3.140625 -0.90625 C 3.328125 -1.03125 3.421875 -1.191406 3.421875 -1.390625 C 3.421875 -1.535156 3.367188 -1.65625 3.265625 -1.75 C 3.160156 -1.84375 3.023438 -1.914062 2.859375 -1.96875 C 2.703125 -2.03125 2.484375 -2.09375 2.203125 -2.15625 C 1.804688 -2.25 1.488281 -2.34375 1.25 -2.4375 C 1.007812 -2.53125 0.800781 -2.675781 0.625 -2.875 C 0.457031 -3.070312 0.375 -3.335938 0.375 -3.671875 C 0.375 -3.960938 0.445312 -4.222656 0.59375 -4.453125 C 0.75 -4.679688 0.984375 -4.863281 1.296875 -5 C 1.609375 -5.144531 1.988281 -5.21875 2.4375 -5.21875 C 2.75 -5.21875 3.054688 -5.175781 3.359375 -5.09375 C 3.660156 -5.019531 3.925781 -4.910156 4.15625 -4.765625 L 3.84375 -4.015625 C 3.625 -4.148438 3.390625 -4.25 3.140625 -4.3125 C 2.898438 -4.382812 2.664062 -4.421875 2.4375 -4.421875 C 2.050781 -4.421875 1.765625 -4.359375 1.578125 -4.234375 C 1.398438 -4.109375 1.3125 -3.9375 1.3125 -3.71875 C 1.3125 -3.570312 1.363281 -3.453125 1.46875 -3.359375 C 1.570312 -3.265625 1.703125 -3.191406 1.859375 -3.140625 C 2.023438 -3.085938 2.25 -3.023438 2.53125 -2.953125 C 2.914062 -2.867188 3.226562 -2.78125 3.46875 -2.6875 C 3.71875 -2.59375 3.925781 -2.445312 4.09375 -2.25 C 4.269531 -2.050781 4.359375 -1.785156 4.359375 -1.453125 C 4.359375 -1.171875 4.28125 -0.914062 4.125 -0.6875 C 3.976562 -0.457031 3.742188 -0.269531 3.421875 -0.125 C 3.109375 0.0078125 2.726562 0.078125 2.28125 0.078125 Z M 2.28125 0.078125 "/></g></g></g><g fill="#ffffff" fill-opacity="1"><g transform="translate(169.822502, 30.147594)"><g><path d="M 1.734375 -4.328125 L 0.03125 -4.328125 L 0.03125 -5.140625 L 4.390625 -5.140625 L 4.390625 -4.328125 L 2.6875 -4.328125 L 2.6875 0 L 1.734375 0 Z M 1.734375 -4.328125 "/></g></g></g><g fill="#ffffff" fill-opacity="1"><g transform="translate(176.043076, 30.147594)"><g><path d="M 4.046875 0 L 3 -1.5 C 2.957031 -1.5 2.894531 -1.5 2.8125 -1.5 L 1.640625 -1.5 L 1.640625 0 L 0.6875 0 L 0.6875 -5.140625 L 2.8125 -5.140625 C 3.25 -5.140625 3.632812 -5.066406 3.96875 -4.921875 C 4.300781 -4.773438 4.554688 -4.5625 4.734375 -4.28125 C 4.910156 -4.007812 5 -3.6875 5 -3.3125 C 5 -2.925781 4.898438 -2.59375 4.703125 -2.3125 C 4.515625 -2.03125 4.25 -1.820312 3.90625 -1.6875 L 5.078125 0 Z M 4.03125 -3.3125 C 4.03125 -3.632812 3.921875 -3.882812 3.703125 -4.0625 C 3.492188 -4.238281 3.179688 -4.328125 2.765625 -4.328125 L 1.640625 -4.328125 L 1.640625 -2.28125 L 2.765625 -2.28125 C 3.179688 -2.28125 3.492188 -2.367188 3.703125 -2.546875 C 3.921875 -2.722656 4.03125 -2.976562 4.03125 -3.3125 Z M 4.03125 -3.3125 "/></g></g></g><g fill="#ffffff" fill-opacity="1"><g transform="translate(183.211065, 30.147594)"><g><path d="M 2.90625 0.078125 C 2.195312 0.078125 1.640625 -0.117188 1.234375 -0.515625 C 0.835938 -0.921875 0.640625 -1.492188 0.640625 -2.234375 L 0.640625 -5.140625 L 1.59375 -5.140625 L 1.59375 -2.28125 C 1.59375 -1.269531 2.03125 -0.765625 2.90625 -0.765625 C 3.769531 -0.765625 4.203125 -1.269531 4.203125 -2.28125 L 4.203125 -5.140625 L 5.140625 -5.140625 L 5.140625 -2.234375 C 5.140625 -1.492188 4.941406 -0.921875 4.546875 -0.515625 C 4.160156 -0.117188 3.613281 0.078125 2.90625 0.078125 Z M 2.90625 0.078125 "/></g></g></g><g fill="#ffffff" fill-opacity="1"><g transform="translate(190.805017, 30.147594)"><g><path d="M 3.0625 0.078125 C 2.550781 0.078125 2.082031 -0.0351562 1.65625 -0.265625 C 1.238281 -0.492188 0.910156 -0.804688 0.671875 -1.203125 C 0.441406 -1.609375 0.328125 -2.066406 0.328125 -2.578125 C 0.328125 -3.078125 0.445312 -3.523438 0.6875 -3.921875 C 0.925781 -4.328125 1.253906 -4.644531 1.671875 -4.875 C 2.085938 -5.101562 2.554688 -5.21875 3.078125 -5.21875 C 3.492188 -5.21875 3.875 -5.144531 4.21875 -5 C 4.570312 -4.851562 4.867188 -4.640625 5.109375 -4.359375 L 4.5 -3.78125 C 4.125 -4.175781 3.664062 -4.375 3.125 -4.375 C 2.769531 -4.375 2.453125 -4.296875 2.171875 -4.140625 C 1.890625 -3.992188 1.671875 -3.78125 1.515625 -3.5 C 1.359375 -3.226562 1.28125 -2.921875 1.28125 -2.578125 C 1.28125 -2.222656 1.359375 -1.90625 1.515625 -1.625 C 1.671875 -1.351562 1.890625 -1.140625 2.171875 -0.984375 C 2.453125 -0.835938 2.769531 -0.765625 3.125 -0.765625 C 3.664062 -0.765625 4.125 -0.96875 4.5 -1.375 L 5.109375 -0.78125 C 4.867188 -0.507812 4.570312 -0.296875 4.21875 -0.140625 C 3.875 0.00390625 3.488281 0.078125 3.0625 0.078125 Z M 3.0625 0.078125 "/></g></g></g><g fill="#ffffff" fill-opacity="1"><g transform="translate(197.943627, 30.147594)"><g><path d="M 1.734375 -4.328125 L 0.03125 -4.328125 L 0.03125 -5.140625 L 4.390625 -5.140625 L 4.390625 -4.328125 L 2.6875 -4.328125 L 2.6875 0 L 1.734375 0 Z M 1.734375 -4.328125 "/></g></g></g><g fill="#ffffff" fill-opacity="1"><g transform="translate(204.164201, 30.147594)"><g><path d="M 0.6875 -5.140625 L 1.640625 -5.140625 L 1.640625 0 L 0.6875 0 Z M 0.6875 -5.140625 "/></g></g></g><g fill="#ffffff" fill-opacity="1"><g transform="translate(208.306357, 30.147594)"><g><path d="M 3.09375 0.078125 C 2.570312 0.078125 2.097656 -0.0351562 1.671875 -0.265625 C 1.253906 -0.492188 0.925781 -0.8125 0.6875 -1.21875 C 0.445312 -1.625 0.328125 -2.078125 0.328125 -2.578125 C 0.328125 -3.066406 0.445312 -3.515625 0.6875 -3.921875 C 0.925781 -4.328125 1.253906 -4.644531 1.671875 -4.875 C 2.097656 -5.101562 2.570312 -5.21875 3.09375 -5.21875 C 3.613281 -5.21875 4.082031 -5.101562 4.5 -4.875 C 4.925781 -4.644531 5.257812 -4.328125 5.5 -3.921875 C 5.738281 -3.523438 5.859375 -3.078125 5.859375 -2.578125 C 5.859375 -2.066406 5.738281 -1.609375 5.5 -1.203125 C 5.257812 -0.804688 4.925781 -0.492188 4.5 -0.265625 C 4.082031 -0.0351562 3.613281 0.078125 3.09375 0.078125 Z M 3.09375 -0.765625 C 3.4375 -0.765625 3.742188 -0.835938 4.015625 -0.984375 C 4.285156 -1.140625 4.5 -1.359375 4.65625 -1.640625 C 4.8125 -1.921875 4.890625 -2.234375 4.890625 -2.578125 C 4.890625 -2.910156 4.8125 -3.21875 4.65625 -3.5 C 4.5 -3.78125 4.285156 -3.992188 4.015625 -4.140625 C 3.742188 -4.296875 3.4375 -4.375 3.09375 -4.375 C 2.75 -4.375 2.4375 -4.296875 2.15625 -4.140625 C 1.882812 -3.992188 1.671875 -3.78125 1.515625 -3.5 C 1.359375 -3.21875 1.28125 -2.910156 1.28125 -2.578125 C 1.28125 -2.234375 1.359375 -1.921875 1.515625 -1.640625 C 1.671875 -1.359375 1.882812 -1.140625 2.15625 -0.984375 C 2.4375 -0.835938 2.75 -0.765625 3.09375 -0.765625 Z M 3.09375 -0.765625 "/></g></g></g><g fill="#ffffff" fill-opacity="1"><g transform="translate(216.289553, 30.147594)"><g><path d="M 5.265625 -5.140625 L 5.265625 0 L 4.46875 0 L 1.640625 -3.484375 L 1.640625 0 L 0.6875 0 L 0.6875 -5.140625 L 1.46875 -5.140625 L 4.3125 -1.65625 L 4.3125 -5.140625 Z M 5.265625 -5.140625 "/></g></g></g><g fill="#ffffff" fill-opacity="1"><g transform="translate(112.672937, 41.163908)"><g><path d="M 4.046875 0 L 3 -1.5 C 2.957031 -1.5 2.894531 -1.5 2.8125 -1.5 L 1.640625 -1.5 L 1.640625 0 L 0.6875 0 L 0.6875 -5.140625 L 2.8125 -5.140625 C 3.25 -5.140625 3.632812 -5.066406 3.96875 -4.921875 C 4.300781 -4.773438 4.554688 -4.5625 4.734375 -4.28125 C 4.910156 -4.007812 5 -3.6875 5 -3.3125 C 5 -2.925781 4.898438 -2.59375 4.703125 -2.3125 C 4.515625 -2.03125 4.25 -1.820312 3.90625 -1.6875 L 5.078125 0 Z M 4.03125 -3.3125 C 4.03125 -3.632812 3.921875 -3.882812 3.703125 -4.0625 C 3.492188 -4.238281 3.179688 -4.328125 2.765625 -4.328125 L 1.640625 -4.328125 L 1.640625 -2.28125 L 2.765625 -2.28125 C 3.179688 -2.28125 3.492188 -2.367188 3.703125 -2.546875 C 3.921875 -2.722656 4.03125 -2.976562 4.03125 -3.3125 Z M 4.03125 -3.3125 "/></g></g></g><g fill="#ffffff" fill-opacity="1"><g transform="translate(119.840925, 41.163908)"><g><path d="M 4.546875 -0.796875 L 4.546875 0 L 0.6875 0 L 0.6875 -5.140625 L 4.4375 -5.140625 L 4.4375 -4.34375 L 1.640625 -4.34375 L 1.640625 -3 L 4.125 -3 L 4.125 -2.21875 L 1.640625 -2.21875 L 1.640625 -0.796875 Z M 4.546875 -0.796875 "/></g></g></g><g fill="#ffffff" fill-opacity="1"><g transform="translate(126.56091, 41.163908)"><g><path d="M 5.390625 -5.140625 L 3.15625 0 L 2.203125 0 L -0.03125 -5.140625 L 1 -5.140625 L 2.703125 -1.171875 L 4.4375 -5.140625 Z M 5.390625 -5.140625 "/></g></g></g><g fill="#ffffff" fill-opacity="1"><g transform="translate(133.714207, 41.163908)"><g><path d="M 4.546875 -0.796875 L 4.546875 0 L 0.6875 0 L 0.6875 -5.140625 L 4.4375 -5.140625 L 4.4375 -4.34375 L 1.640625 -4.34375 L 1.640625 -3 L 4.125 -3 L 4.125 -2.21875 L 1.640625 -2.21875 L 1.640625 -0.796875 Z M 4.546875 -0.796875 "/></g></g></g><g fill="#ffffff" fill-opacity="1"><g transform="translate(140.434193, 41.163908)"><g><path d="M 0.6875 -5.140625 L 1.640625 -5.140625 L 1.640625 -0.8125 L 4.328125 -0.8125 L 4.328125 0 L 0.6875 0 Z M 0.6875 -5.140625 "/></g></g></g><g fill="#ffffff" fill-opacity="1"><g transform="translate(146.632737, 41.163908)"><g><path d="M 4.03125 -1.1875 L 1.453125 -1.1875 L 0.953125 0 L -0.03125 0 L 2.28125 -5.140625 L 3.21875 -5.140625 L 5.53125 0 L 4.53125 0 Z M 3.703125 -1.9375 L 2.734375 -4.1875 L 1.78125 -1.9375 Z M 3.703125 -1.9375 "/></g></g></g><g fill="#ffffff" fill-opacity="1"><g transform="translate(153.932924, 41.163908)"><g><path d="M 1.734375 -4.328125 L 0.03125 -4.328125 L 0.03125 -5.140625 L 4.390625 -5.140625 L 4.390625 -4.328125 L 2.6875 -4.328125 L 2.6875 0 L 1.734375 0 Z M 1.734375 -4.328125 "/></g></g></g><g fill="#ffffff" fill-opacity="1"><g transform="translate(160.153498, 41.163908)"><g><path d="M 0.6875 -5.140625 L 1.640625 -5.140625 L 1.640625 0 L 0.6875 0 Z M 0.6875 -5.140625 "/></g></g></g><g fill="#ffffff" fill-opacity="1"><g transform="translate(164.295654, 41.163908)"><g><path d="M 3.09375 0.078125 C 2.570312 0.078125 2.097656 -0.0351562 1.671875 -0.265625 C 1.253906 -0.492188 0.925781 -0.8125 0.6875 -1.21875 C 0.445312 -1.625 0.328125 -2.078125 0.328125 -2.578125 C 0.328125 -3.066406 0.445312 -3.515625 0.6875 -3.921875 C 0.925781 -4.328125 1.253906 -4.644531 1.671875 -4.875 C 2.097656 -5.101562 2.570312 -5.21875 3.09375 -5.21875 C 3.613281 -5.21875 4.082031 -5.101562 4.5 -4.875 C 4.925781 -4.644531 5.257812 -4.328125 5.5 -3.921875 C 5.738281 -3.523438 5.859375 -3.078125 5.859375 -2.578125 C 5.859375 -2.066406 5.738281 -1.609375 5.5 -1.203125 C 5.257812 -0.804688 4.925781 -0.492188 4.5 -0.265625 C 4.082031 -0.0351562 3.613281 0.078125 3.09375 0.078125 Z M 3.09375 -0.765625 C 3.4375 -0.765625 3.742188 -0.835938 4.015625 -0.984375 C 4.285156 -1.140625 4.5 -1.359375 4.65625 -1.640625 C 4.8125 -1.921875 4.890625 -2.234375 4.890625 -2.578125 C 4.890625 -2.910156 4.8125 -3.21875 4.65625 -3.5 C 4.5 -3.78125 4.285156 -3.992188 4.015625 -4.140625 C 3.742188 -4.296875 3.4375 -4.375 3.09375 -4.375 C 2.75 -4.375 2.4375 -4.296875 2.15625 -4.140625 C 1.882812 -3.992188 1.671875 -3.78125 1.515625 -3.5 C 1.359375 -3.21875 1.28125 -2.910156 1.28125 -2.578125 C 1.28125 -2.234375 1.359375 -1.921875 1.515625 -1.640625 C 1.671875 -1.359375 1.882812 -1.140625 2.15625 -0.984375 C 2.4375 -0.835938 2.75 -0.765625 3.09375 -0.765625 Z M 3.09375 -0.765625 "/></g></g></g><g fill="#ffffff" fill-opacity="1"><g transform="translate(172.27885, 41.163908)"><g><path d="M 5.265625 -5.140625 L 5.265625 0 L 4.46875 0 L 1.640625 -3.484375 L 1.640625 0 L 0.6875 0 L 0.6875 -5.140625 L 1.46875 -5.140625 L 4.3125 -1.65625 L 4.3125 -5.140625 Z M 5.265625 -5.140625 "/></g></g></g></svg>