<svg xmlns="http://www.w3.org/2000/svg" xmlns:xlink="http://www.w3.org/1999/xlink" width="335" zoomAndPan="magnify" viewBox="0 0 251.25 48" height="64" preserveAspectRatio="xMidYMid meet" version="1.0"><defs><g/><clipPath id="40067dc426"><path d="M 2.195312 0 L 248.320312 0 L 248.320312 47.019531 L 2.195312 47.019531 Z M 2.195312 0 " clip-rule="nonzero"/></clipPath><clipPath id="c0d48715ca"><path d="M 31.21875 0.679688 L 93.367188 0.679688 L 93.367188 36.316406 L 31.21875 36.316406 Z M 31.21875 0.679688 " clip-rule="nonzero"/></clipPath><clipPath id="877c671ae6"><path d="M 31.21875 36 L 79 36 L 79 36.316406 L 31.21875 36.316406 Z M 31.21875 36 " clip-rule="nonzero"/></clipPath></defs><g clip-path="url(#40067dc426)"><path fill="#ffffff" d="M 2.195312 0 L 248.320312 0 L 248.320312 47.019531 L 2.195312 47.019531 Z M 2.195312 0 " fill-opacity="1" fill-rule="nonzero"/><path fill="#ffffff" d="M 2.195312 0 L 248.320312 0 L 248.320312 47.019531 L 2.195312 47.019531 Z M 2.195312 0 " fill-opacity="1" fill-rule="nonzero"/></g><g clip-path="url(#c0d48715ca)"><path fill="#f8cf40" d="M 93.847656 37.167969 C 93.207031 36.75 92.441406 36.527344 91.78125 36.183594 C 91.804688 36.125 91.886719 36.152344 91.9375 36.144531 C 92.394531 36.148438 92.851562 36.152344 93.304688 36.152344 C 93.398438 36.140625 93.5625 36.191406 93.597656 36.074219 C 93.59375 35.898438 93.625 35.679688 93.578125 35.515625 C 93.433594 35.351562 93.203125 35.660156 93.234375 35.222656 C 93.230469 34.769531 93.226562 34.3125 93.222656 33.855469 C 93.207031 33.757812 93.265625 33.582031 93.132812 33.566406 C 92.507812 33.550781 91.875 33.527344 91.246094 33.539062 C 91.09375 33.570312 91.183594 34.328125 91.144531 34.503906 C 91.140625 34.640625 91.125 34.652344 90.992188 34.65625 C 90.804688 34.660156 90.792969 34.648438 90.792969 34.453125 C 90.792969 34.347656 90.796875 34.246094 90.796875 34.140625 C 90.792969 33.347656 90.808594 32.554688 90.792969 31.761719 C 90.796875 31.664062 90.699219 31.652344 90.621094 31.664062 C 90.421875 31.675781 90.421875 31.636719 90.414062 31.460938 C 90.386719 30.136719 90.429688 28.808594 90.363281 27.484375 C 90.253906 27.46875 90.195312 27.558594 90.121094 27.609375 C 89.40625 28.171875 88.59375 28.679688 87.917969 29.261719 C 87.820312 30.472656 87.898438 31.710938 87.863281 32.929688 C 87.863281 33.300781 87.867188 33.671875 87.867188 34.042969 C 87.855469 34.113281 87.878906 34.242188 87.804688 34.269531 C 87.671875 34.238281 87.738281 33.371094 87.703125 33.195312 C 87.71875 32.832031 87.652344 32.894531 87.34375 32.894531 C 87.230469 32.894531 87.257812 32.761719 87.253906 32.6875 C 87.261719 31.945312 87.273438 31.203125 87.277344 30.464844 C 87.28125 30.109375 87.320312 30.148438 86.960938 30.148438 C 86.636719 30.152344 86.660156 30.175781 86.660156 29.839844 C 86.65625 28.425781 86.671875 27.011719 86.660156 25.601562 C 86.65625 25.574219 86.636719 25.542969 86.617188 25.519531 C 86.609375 25.515625 86.570312 25.53125 86.550781 25.546875 C 86.09375 25.953125 85.644531 26.367188 85.179688 26.769531 C 84.949219 26.972656 85.0625 27.328125 85.011719 27.601562 C 85.058594 28.085938 84.6875 27.773438 84.429688 27.910156 C 84.382812 28.25 84.386719 28.59375 84.382812 28.9375 C 84.371094 29.058594 84.429688 29.25 84.242188 29.226562 C 84.042969 29.234375 83.84375 29.230469 83.648438 29.230469 C 83.332031 29.230469 83.355469 29.257812 83.355469 28.941406 C 83.359375 25.484375 83.371094 22.027344 83.355469 18.570312 C 83.355469 18.414062 83.300781 18.320312 83.171875 18.238281 C 82.757812 17.976562 82.347656 17.703125 81.941406 17.429688 C 80.695312 16.609375 79.488281 15.6875 78.203125 14.953125 C 78.105469 20.203125 78.167969 25.464844 78.136719 30.722656 C 78.136719 30.9375 78.128906 30.9375 77.921875 30.9375 C 77.738281 30.933594 77.734375 30.929688 77.726562 30.746094 C 77.71875 27.023438 77.738281 23.300781 77.71875 19.578125 C 77.714844 19.417969 77.707031 19.414062 77.558594 19.414062 C 77.085938 19.410156 76.609375 19.410156 76.136719 19.40625 C 75.914062 19.40625 75.914062 19.394531 75.914062 19.636719 C 75.910156 20.472656 75.917969 21.308594 75.90625 22.144531 C 75.960938 22.328125 75.183594 22.1875 75.058594 22.21875 C 74.867188 22.179688 74.964844 22.660156 74.9375 22.789062 C 74.933594 24.109375 74.945312 25.425781 74.929688 26.746094 C 74.929688 26.808594 74.894531 26.839844 74.832031 26.839844 C 74.316406 26.839844 73.800781 26.84375 73.28125 26.84375 C 73.117188 26.84375 73.117188 26.847656 73.109375 27.019531 C 73.074219 28.878906 73.082031 30.742188 73.074219 32.605469 C 73.070312 32.839844 73.066406 32.839844 72.820312 32.839844 C 72.757812 32.839844 72.726562 32.800781 72.726562 32.742188 C 72.695312 27.667969 72.726562 22.589844 72.710938 17.511719 C 72.707031 17.359375 72.695312 17.347656 72.550781 17.347656 C 72.359375 17.351562 72.171875 17.363281 71.984375 17.367188 C 71.621094 17.375 71.652344 17.394531 71.652344 17.035156 C 71.617188 14.144531 71.726562 11.167969 71.628906 8.320312 C 71.597656 8.3125 71.542969 8.363281 71.507812 8.398438 C 71.285156 8.628906 71.0625 8.855469 70.847656 9.089844 C 70.046875 9.960938 69.253906 10.835938 68.453125 11.703125 C 68.335938 11.832031 68.273438 11.960938 68.277344 12.136719 C 68.25 13.945312 68.277344 15.757812 68.253906 17.566406 C 68.253906 17.730469 68.042969 17.671875 67.933594 17.683594 C 67.597656 17.683594 67.257812 17.683594 66.921875 17.683594 C 66.597656 17.6875 66.644531 17.664062 66.640625 17.953125 C 66.640625 18.929688 66.632812 19.902344 66.613281 20.875 C 66.609375 21.085938 66.605469 21.085938 66.390625 21.089844 C 65.984375 21.09375 65.578125 21.097656 65.175781 21.097656 C 65.070312 21.105469 65.054688 21.113281 65.050781 21.21875 C 65.027344 23.105469 65.042969 24.992188 65.035156 26.882812 C 65.035156 27.054688 65.035156 27.226562 65.027344 27.398438 C 65.023438 27.535156 64.996094 27.558594 64.855469 27.5625 C 64.746094 27.558594 64.652344 27.566406 64.65625 27.425781 C 64.660156 23.554688 64.652344 19.6875 64.644531 15.816406 C 64.644531 12.308594 64.652344 8.800781 64.644531 5.292969 C 64.660156 5.132812 64.515625 5.070312 64.410156 4.984375 C 62.453125 3.566406 60.539062 2.089844 58.578125 0.695312 C 58.332031 5.988281 58.574219 11.65625 58.492188 17.074219 C 58.484375 17.074219 58.476562 17.074219 58.472656 17.074219 C 58.464844 22.539062 58.484375 28.003906 58.46875 33.46875 C 58.515625 33.632812 57.886719 33.515625 57.792969 33.539062 C 57.53125 25.273438 57.773438 16.714844 57.695312 8.351562 C 57.683594 8.234375 57.75 8.039062 57.582031 8.035156 C 56.84375 8.027344 56.101562 8.03125 55.359375 8.027344 C 55.300781 8.011719 55.207031 8.035156 55.191406 8.097656 C 55.148438 9.464844 55.191406 10.835938 55.164062 12.207031 C 55.242188 12.375 53.957031 12.28125 53.792969 12.3125 C 53.484375 12.292969 53.527344 12.367188 53.523438 12.632812 C 53.519531 19.449219 53.5 26.265625 53.503906 33.085938 C 53.503906 33.316406 53.503906 33.316406 53.277344 33.316406 C 52.929688 33.300781 52.929688 33.371094 52.9375 32.992188 C 52.9375 30 52.933594 27.011719 52.933594 24.019531 C 52.933594 23.105469 52.9375 22.191406 52.9375 21.28125 C 52.9375 21.140625 52.925781 21.128906 52.796875 21.121094 C 51.191406 21.113281 49.589844 21.105469 47.984375 21.105469 C 47.925781 21.105469 47.886719 21.136719 47.886719 21.199219 C 47.882812 22.957031 47.894531 24.714844 47.894531 26.472656 C 47.894531 26.769531 47.910156 26.753906 47.609375 26.753906 C 46.9375 26.753906 46.265625 26.753906 45.59375 26.757812 C 45.457031 26.757812 45.445312 26.769531 45.441406 26.90625 C 45.375 29.550781 45.429688 32.199219 45.410156 34.84375 C 45.40625 34.929688 45.382812 34.957031 45.304688 34.960938 C 45.109375 34.964844 44.910156 34.964844 44.710938 34.960938 C 44.628906 34.960938 44.609375 34.941406 44.601562 34.851562 C 44.566406 31.800781 44.609375 28.75 44.574219 25.695312 C 44.546875 25.539062 44.644531 25.308594 44.464844 25.226562 C 43.191406 24.488281 41.9375 23.714844 40.652344 22.992188 C 40.589844 22.957031 40.554688 22.976562 40.546875 23.046875 C 40.539062 23.613281 40.539062 24.183594 40.535156 24.75 C 40.53125 26.769531 40.539062 28.785156 40.53125 30.800781 C 40.535156 30.960938 40.371094 30.914062 40.269531 30.921875 C 40.078125 30.921875 39.890625 30.921875 39.699219 30.925781 C 39.5625 30.929688 39.5625 30.933594 39.554688 31.078125 C 39.539062 32.058594 39.53125 33.042969 39.519531 34.023438 C 39.515625 34.386719 39.519531 34.75 39.519531 35.109375 C 39.515625 35.242188 39.488281 35.261719 39.367188 35.257812 C 39.210938 35.269531 39.234375 35.144531 39.234375 35.035156 C 39.238281 33.210938 39.226562 31.382812 39.242188 29.554688 C 39.246094 29.433594 39.199219 29.367188 39.09375 29.3125 C 38.078125 28.75 37.082031 28.148438 36.074219 27.570312 C 35.871094 27.429688 35.875 27.523438 35.882812 27.75 C 35.875 29.292969 35.878906 30.835938 35.867188 32.378906 C 35.871094 32.605469 35.613281 32.496094 35.472656 32.515625 C 35.144531 32.511719 35.179688 32.46875 35.175781 32.792969 C 35.167969 33.515625 35.160156 34.242188 35.148438 34.964844 C 35.160156 35.535156 34.996094 35.316406 34.5 35.339844 C 34.414062 35.335938 34.386719 35.308594 34.386719 35.207031 C 34.382812 34.96875 34.382812 34.726562 34.378906 34.484375 C 34.378906 34.363281 34.363281 34.347656 34.246094 34.347656 C 33.710938 34.34375 33.175781 34.339844 32.644531 34.339844 C 32.523438 34.339844 32.507812 34.355469 32.5 34.46875 C 32.492188 34.710938 32.484375 34.953125 32.476562 35.191406 C 32.46875 35.507812 32.488281 35.480469 32.175781 35.476562 C 31.917969 35.503906 31.171875 35.394531 31.222656 35.566406 C 31.28125 36.125 31.019531 36.214844 31.71875 36.1875 C 46.644531 36.332031 61.605469 35.964844 76.519531 36.328125 C 79.464844 36.722656 82.398438 37.253906 85.21875 38.207031 C 86.105469 38.511719 86.992188 38.8125 87.855469 39.1875 C 88.039062 39.265625 88.207031 39.277344 88.402344 39.207031 C 88.890625 39.039062 89.386719 38.894531 89.878906 38.742188 C 89.972656 38.714844 90.078125 38.722656 90.148438 38.636719 C 88.367188 37.441406 86.257812 36.882812 84.253906 36.222656 C 85.441406 36.167969 86.648438 36.21875 87.84375 36.199219 C 88.363281 36.203125 88.839844 36.453125 89.328125 36.609375 C 89.976562 36.847656 90.621094 37.085938 91.246094 37.378906 C 91.609375 37.5 92.179688 37.964844 92.527344 37.796875 C 92.957031 37.621094 93.382812 37.429688 93.835938 37.3125 C 93.910156 37.289062 93.917969 37.203125 93.847656 37.167969 Z M 93.847656 37.167969 " fill-opacity="1" fill-rule="nonzero"/></g><g clip-path="url(#877c671ae6)"><path fill="#f8cf40" d="M 78.066406 42.457031 C 69.875 39.371094 61.089844 38.515625 52.425781 37.816406 C 45.742188 37.308594 39.0625 36.753906 32.375 36.308594 C 32.375 36.308594 32.375 36.3125 32.371094 36.3125 C 32.238281 36.320312 32.097656 36.296875 31.964844 36.328125 C 41.078125 37.648438 50.261719 38.730469 59.265625 40.734375 C 63.539062 41.65625 67.765625 42.8125 71.898438 44.242188 C 72.019531 44.28125 72.132812 44.289062 72.25 44.253906 C 73.363281 43.921875 74.476562 43.585938 75.589844 43.253906 C 76.382812 43.015625 77.171875 42.785156 77.96875 42.550781 C 78.007812 42.53125 78.070312 42.527344 78.082031 42.476562 C 78.085938 42.472656 78.074219 42.460938 78.066406 42.457031 Z M 78.066406 42.457031 " fill-opacity="1" fill-rule="nonzero"/></g><g fill="#f8cf40" fill-opacity="1"><g transform="translate(99.423525, 35.048436)"><g><path d="M 0.015625 0 L 0.984375 -2.40625 L 1.3125 -2.40625 L 2.265625 0 L 1.796875 0 L 1.609375 -0.515625 L 0.671875 -0.515625 L 0.484375 0 Z M 0.828125 -0.890625 L 1.46875 -0.890625 L 1.140625 -1.765625 Z M 0.828125 -0.890625 "/></g></g></g><g fill="#f8cf40" fill-opacity="1"><g transform="translate(103.024529, 35.048436)"><g/></g></g><g fill="#f8cf40" fill-opacity="1"><g transform="translate(105.180881, 35.048436)"><g><path d="M 1.296875 0.03125 C 1.140625 0.03125 1 0.0078125 0.875 -0.03125 C 0.75 -0.0703125 0.640625 -0.128906 0.546875 -0.203125 C 0.453125 -0.285156 0.375 -0.378906 0.3125 -0.484375 C 0.257812 -0.585938 0.21875 -0.695312 0.1875 -0.8125 C 0.15625 -0.9375 0.140625 -1.066406 0.140625 -1.203125 C 0.140625 -1.335938 0.15625 -1.460938 0.1875 -1.578125 C 0.21875 -1.703125 0.257812 -1.816406 0.3125 -1.921875 C 0.375 -2.023438 0.453125 -2.113281 0.546875 -2.1875 C 0.640625 -2.269531 0.75 -2.332031 0.875 -2.375 C 1 -2.414062 1.140625 -2.4375 1.296875 -2.4375 C 1.453125 -2.4375 1.597656 -2.410156 1.734375 -2.359375 C 1.867188 -2.304688 1.988281 -2.226562 2.09375 -2.125 C 2.195312 -2.03125 2.28125 -1.90625 2.34375 -1.75 L 1.953125 -1.59375 C 1.921875 -1.695312 1.875 -1.78125 1.8125 -1.84375 C 1.75 -1.90625 1.671875 -1.953125 1.578125 -1.984375 C 1.492188 -2.015625 1.398438 -2.03125 1.296875 -2.03125 C 1.171875 -2.03125 1.0625 -2.007812 0.96875 -1.96875 C 0.875 -1.925781 0.796875 -1.867188 0.734375 -1.796875 C 0.679688 -1.722656 0.640625 -1.632812 0.609375 -1.53125 C 0.578125 -1.4375 0.5625 -1.332031 0.5625 -1.21875 C 0.5625 -1.101562 0.578125 -0.992188 0.609375 -0.890625 C 0.640625 -0.785156 0.679688 -0.691406 0.734375 -0.609375 C 0.796875 -0.535156 0.875 -0.476562 0.96875 -0.4375 C 1.0625 -0.394531 1.171875 -0.375 1.296875 -0.375 C 1.453125 -0.375 1.582031 -0.40625 1.6875 -0.46875 C 1.800781 -0.539062 1.890625 -0.660156 1.953125 -0.828125 L 2.359375 -0.65625 C 2.296875 -0.507812 2.210938 -0.382812 2.109375 -0.28125 C 2.003906 -0.175781 1.882812 -0.0976562 1.75 -0.046875 C 1.613281 0.00390625 1.460938 0.03125 1.296875 0.03125 Z M 1.296875 0.03125 "/></g></g></g><g fill="#f8cf40" fill-opacity="1"><g transform="translate(108.932971, 35.048436)"><g><path d="M 1.296875 0.03125 C 1.140625 0.03125 1 0.0078125 0.875 -0.03125 C 0.75 -0.0703125 0.640625 -0.128906 0.546875 -0.203125 C 0.453125 -0.285156 0.375 -0.378906 0.3125 -0.484375 C 0.257812 -0.585938 0.21875 -0.695312 0.1875 -0.8125 C 0.15625 -0.9375 0.140625 -1.066406 0.140625 -1.203125 C 0.140625 -1.335938 0.15625 -1.460938 0.1875 -1.578125 C 0.21875 -1.703125 0.257812 -1.816406 0.3125 -1.921875 C 0.375 -2.023438 0.453125 -2.113281 0.546875 -2.1875 C 0.640625 -2.269531 0.75 -2.332031 0.875 -2.375 C 1 -2.414062 1.140625 -2.4375 1.296875 -2.4375 C 1.453125 -2.4375 1.59375 -2.414062 1.71875 -2.375 C 1.84375 -2.332031 1.953125 -2.269531 2.046875 -2.1875 C 2.140625 -2.113281 2.21875 -2.023438 2.28125 -1.921875 C 2.34375 -1.816406 2.382812 -1.703125 2.40625 -1.578125 C 2.4375 -1.460938 2.453125 -1.335938 2.453125 -1.203125 C 2.453125 -1.066406 2.4375 -0.9375 2.40625 -0.8125 C 2.382812 -0.695312 2.34375 -0.585938 2.28125 -0.484375 C 2.21875 -0.378906 2.140625 -0.285156 2.046875 -0.203125 C 1.953125 -0.128906 1.84375 -0.0703125 1.71875 -0.03125 C 1.59375 0.0078125 1.453125 0.03125 1.296875 0.03125 Z M 1.296875 -0.34375 C 1.429688 -0.34375 1.539062 -0.363281 1.625 -0.40625 C 1.71875 -0.457031 1.789062 -0.519531 1.84375 -0.59375 C 1.894531 -0.675781 1.929688 -0.769531 1.953125 -0.875 C 1.984375 -0.976562 2 -1.085938 2 -1.203125 C 2 -1.316406 1.984375 -1.421875 1.953125 -1.515625 C 1.929688 -1.617188 1.894531 -1.710938 1.84375 -1.796875 C 1.789062 -1.878906 1.71875 -1.941406 1.625 -1.984375 C 1.539062 -2.035156 1.429688 -2.0625 1.296875 -2.0625 C 1.171875 -2.0625 1.0625 -2.035156 0.96875 -1.984375 C 0.882812 -1.941406 0.8125 -1.878906 0.75 -1.796875 C 0.695312 -1.710938 0.65625 -1.617188 0.625 -1.515625 C 0.601562 -1.421875 0.59375 -1.316406 0.59375 -1.203125 C 0.59375 -1.085938 0.601562 -0.976562 0.625 -0.875 C 0.65625 -0.769531 0.695312 -0.675781 0.75 -0.59375 C 0.8125 -0.519531 0.882812 -0.457031 0.96875 -0.40625 C 1.0625 -0.363281 1.171875 -0.34375 1.296875 -0.34375 Z M 1.296875 -0.34375 "/></g></g></g><g fill="#f8cf40" fill-opacity="1"><g transform="translate(112.848029, 35.048436)"><g><path d="M 0.3125 0 L 0.3125 -2.40625 L 0.890625 -2.40625 L 1.53125 -0.6875 L 2.171875 -2.40625 L 2.75 -2.40625 L 2.75 0 L 2.328125 0 L 2.328125 -1.796875 L 1.734375 -0.203125 L 1.3125 -0.203125 L 0.71875 -1.796875 L 0.71875 0 Z M 0.3125 0 "/></g></g></g><g fill="#f8cf40" fill-opacity="1"><g transform="translate(117.221438, 35.048436)"><g><path d="M 0.3125 0 L 0.3125 -2.40625 L 1.0625 -2.40625 C 1.1875 -2.40625 1.300781 -2.390625 1.40625 -2.359375 C 1.507812 -2.328125 1.597656 -2.28125 1.671875 -2.21875 C 1.742188 -2.15625 1.800781 -2.078125 1.84375 -1.984375 C 1.882812 -1.898438 1.90625 -1.800781 1.90625 -1.6875 C 1.90625 -1.582031 1.882812 -1.484375 1.84375 -1.390625 C 1.800781 -1.304688 1.742188 -1.234375 1.671875 -1.171875 C 1.597656 -1.117188 1.507812 -1.078125 1.40625 -1.046875 C 1.300781 -1.015625 1.1875 -1 1.0625 -1 L 0.734375 -1 L 0.734375 0 Z M 0.734375 -1.40625 L 1.0625 -1.40625 C 1.207031 -1.40625 1.3125 -1.425781 1.375 -1.46875 C 1.445312 -1.519531 1.484375 -1.59375 1.484375 -1.6875 C 1.484375 -1.789062 1.445312 -1.867188 1.375 -1.921875 C 1.3125 -1.972656 1.207031 -2 1.0625 -2 L 0.734375 -2 Z M 0.734375 -1.40625 "/></g></g></g><g fill="#f8cf40" fill-opacity="1"><g transform="translate(120.523665, 35.048436)"><g><path d="M 0.3125 0 L 0.3125 -2.40625 L 0.734375 -2.40625 L 0.734375 -0.40625 L 1.765625 -0.40625 L 1.765625 0 Z M 0.3125 0 "/></g></g></g><g fill="#f8cf40" fill-opacity="1"><g transform="translate(123.649342, 35.048436)"><g><path d="M 0.3125 0 L 0.3125 -2.40625 L 1.90625 -2.40625 L 1.90625 -2 L 0.734375 -2 L 0.734375 -1.40625 L 1.828125 -1.40625 L 1.828125 -1 L 0.734375 -1 L 0.734375 -0.40625 L 1.90625 -0.40625 L 1.90625 0 Z M 0.3125 0 "/></g></g></g><g fill="#f8cf40" fill-opacity="1"><g transform="translate(127.083981, 35.048436)"><g><path d="M 0.78125 0 L 0.78125 -2.015625 L 0.03125 -2.015625 L 0.03125 -2.40625 L 1.96875 -2.40625 L 1.96875 -2.015625 L 1.21875 -2.015625 L 1.21875 0 Z M 0.78125 0 "/></g></g></g><g fill="#f8cf40" fill-opacity="1"><g transform="translate(130.408277, 35.048436)"><g><path d="M 0.3125 0 L 0.3125 -2.40625 L 1.90625 -2.40625 L 1.90625 -2 L 0.734375 -2 L 0.734375 -1.40625 L 1.828125 -1.40625 L 1.828125 -1 L 0.734375 -1 L 0.734375 -0.40625 L 1.90625 -0.40625 L 1.90625 0 Z M 0.3125 0 "/></g></g></g><g fill="#f8cf40" fill-opacity="1"><g transform="translate(133.842916, 35.048436)"><g/></g></g><g fill="#f8cf40" fill-opacity="1"><g transform="translate(135.999267, 35.048436)"><g><path d="M 1.296875 0.03125 C 1.140625 0.03125 1 0.0078125 0.875 -0.03125 C 0.75 -0.0703125 0.640625 -0.128906 0.546875 -0.203125 C 0.453125 -0.285156 0.375 -0.378906 0.3125 -0.484375 C 0.257812 -0.585938 0.21875 -0.695312 0.1875 -0.8125 C 0.15625 -0.9375 0.140625 -1.066406 0.140625 -1.203125 C 0.140625 -1.335938 0.15625 -1.460938 0.1875 -1.578125 C 0.21875 -1.703125 0.257812 -1.816406 0.3125 -1.921875 C 0.375 -2.023438 0.453125 -2.113281 0.546875 -2.1875 C 0.640625 -2.269531 0.75 -2.332031 0.875 -2.375 C 1 -2.414062 1.140625 -2.4375 1.296875 -2.4375 C 1.453125 -2.4375 1.597656 -2.410156 1.734375 -2.359375 C 1.867188 -2.304688 1.988281 -2.226562 2.09375 -2.125 C 2.195312 -2.03125 2.28125 -1.90625 2.34375 -1.75 L 1.953125 -1.59375 C 1.921875 -1.695312 1.875 -1.78125 1.8125 -1.84375 C 1.75 -1.90625 1.671875 -1.953125 1.578125 -1.984375 C 1.492188 -2.015625 1.398438 -2.03125 1.296875 -2.03125 C 1.171875 -2.03125 1.0625 -2.007812 0.96875 -1.96875 C 0.875 -1.925781 0.796875 -1.867188 0.734375 -1.796875 C 0.679688 -1.722656 0.640625 -1.632812 0.609375 -1.53125 C 0.578125 -1.4375 0.5625 -1.332031 0.5625 -1.21875 C 0.5625 -1.101562 0.578125 -0.992188 0.609375 -0.890625 C 0.640625 -0.785156 0.679688 -0.691406 0.734375 -0.609375 C 0.796875 -0.535156 0.875 -0.476562 0.96875 -0.4375 C 1.0625 -0.394531 1.171875 -0.375 1.296875 -0.375 C 1.453125 -0.375 1.582031 -0.40625 1.6875 -0.46875 C 1.800781 -0.539062 1.890625 -0.660156 1.953125 -0.828125 L 2.359375 -0.65625 C 2.296875 -0.507812 2.210938 -0.382812 2.109375 -0.28125 C 2.003906 -0.175781 1.882812 -0.0976562 1.75 -0.046875 C 1.613281 0.00390625 1.460938 0.03125 1.296875 0.03125 Z M 1.296875 0.03125 "/></g></g></g><g fill="#f8cf40" fill-opacity="1"><g transform="translate(139.751358, 35.048436)"><g><path d="M 1.296875 0.03125 C 1.140625 0.03125 1 0.0078125 0.875 -0.03125 C 0.75 -0.0703125 0.640625 -0.128906 0.546875 -0.203125 C 0.453125 -0.285156 0.375 -0.378906 0.3125 -0.484375 C 0.257812 -0.585938 0.21875 -0.695312 0.1875 -0.8125 C 0.15625 -0.9375 0.140625 -1.066406 0.140625 -1.203125 C 0.140625 -1.335938 0.15625 -1.460938 0.1875 -1.578125 C 0.21875 -1.703125 0.257812 -1.816406 0.3125 -1.921875 C 0.375 -2.023438 0.453125 -2.113281 0.546875 -2.1875 C 0.640625 -2.269531 0.75 -2.332031 0.875 -2.375 C 1 -2.414062 1.140625 -2.4375 1.296875 -2.4375 C 1.453125 -2.4375 1.59375 -2.414062 1.71875 -2.375 C 1.84375 -2.332031 1.953125 -2.269531 2.046875 -2.1875 C 2.140625 -2.113281 2.21875 -2.023438 2.28125 -1.921875 C 2.34375 -1.816406 2.382812 -1.703125 2.40625 -1.578125 C 2.4375 -1.460938 2.453125 -1.335938 2.453125 -1.203125 C 2.453125 -1.066406 2.4375 -0.9375 2.40625 -0.8125 C 2.382812 -0.695312 2.34375 -0.585938 2.28125 -0.484375 C 2.21875 -0.378906 2.140625 -0.285156 2.046875 -0.203125 C 1.953125 -0.128906 1.84375 -0.0703125 1.71875 -0.03125 C 1.59375 0.0078125 1.453125 0.03125 1.296875 0.03125 Z M 1.296875 -0.34375 C 1.429688 -0.34375 1.539062 -0.363281 1.625 -0.40625 C 1.71875 -0.457031 1.789062 -0.519531 1.84375 -0.59375 C 1.894531 -0.675781 1.929688 -0.769531 1.953125 -0.875 C 1.984375 -0.976562 2 -1.085938 2 -1.203125 C 2 -1.316406 1.984375 -1.421875 1.953125 -1.515625 C 1.929688 -1.617188 1.894531 -1.710938 1.84375 -1.796875 C 1.789062 -1.878906 1.71875 -1.941406 1.625 -1.984375 C 1.539062 -2.035156 1.429688 -2.0625 1.296875 -2.0625 C 1.171875 -2.0625 1.0625 -2.035156 0.96875 -1.984375 C 0.882812 -1.941406 0.8125 -1.878906 0.75 -1.796875 C 0.695312 -1.710938 0.65625 -1.617188 0.625 -1.515625 C 0.601562 -1.421875 0.59375 -1.316406 0.59375 -1.203125 C 0.59375 -1.085938 0.601562 -0.976562 0.625 -0.875 C 0.65625 -0.769531 0.695312 -0.675781 0.75 -0.59375 C 0.8125 -0.519531 0.882812 -0.457031 0.96875 -0.40625 C 1.0625 -0.363281 1.171875 -0.34375 1.296875 -0.34375 Z M 1.296875 -0.34375 "/></g></g></g><g fill="#f8cf40" fill-opacity="1"><g transform="translate(143.666416, 35.048436)"><g><path d="M 0.3125 0 L 0.3125 -2.40625 L 0.734375 -2.40625 L 1.75 -0.71875 L 1.75 -2.40625 L 2.171875 -2.40625 L 2.171875 0 L 1.734375 0 L 0.71875 -1.6875 L 0.71875 0 Z M 0.3125 0 "/></g></g></g><g fill="#f8cf40" fill-opacity="1"><g transform="translate(147.455853, 35.048436)"><g><path d="M 1 0.03125 C 0.894531 0.03125 0.789062 0.015625 0.6875 -0.015625 C 0.582031 -0.046875 0.488281 -0.0859375 0.40625 -0.140625 C 0.320312 -0.203125 0.25 -0.273438 0.1875 -0.359375 C 0.132812 -0.453125 0.0976562 -0.554688 0.078125 -0.671875 L 0.5 -0.78125 C 0.507812 -0.6875 0.535156 -0.609375 0.578125 -0.546875 C 0.628906 -0.484375 0.691406 -0.4375 0.765625 -0.40625 C 0.835938 -0.375 0.914062 -0.359375 1 -0.359375 C 1.09375 -0.359375 1.164062 -0.367188 1.21875 -0.390625 C 1.28125 -0.421875 1.328125 -0.457031 1.359375 -0.5 C 1.390625 -0.550781 1.40625 -0.601562 1.40625 -0.65625 C 1.40625 -0.71875 1.382812 -0.769531 1.34375 -0.8125 C 1.3125 -0.863281 1.269531 -0.90625 1.21875 -0.9375 C 1.164062 -0.96875 1.101562 -0.992188 1.03125 -1.015625 C 0.957031 -1.046875 0.882812 -1.078125 0.8125 -1.109375 C 0.738281 -1.140625 0.664062 -1.171875 0.59375 -1.203125 C 0.53125 -1.242188 0.46875 -1.289062 0.40625 -1.34375 C 0.351562 -1.394531 0.3125 -1.453125 0.28125 -1.515625 C 0.25 -1.585938 0.234375 -1.675781 0.234375 -1.78125 C 0.234375 -1.882812 0.253906 -1.976562 0.296875 -2.0625 C 0.335938 -2.144531 0.390625 -2.210938 0.453125 -2.265625 C 0.523438 -2.328125 0.601562 -2.367188 0.6875 -2.390625 C 0.78125 -2.421875 0.878906 -2.4375 0.984375 -2.4375 C 1.128906 -2.4375 1.265625 -2.398438 1.390625 -2.328125 C 1.523438 -2.265625 1.632812 -2.160156 1.71875 -2.015625 L 1.359375 -1.796875 C 1.316406 -1.878906 1.257812 -1.941406 1.1875 -1.984375 C 1.125 -2.035156 1.050781 -2.0625 0.96875 -2.0625 C 0.914062 -2.0625 0.863281 -2.046875 0.8125 -2.015625 C 0.769531 -1.992188 0.734375 -1.960938 0.703125 -1.921875 C 0.679688 -1.890625 0.671875 -1.847656 0.671875 -1.796875 C 0.671875 -1.742188 0.6875 -1.695312 0.71875 -1.65625 C 0.75 -1.613281 0.789062 -1.578125 0.84375 -1.546875 C 0.90625 -1.515625 0.96875 -1.484375 1.03125 -1.453125 C 1.101562 -1.429688 1.175781 -1.40625 1.25 -1.375 C 1.320312 -1.34375 1.390625 -1.304688 1.453125 -1.265625 C 1.523438 -1.234375 1.585938 -1.191406 1.640625 -1.140625 C 1.703125 -1.085938 1.75 -1.023438 1.78125 -0.953125 C 1.8125 -0.878906 1.828125 -0.796875 1.828125 -0.703125 C 1.828125 -0.585938 1.804688 -0.484375 1.765625 -0.390625 C 1.722656 -0.304688 1.660156 -0.234375 1.578125 -0.171875 C 1.503906 -0.109375 1.414062 -0.0546875 1.3125 -0.015625 C 1.21875 0.015625 1.113281 0.03125 1 0.03125 Z M 1 0.03125 "/></g></g></g><g fill="#f8cf40" fill-opacity="1"><g transform="translate(150.707152, 35.048436)"><g><path d="M 0.78125 0 L 0.78125 -2.015625 L 0.03125 -2.015625 L 0.03125 -2.40625 L 1.96875 -2.40625 L 1.96875 -2.015625 L 1.21875 -2.015625 L 1.21875 0 Z M 0.78125 0 "/></g></g></g><g fill="#f8cf40" fill-opacity="1"><g transform="translate(154.031447, 35.048436)"><g><path d="M 0.3125 0 L 0.3125 -2.40625 L 1.09375 -2.40625 C 1.195312 -2.40625 1.300781 -2.390625 1.40625 -2.359375 C 1.507812 -2.328125 1.597656 -2.28125 1.671875 -2.21875 C 1.742188 -2.15625 1.800781 -2.078125 1.84375 -1.984375 C 1.894531 -1.898438 1.921875 -1.804688 1.921875 -1.703125 C 1.921875 -1.597656 1.898438 -1.503906 1.859375 -1.421875 C 1.816406 -1.335938 1.757812 -1.265625 1.6875 -1.203125 C 1.613281 -1.148438 1.535156 -1.101562 1.453125 -1.0625 L 2.125 0 L 1.625 0 L 1.03125 -1.03125 L 0.734375 -1.03125 L 0.734375 0 Z M 0.75 -1.375 L 1.125 -1.375 C 1.238281 -1.382812 1.328125 -1.414062 1.390625 -1.46875 C 1.453125 -1.53125 1.484375 -1.601562 1.484375 -1.6875 C 1.484375 -1.789062 1.445312 -1.867188 1.375 -1.921875 C 1.3125 -1.984375 1.21875 -2.015625 1.09375 -2.015625 L 0.75 -2.015625 Z M 0.75 -1.375 "/></g></g></g><g fill="#f8cf40" fill-opacity="1"><g transform="translate(157.505131, 35.048436)"><g><path d="M 1.171875 0.03125 C 0.953125 0.03125 0.773438 -0.00390625 0.640625 -0.078125 C 0.515625 -0.160156 0.414062 -0.273438 0.34375 -0.421875 C 0.28125 -0.566406 0.25 -0.738281 0.25 -0.9375 L 0.25 -2.40625 L 0.6875 -2.40625 L 0.6875 -0.984375 C 0.6875 -0.859375 0.695312 -0.75 0.71875 -0.65625 C 0.75 -0.570312 0.800781 -0.503906 0.875 -0.453125 C 0.945312 -0.398438 1.046875 -0.375 1.171875 -0.375 C 1.304688 -0.375 1.40625 -0.398438 1.46875 -0.453125 C 1.539062 -0.503906 1.585938 -0.570312 1.609375 -0.65625 C 1.640625 -0.75 1.65625 -0.859375 1.65625 -0.984375 L 1.65625 -2.40625 L 2.09375 -2.40625 L 2.09375 -0.953125 C 2.09375 -0.753906 2.0625 -0.578125 2 -0.421875 C 1.9375 -0.273438 1.835938 -0.160156 1.703125 -0.078125 C 1.566406 -0.00390625 1.390625 0.03125 1.171875 0.03125 Z M 1.171875 0.03125 "/></g></g></g><g fill="#f8cf40" fill-opacity="1"><g transform="translate(161.168945, 35.048436)"><g><path d="M 1.296875 0.03125 C 1.140625 0.03125 1 0.0078125 0.875 -0.03125 C 0.75 -0.0703125 0.640625 -0.128906 0.546875 -0.203125 C 0.453125 -0.285156 0.375 -0.378906 0.3125 -0.484375 C 0.257812 -0.585938 0.21875 -0.695312 0.1875 -0.8125 C 0.15625 -0.9375 0.140625 -1.066406 0.140625 -1.203125 C 0.140625 -1.335938 0.15625 -1.460938 0.1875 -1.578125 C 0.21875 -1.703125 0.257812 -1.816406 0.3125 -1.921875 C 0.375 -2.023438 0.453125 -2.113281 0.546875 -2.1875 C 0.640625 -2.269531 0.75 -2.332031 0.875 -2.375 C 1 -2.414062 1.140625 -2.4375 1.296875 -2.4375 C 1.453125 -2.4375 1.597656 -2.410156 1.734375 -2.359375 C 1.867188 -2.304688 1.988281 -2.226562 2.09375 -2.125 C 2.195312 -2.03125 2.28125 -1.90625 2.34375 -1.75 L 1.953125 -1.59375 C 1.921875 -1.695312 1.875 -1.78125 1.8125 -1.84375 C 1.75 -1.90625 1.671875 -1.953125 1.578125 -1.984375 C 1.492188 -2.015625 1.398438 -2.03125 1.296875 -2.03125 C 1.171875 -2.03125 1.0625 -2.007812 0.96875 -1.96875 C 0.875 -1.925781 0.796875 -1.867188 0.734375 -1.796875 C 0.679688 -1.722656 0.640625 -1.632812 0.609375 -1.53125 C 0.578125 -1.4375 0.5625 -1.332031 0.5625 -1.21875 C 0.5625 -1.101562 0.578125 -0.992188 0.609375 -0.890625 C 0.640625 -0.785156 0.679688 -0.691406 0.734375 -0.609375 C 0.796875 -0.535156 0.875 -0.476562 0.96875 -0.4375 C 1.0625 -0.394531 1.171875 -0.375 1.296875 -0.375 C 1.453125 -0.375 1.582031 -0.40625 1.6875 -0.46875 C 1.800781 -0.539062 1.890625 -0.660156 1.953125 -0.828125 L 2.359375 -0.65625 C 2.296875 -0.507812 2.210938 -0.382812 2.109375 -0.28125 C 2.003906 -0.175781 1.882812 -0.0976562 1.75 -0.046875 C 1.613281 0.00390625 1.460938 0.03125 1.296875 0.03125 Z M 1.296875 0.03125 "/></g></g></g><g fill="#f8cf40" fill-opacity="1"><g transform="translate(164.921035, 35.048436)"><g><path d="M 0.78125 0 L 0.78125 -2.015625 L 0.03125 -2.015625 L 0.03125 -2.40625 L 1.96875 -2.40625 L 1.96875 -2.015625 L 1.21875 -2.015625 L 1.21875 0 Z M 0.78125 0 "/></g></g></g><g fill="#f8cf40" fill-opacity="1"><g transform="translate(168.24533, 35.048436)"><g><path d="M 0.3125 0 L 0.3125 -2.40625 L 0.734375 -2.40625 L 0.734375 0 Z M 0.3125 0 "/></g></g></g><g fill="#f8cf40" fill-opacity="1"><g transform="translate(170.615578, 35.048436)"><g><path d="M 1.296875 0.03125 C 1.140625 0.03125 1 0.0078125 0.875 -0.03125 C 0.75 -0.0703125 0.640625 -0.128906 0.546875 -0.203125 C 0.453125 -0.285156 0.375 -0.378906 0.3125 -0.484375 C 0.257812 -0.585938 0.21875 -0.695312 0.1875 -0.8125 C 0.15625 -0.9375 0.140625 -1.066406 0.140625 -1.203125 C 0.140625 -1.335938 0.15625 -1.460938 0.1875 -1.578125 C 0.21875 -1.703125 0.257812 -1.816406 0.3125 -1.921875 C 0.375 -2.023438 0.453125 -2.113281 0.546875 -2.1875 C 0.640625 -2.269531 0.75 -2.332031 0.875 -2.375 C 1 -2.414062 1.140625 -2.4375 1.296875 -2.4375 C 1.453125 -2.4375 1.59375 -2.414062 1.71875 -2.375 C 1.84375 -2.332031 1.953125 -2.269531 2.046875 -2.1875 C 2.140625 -2.113281 2.21875 -2.023438 2.28125 -1.921875 C 2.34375 -1.816406 2.382812 -1.703125 2.40625 -1.578125 C 2.4375 -1.460938 2.453125 -1.335938 2.453125 -1.203125 C 2.453125 -1.066406 2.4375 -0.9375 2.40625 -0.8125 C 2.382812 -0.695312 2.34375 -0.585938 2.28125 -0.484375 C 2.21875 -0.378906 2.140625 -0.285156 2.046875 -0.203125 C 1.953125 -0.128906 1.84375 -0.0703125 1.71875 -0.03125 C 1.59375 0.0078125 1.453125 0.03125 1.296875 0.03125 Z M 1.296875 -0.34375 C 1.429688 -0.34375 1.539062 -0.363281 1.625 -0.40625 C 1.71875 -0.457031 1.789062 -0.519531 1.84375 -0.59375 C 1.894531 -0.675781 1.929688 -0.769531 1.953125 -0.875 C 1.984375 -0.976562 2 -1.085938 2 -1.203125 C 2 -1.316406 1.984375 -1.421875 1.953125 -1.515625 C 1.929688 -1.617188 1.894531 -1.710938 1.84375 -1.796875 C 1.789062 -1.878906 1.71875 -1.941406 1.625 -1.984375 C 1.539062 -2.035156 1.429688 -2.0625 1.296875 -2.0625 C 1.171875 -2.0625 1.0625 -2.035156 0.96875 -1.984375 C 0.882812 -1.941406 0.8125 -1.878906 0.75 -1.796875 C 0.695312 -1.710938 0.65625 -1.617188 0.625 -1.515625 C 0.601562 -1.421875 0.59375 -1.316406 0.59375 -1.203125 C 0.59375 -1.085938 0.601562 -0.976562 0.625 -0.875 C 0.65625 -0.769531 0.695312 -0.675781 0.75 -0.59375 C 0.8125 -0.519531 0.882812 -0.457031 0.96875 -0.40625 C 1.0625 -0.363281 1.171875 -0.34375 1.296875 -0.34375 Z M 1.296875 -0.34375 "/></g></g></g><g fill="#f8cf40" fill-opacity="1"><g transform="translate(174.530641, 35.048436)"><g><path d="M 0.3125 0 L 0.3125 -2.40625 L 0.734375 -2.40625 L 1.75 -0.71875 L 1.75 -2.40625 L 2.171875 -2.40625 L 2.171875 0 L 1.734375 0 L 0.71875 -1.6875 L 0.71875 0 Z M 0.3125 0 "/></g></g></g><g fill="#f8cf40" fill-opacity="1"><g transform="translate(178.320077, 35.048436)"><g/></g></g><g fill="#f8cf40" fill-opacity="1"><g transform="translate(180.476428, 35.048436)"><g><path d="M 0.3125 0 L 0.3125 -2.40625 L 1.09375 -2.40625 C 1.195312 -2.40625 1.300781 -2.390625 1.40625 -2.359375 C 1.507812 -2.328125 1.597656 -2.28125 1.671875 -2.21875 C 1.742188 -2.15625 1.800781 -2.078125 1.84375 -1.984375 C 1.894531 -1.898438 1.921875 -1.804688 1.921875 -1.703125 C 1.921875 -1.597656 1.898438 -1.503906 1.859375 -1.421875 C 1.816406 -1.335938 1.757812 -1.265625 1.6875 -1.203125 C 1.613281 -1.148438 1.535156 -1.101562 1.453125 -1.0625 L 2.125 0 L 1.625 0 L 1.03125 -1.03125 L 0.734375 -1.03125 L 0.734375 0 Z M 0.75 -1.375 L 1.125 -1.375 C 1.238281 -1.382812 1.328125 -1.414062 1.390625 -1.46875 C 1.453125 -1.53125 1.484375 -1.601562 1.484375 -1.6875 C 1.484375 -1.789062 1.445312 -1.867188 1.375 -1.921875 C 1.3125 -1.984375 1.21875 -2.015625 1.09375 -2.015625 L 0.75 -2.015625 Z M 0.75 -1.375 "/></g></g></g><g fill="#f8cf40" fill-opacity="1"><g transform="translate(183.950112, 35.048436)"><g><path d="M 0.3125 0 L 0.3125 -2.40625 L 1.90625 -2.40625 L 1.90625 -2 L 0.734375 -2 L 0.734375 -1.40625 L 1.828125 -1.40625 L 1.828125 -1 L 0.734375 -1 L 0.734375 -0.40625 L 1.90625 -0.40625 L 1.90625 0 Z M 0.3125 0 "/></g></g></g><g fill="#f8cf40" fill-opacity="1"><g transform="translate(187.384751, 35.048436)"><g><path d="M 0.984375 0 L 0.015625 -2.40625 L 0.5 -2.40625 L 1.140625 -0.703125 L 1.796875 -2.40625 L 2.265625 -2.40625 L 1.3125 0 Z M 0.984375 0 "/></g></g></g><g fill="#f8cf40" fill-opacity="1"><g transform="translate(190.985754, 35.048436)"><g><path d="M 0.3125 0 L 0.3125 -2.40625 L 1.90625 -2.40625 L 1.90625 -2 L 0.734375 -2 L 0.734375 -1.40625 L 1.828125 -1.40625 L 1.828125 -1 L 0.734375 -1 L 0.734375 -0.40625 L 1.90625 -0.40625 L 1.90625 0 Z M 0.3125 0 "/></g></g></g><g fill="#f8cf40" fill-opacity="1"><g transform="translate(194.420393, 35.048436)"><g><path d="M 0.3125 0 L 0.3125 -2.40625 L 0.734375 -2.40625 L 0.734375 -0.40625 L 1.765625 -0.40625 L 1.765625 0 Z M 0.3125 0 "/></g></g></g><g fill="#f8cf40" fill-opacity="1"><g transform="translate(197.54607, 35.048436)"><g><path d="M 0.015625 0 L 0.984375 -2.40625 L 1.3125 -2.40625 L 2.265625 0 L 1.796875 0 L 1.609375 -0.515625 L 0.671875 -0.515625 L 0.484375 0 Z M 0.828125 -0.890625 L 1.46875 -0.890625 L 1.140625 -1.765625 Z M 0.828125 -0.890625 "/></g></g></g><g fill="#f8cf40" fill-opacity="1"><g transform="translate(201.147074, 35.048436)"><g><path d="M 0.78125 0 L 0.78125 -2.015625 L 0.03125 -2.015625 L 0.03125 -2.40625 L 1.96875 -2.40625 L 1.96875 -2.015625 L 1.21875 -2.015625 L 1.21875 0 Z M 0.78125 0 "/></g></g></g><g fill="#f8cf40" fill-opacity="1"><g transform="translate(204.471369, 35.048436)"><g><path d="M 0.3125 0 L 0.3125 -2.40625 L 0.734375 -2.40625 L 0.734375 0 Z M 0.3125 0 "/></g></g></g><g fill="#f8cf40" fill-opacity="1"><g transform="translate(206.841617, 35.048436)"><g><path d="M 1.296875 0.03125 C 1.140625 0.03125 1 0.0078125 0.875 -0.03125 C 0.75 -0.0703125 0.640625 -0.128906 0.546875 -0.203125 C 0.453125 -0.285156 0.375 -0.378906 0.3125 -0.484375 C 0.257812 -0.585938 0.21875 -0.695312 0.1875 -0.8125 C 0.15625 -0.9375 0.140625 -1.066406 0.140625 -1.203125 C 0.140625 -1.335938 0.15625 -1.460938 0.1875 -1.578125 C 0.21875 -1.703125 0.257812 -1.816406 0.3125 -1.921875 C 0.375 -2.023438 0.453125 -2.113281 0.546875 -2.1875 C 0.640625 -2.269531 0.75 -2.332031 0.875 -2.375 C 1 -2.414062 1.140625 -2.4375 1.296875 -2.4375 C 1.453125 -2.4375 1.59375 -2.414062 1.71875 -2.375 C 1.84375 -2.332031 1.953125 -2.269531 2.046875 -2.1875 C 2.140625 -2.113281 2.21875 -2.023438 2.28125 -1.921875 C 2.34375 -1.816406 2.382812 -1.703125 2.40625 -1.578125 C 2.4375 -1.460938 2.453125 -1.335938 2.453125 -1.203125 C 2.453125 -1.066406 2.4375 -0.9375 2.40625 -0.8125 C 2.382812 -0.695312 2.34375 -0.585938 2.28125 -0.484375 C 2.21875 -0.378906 2.140625 -0.285156 2.046875 -0.203125 C 1.953125 -0.128906 1.84375 -0.0703125 1.71875 -0.03125 C 1.59375 0.0078125 1.453125 0.03125 1.296875 0.03125 Z M 1.296875 -0.34375 C 1.429688 -0.34375 1.539062 -0.363281 1.625 -0.40625 C 1.71875 -0.457031 1.789062 -0.519531 1.84375 -0.59375 C 1.894531 -0.675781 1.929688 -0.769531 1.953125 -0.875 C 1.984375 -0.976562 2 -1.085938 2 -1.203125 C 2 -1.316406 1.984375 -1.421875 1.953125 -1.515625 C 1.929688 -1.617188 1.894531 -1.710938 1.84375 -1.796875 C 1.789062 -1.878906 1.71875 -1.941406 1.625 -1.984375 C 1.539062 -2.035156 1.429688 -2.0625 1.296875 -2.0625 C 1.171875 -2.0625 1.0625 -2.035156 0.96875 -1.984375 C 0.882812 -1.941406 0.8125 -1.878906 0.75 -1.796875 C 0.695312 -1.710938 0.65625 -1.617188 0.625 -1.515625 C 0.601562 -1.421875 0.59375 -1.316406 0.59375 -1.203125 C 0.59375 -1.085938 0.601562 -0.976562 0.625 -0.875 C 0.65625 -0.769531 0.695312 -0.675781 0.75 -0.59375 C 0.8125 -0.519531 0.882812 -0.457031 0.96875 -0.40625 C 1.0625 -0.363281 1.171875 -0.34375 1.296875 -0.34375 Z M 1.296875 -0.34375 "/></g></g></g><g fill="#f8cf40" fill-opacity="1"><g transform="translate(210.756675, 35.048436)"><g><path d="M 0.3125 0 L 0.3125 -2.40625 L 0.734375 -2.40625 L 1.75 -0.71875 L 1.75 -2.40625 L 2.171875 -2.40625 L 2.171875 0 L 1.734375 0 L 0.71875 -1.6875 L 0.71875 0 Z M 0.3125 0 "/></g></g></g><g fill="#f8cf40" fill-opacity="1"><g transform="translate(35.2373, 44.341254)"><g><path d="M 1.75 0.046875 C 1.5625 0.046875 1.378906 0.0195312 1.203125 -0.03125 C 1.023438 -0.0820312 0.859375 -0.15625 0.703125 -0.25 C 0.554688 -0.351562 0.429688 -0.484375 0.328125 -0.640625 C 0.234375 -0.796875 0.171875 -0.976562 0.140625 -1.1875 L 0.890625 -1.375 C 0.898438 -1.195312 0.945312 -1.050781 1.03125 -0.9375 C 1.113281 -0.832031 1.21875 -0.753906 1.34375 -0.703125 C 1.46875 -0.648438 1.601562 -0.625 1.75 -0.625 C 1.90625 -0.625 2.03125 -0.644531 2.125 -0.6875 C 2.226562 -0.738281 2.304688 -0.804688 2.359375 -0.890625 C 2.421875 -0.972656 2.453125 -1.0625 2.453125 -1.15625 C 2.453125 -1.269531 2.421875 -1.363281 2.359375 -1.4375 C 2.304688 -1.507812 2.226562 -1.570312 2.125 -1.625 C 2.03125 -1.6875 1.921875 -1.742188 1.796875 -1.796875 C 1.679688 -1.847656 1.554688 -1.894531 1.421875 -1.9375 C 1.296875 -1.988281 1.171875 -2.046875 1.046875 -2.109375 C 0.929688 -2.179688 0.828125 -2.257812 0.734375 -2.34375 C 0.640625 -2.4375 0.5625 -2.539062 0.5 -2.65625 C 0.4375 -2.78125 0.40625 -2.929688 0.40625 -3.109375 C 0.40625 -3.296875 0.441406 -3.457031 0.515625 -3.59375 C 0.585938 -3.738281 0.679688 -3.859375 0.796875 -3.953125 C 0.921875 -4.054688 1.0625 -4.132812 1.21875 -4.1875 C 1.382812 -4.238281 1.550781 -4.265625 1.71875 -4.265625 C 1.976562 -4.265625 2.21875 -4.203125 2.4375 -4.078125 C 2.664062 -3.960938 2.851562 -3.78125 3 -3.53125 L 2.375 -3.140625 C 2.300781 -3.285156 2.203125 -3.394531 2.078125 -3.46875 C 1.960938 -3.550781 1.835938 -3.59375 1.703125 -3.59375 C 1.597656 -3.59375 1.503906 -3.570312 1.421875 -3.53125 C 1.347656 -3.5 1.285156 -3.445312 1.234375 -3.375 C 1.191406 -3.3125 1.171875 -3.234375 1.171875 -3.140625 C 1.171875 -3.046875 1.195312 -2.960938 1.25 -2.890625 C 1.3125 -2.816406 1.390625 -2.753906 1.484375 -2.703125 C 1.578125 -2.648438 1.6875 -2.597656 1.8125 -2.546875 C 1.9375 -2.503906 2.0625 -2.457031 2.1875 -2.40625 C 2.3125 -2.351562 2.4375 -2.296875 2.5625 -2.234375 C 2.6875 -2.171875 2.796875 -2.09375 2.890625 -2 C 2.984375 -1.914062 3.054688 -1.804688 3.109375 -1.671875 C 3.171875 -1.546875 3.203125 -1.394531 3.203125 -1.21875 C 3.203125 -1.019531 3.160156 -0.84375 3.078125 -0.6875 C 3.003906 -0.53125 2.898438 -0.394531 2.765625 -0.28125 C 2.640625 -0.175781 2.488281 -0.09375 2.3125 -0.03125 C 2.132812 0.0195312 1.945312 0.046875 1.75 0.046875 Z M 1.75 0.046875 "/></g></g></g><g fill="#f8cf40" fill-opacity="1"><g transform="translate(40.929096, 44.341254)"><g><path d="M 0.546875 0 L 0.546875 -4.203125 L 1.296875 -4.203125 L 1.296875 0 Z M 0.546875 0 "/></g></g></g><g fill="#f8cf40" fill-opacity="1"><g transform="translate(45.079055, 44.341254)"><g><path d="M 0.546875 0 L 0.546875 -4.203125 L 1.296875 -4.203125 L 3.0625 -1.265625 L 3.0625 -4.203125 L 3.78125 -4.203125 L 3.78125 0 L 3.03125 0 L 1.265625 -2.953125 L 1.265625 0 Z M 0.546875 0 "/></g></g></g><g fill="#f8cf40" fill-opacity="1"><g transform="translate(51.712591, 44.341254)"><g><path d="M 2.28125 0.0625 C 2 0.0625 1.75 0.0234375 1.53125 -0.046875 C 1.3125 -0.128906 1.117188 -0.238281 0.953125 -0.375 C 0.796875 -0.507812 0.664062 -0.664062 0.5625 -0.84375 C 0.457031 -1.019531 0.378906 -1.21875 0.328125 -1.4375 C 0.273438 -1.65625 0.25 -1.878906 0.25 -2.109375 C 0.25 -2.335938 0.273438 -2.554688 0.328125 -2.765625 C 0.378906 -2.984375 0.457031 -3.179688 0.5625 -3.359375 C 0.664062 -3.546875 0.796875 -3.707031 0.953125 -3.84375 C 1.117188 -3.976562 1.3125 -4.082031 1.53125 -4.15625 C 1.75 -4.226562 1.992188 -4.265625 2.265625 -4.265625 C 2.546875 -4.265625 2.800781 -4.21875 3.03125 -4.125 C 3.269531 -4.039062 3.476562 -3.90625 3.65625 -3.71875 C 3.84375 -3.539062 3.992188 -3.320312 4.109375 -3.0625 L 3.40625 -2.78125 C 3.351562 -2.96875 3.269531 -3.113281 3.15625 -3.21875 C 3.050781 -3.332031 2.921875 -3.414062 2.765625 -3.46875 C 2.617188 -3.519531 2.453125 -3.546875 2.265625 -3.546875 C 2.046875 -3.546875 1.851562 -3.507812 1.6875 -3.4375 C 1.53125 -3.363281 1.398438 -3.257812 1.296875 -3.125 C 1.191406 -3 1.113281 -2.847656 1.0625 -2.671875 C 1.019531 -2.503906 1 -2.328125 1 -2.140625 C 1 -1.929688 1.019531 -1.734375 1.0625 -1.546875 C 1.113281 -1.367188 1.191406 -1.210938 1.296875 -1.078125 C 1.398438 -0.941406 1.53125 -0.835938 1.6875 -0.765625 C 1.851562 -0.691406 2.050781 -0.65625 2.28125 -0.65625 C 2.550781 -0.65625 2.78125 -0.710938 2.96875 -0.828125 C 3.15625 -0.953125 3.304688 -1.15625 3.421875 -1.4375 L 4.125 -1.15625 C 4.007812 -0.894531 3.859375 -0.671875 3.671875 -0.484375 C 3.492188 -0.304688 3.285156 -0.171875 3.046875 -0.078125 C 2.816406 0.015625 2.5625 0.0625 2.28125 0.0625 Z M 2.28125 0.0625 "/></g></g></g><g fill="#f8cf40" fill-opacity="1"><g transform="translate(58.280768, 44.341254)"><g><path d="M 0.546875 0 L 0.546875 -4.203125 L 3.34375 -4.203125 L 3.34375 -3.515625 L 1.296875 -3.515625 L 1.296875 -2.453125 L 3.203125 -2.453125 L 3.203125 -1.75 L 1.296875 -1.75 L 1.296875 -0.71875 L 3.34375 -0.71875 L 3.34375 0 Z M 0.546875 0 "/></g></g></g><g fill="#f8cf40" fill-opacity="1"><g transform="translate(64.293408, 44.341254)"><g/></g></g><g fill="#f8cf40" fill-opacity="1"><g transform="translate(68.06905, 44.341254)"><g><path d="M 0.140625 0 L 0.140625 -0.59375 C 0.140625 -0.601562 0.171875 -0.625 0.234375 -0.65625 C 0.304688 -0.695312 0.394531 -0.753906 0.5 -0.828125 C 0.613281 -0.898438 0.738281 -0.984375 0.875 -1.078125 C 1.007812 -1.179688 1.144531 -1.289062 1.28125 -1.40625 C 1.425781 -1.519531 1.5625 -1.640625 1.6875 -1.765625 C 1.8125 -1.890625 1.925781 -2.015625 2.03125 -2.140625 C 2.132812 -2.273438 2.210938 -2.410156 2.265625 -2.546875 C 2.328125 -2.691406 2.359375 -2.832031 2.359375 -2.96875 C 2.359375 -3.082031 2.335938 -3.1875 2.296875 -3.28125 C 2.253906 -3.375 2.191406 -3.445312 2.109375 -3.5 C 2.023438 -3.550781 1.910156 -3.578125 1.765625 -3.578125 C 1.628906 -3.578125 1.515625 -3.550781 1.421875 -3.5 C 1.328125 -3.445312 1.253906 -3.375 1.203125 -3.28125 C 1.148438 -3.195312 1.109375 -3.097656 1.078125 -2.984375 C 1.054688 -2.878906 1.039062 -2.773438 1.03125 -2.671875 L 0.296875 -2.71875 C 0.296875 -2.914062 0.328125 -3.101562 0.390625 -3.28125 C 0.460938 -3.46875 0.5625 -3.632812 0.6875 -3.78125 C 0.8125 -3.925781 0.960938 -4.039062 1.140625 -4.125 C 1.328125 -4.21875 1.535156 -4.265625 1.765625 -4.265625 C 1.960938 -4.265625 2.140625 -4.234375 2.296875 -4.171875 C 2.460938 -4.109375 2.609375 -4.019531 2.734375 -3.90625 C 2.859375 -3.789062 2.953125 -3.65625 3.015625 -3.5 C 3.085938 -3.351562 3.125 -3.191406 3.125 -3.015625 C 3.125 -2.847656 3.09375 -2.6875 3.03125 -2.53125 C 2.976562 -2.375 2.90625 -2.222656 2.8125 -2.078125 C 2.71875 -1.929688 2.613281 -1.789062 2.5 -1.65625 C 2.382812 -1.53125 2.269531 -1.410156 2.15625 -1.296875 C 2.007812 -1.160156 1.867188 -1.039062 1.734375 -0.9375 C 1.597656 -0.832031 1.476562 -0.75 1.375 -0.6875 L 3.328125 -0.6875 L 3.328125 0 Z M 0.140625 0 "/></g></g></g><g fill="#f8cf40" fill-opacity="1"><g transform="translate(73.912357, 44.341254)"><g><path d="M 1.796875 0.0625 C 1.578125 0.0625 1.382812 0.03125 1.21875 -0.03125 C 1.050781 -0.101562 0.898438 -0.191406 0.765625 -0.296875 C 0.640625 -0.410156 0.535156 -0.539062 0.453125 -0.6875 C 0.367188 -0.832031 0.296875 -0.984375 0.234375 -1.140625 C 0.179688 -1.304688 0.144531 -1.46875 0.125 -1.625 C 0.101562 -1.789062 0.09375 -1.953125 0.09375 -2.109375 C 0.09375 -2.253906 0.101562 -2.410156 0.125 -2.578125 C 0.144531 -2.742188 0.179688 -2.90625 0.234375 -3.0625 C 0.285156 -3.226562 0.351562 -3.378906 0.4375 -3.515625 C 0.53125 -3.660156 0.632812 -3.789062 0.75 -3.90625 C 0.875 -4.019531 1.019531 -4.109375 1.1875 -4.171875 C 1.351562 -4.234375 1.539062 -4.265625 1.75 -4.265625 C 1.976562 -4.265625 2.179688 -4.222656 2.359375 -4.140625 C 2.546875 -4.066406 2.707031 -3.957031 2.84375 -3.8125 C 2.988281 -3.664062 3.101562 -3.5 3.1875 -3.3125 C 3.28125 -3.125 3.347656 -2.925781 3.390625 -2.71875 C 3.429688 -2.507812 3.453125 -2.300781 3.453125 -2.09375 C 3.453125 -1.882812 3.429688 -1.675781 3.390625 -1.46875 C 3.347656 -1.257812 3.28125 -1.0625 3.1875 -0.875 C 3.101562 -0.695312 2.992188 -0.535156 2.859375 -0.390625 C 2.734375 -0.253906 2.582031 -0.144531 2.40625 -0.0625 C 2.226562 0.0195312 2.023438 0.0625 1.796875 0.0625 Z M 1.78125 -0.65625 C 1.90625 -0.65625 2.015625 -0.679688 2.109375 -0.734375 C 2.210938 -0.796875 2.296875 -0.875 2.359375 -0.96875 C 2.429688 -1.070312 2.488281 -1.1875 2.53125 -1.3125 C 2.582031 -1.4375 2.617188 -1.566406 2.640625 -1.703125 C 2.660156 -1.835938 2.671875 -1.972656 2.671875 -2.109375 C 2.671875 -2.242188 2.660156 -2.378906 2.640625 -2.515625 C 2.617188 -2.648438 2.582031 -2.78125 2.53125 -2.90625 C 2.488281 -3.03125 2.429688 -3.140625 2.359375 -3.234375 C 2.285156 -3.328125 2.195312 -3.398438 2.09375 -3.453125 C 2 -3.515625 1.882812 -3.546875 1.75 -3.546875 C 1.625 -3.546875 1.507812 -3.515625 1.40625 -3.453125 C 1.300781 -3.398438 1.210938 -3.328125 1.140625 -3.234375 C 1.066406 -3.140625 1.007812 -3.03125 0.96875 -2.90625 C 0.925781 -2.78125 0.890625 -2.648438 0.859375 -2.515625 C 0.835938 -2.378906 0.828125 -2.242188 0.828125 -2.109375 C 0.828125 -1.972656 0.835938 -1.832031 0.859375 -1.6875 C 0.890625 -1.550781 0.925781 -1.421875 0.96875 -1.296875 C 1.007812 -1.171875 1.066406 -1.0625 1.140625 -0.96875 C 1.222656 -0.875 1.316406 -0.796875 1.421875 -0.734375 C 1.523438 -0.679688 1.644531 -0.65625 1.78125 -0.65625 Z M 1.78125 -0.65625 "/></g></g></g><g fill="#f8cf40" fill-opacity="1"><g transform="translate(79.755664, 44.341254)"><g><path d="M 1.796875 0.0625 C 1.578125 0.0625 1.382812 0.03125 1.21875 -0.03125 C 1.050781 -0.101562 0.898438 -0.191406 0.765625 -0.296875 C 0.640625 -0.410156 0.535156 -0.539062 0.453125 -0.6875 C 0.367188 -0.832031 0.296875 -0.984375 0.234375 -1.140625 C 0.179688 -1.304688 0.144531 -1.46875 0.125 -1.625 C 0.101562 -1.789062 0.09375 -1.953125 0.09375 -2.109375 C 0.09375 -2.253906 0.101562 -2.410156 0.125 -2.578125 C 0.144531 -2.742188 0.179688 -2.90625 0.234375 -3.0625 C 0.285156 -3.226562 0.351562 -3.378906 0.4375 -3.515625 C 0.53125 -3.660156 0.632812 -3.789062 0.75 -3.90625 C 0.875 -4.019531 1.019531 -4.109375 1.1875 -4.171875 C 1.351562 -4.234375 1.539062 -4.265625 1.75 -4.265625 C 1.976562 -4.265625 2.179688 -4.222656 2.359375 -4.140625 C 2.546875 -4.066406 2.707031 -3.957031 2.84375 -3.8125 C 2.988281 -3.664062 3.101562 -3.5 3.1875 -3.3125 C 3.28125 -3.125 3.347656 -2.925781 3.390625 -2.71875 C 3.429688 -2.507812 3.453125 -2.300781 3.453125 -2.09375 C 3.453125 -1.882812 3.429688 -1.675781 3.390625 -1.46875 C 3.347656 -1.257812 3.28125 -1.0625 3.1875 -0.875 C 3.101562 -0.695312 2.992188 -0.535156 2.859375 -0.390625 C 2.734375 -0.253906 2.582031 -0.144531 2.40625 -0.0625 C 2.226562 0.0195312 2.023438 0.0625 1.796875 0.0625 Z M 1.78125 -0.65625 C 1.90625 -0.65625 2.015625 -0.679688 2.109375 -0.734375 C 2.210938 -0.796875 2.296875 -0.875 2.359375 -0.96875 C 2.429688 -1.070312 2.488281 -1.1875 2.53125 -1.3125 C 2.582031 -1.4375 2.617188 -1.566406 2.640625 -1.703125 C 2.660156 -1.835938 2.671875 -1.972656 2.671875 -2.109375 C 2.671875 -2.242188 2.660156 -2.378906 2.640625 -2.515625 C 2.617188 -2.648438 2.582031 -2.78125 2.53125 -2.90625 C 2.488281 -3.03125 2.429688 -3.140625 2.359375 -3.234375 C 2.285156 -3.328125 2.195312 -3.398438 2.09375 -3.453125 C 2 -3.515625 1.882812 -3.546875 1.75 -3.546875 C 1.625 -3.546875 1.507812 -3.515625 1.40625 -3.453125 C 1.300781 -3.398438 1.210938 -3.328125 1.140625 -3.234375 C 1.066406 -3.140625 1.007812 -3.03125 0.96875 -2.90625 C 0.925781 -2.78125 0.890625 -2.648438 0.859375 -2.515625 C 0.835938 -2.378906 0.828125 -2.242188 0.828125 -2.109375 C 0.828125 -1.972656 0.835938 -1.832031 0.859375 -1.6875 C 0.890625 -1.550781 0.925781 -1.421875 0.96875 -1.296875 C 1.007812 -1.171875 1.066406 -1.0625 1.140625 -0.96875 C 1.222656 -0.875 1.316406 -0.796875 1.421875 -0.734375 C 1.523438 -0.679688 1.644531 -0.65625 1.78125 -0.65625 Z M 1.78125 -0.65625 "/></g></g></g><g fill="#f8cf40" fill-opacity="1"><g transform="translate(85.598972, 44.341254)"><g><path d="M 1.96875 0 L 1.96875 -0.984375 L 0.03125 -0.984375 L 0.03125 -1.421875 L 2.078125 -4.203125 L 2.703125 -4.203125 L 2.703125 -1.671875 L 3.390625 -1.671875 L 3.390625 -0.984375 L 2.703125 -0.984375 L 2.703125 0 Z M 1 -1.671875 L 1.96875 -1.671875 L 1.96875 -3.046875 Z M 1 -1.671875 "/></g></g></g><g fill="#f8cf40" fill-opacity="1"><g transform="translate(95.299946, 27.700679)"><g><path d="M 0.109375 0 L 5.375 -13.125 L 7.140625 -13.125 L 12.375 0 L 9.828125 0 L 8.8125 -2.859375 L 3.703125 -2.859375 L 2.6875 0 Z M 4.5 -4.875 L 8.015625 -4.875 L 6.265625 -9.671875 Z M 4.5 -4.875 "/></g></g></g><g fill="#f8cf40" fill-opacity="1"><g transform="translate(108.228831, 26.973196)"><g><path d="M 2.65625 0.078125 C 2.375 0.078125 2.097656 0.0390625 1.828125 -0.03125 C 1.554688 -0.113281 1.304688 -0.234375 1.078125 -0.390625 C 0.859375 -0.546875 0.671875 -0.742188 0.515625 -0.984375 C 0.359375 -1.222656 0.253906 -1.5 0.203125 -1.8125 L 1.34375 -2.109375 C 1.375 -1.835938 1.453125 -1.613281 1.578125 -1.4375 C 1.703125 -1.269531 1.859375 -1.144531 2.046875 -1.0625 C 2.242188 -0.988281 2.453125 -0.953125 2.671875 -0.953125 C 2.898438 -0.953125 3.09375 -0.988281 3.25 -1.0625 C 3.40625 -1.132812 3.523438 -1.226562 3.609375 -1.34375 C 3.691406 -1.46875 3.734375 -1.609375 3.734375 -1.765625 C 3.734375 -1.929688 3.6875 -2.070312 3.59375 -2.1875 C 3.507812 -2.3125 3.394531 -2.414062 3.25 -2.5 C 3.101562 -2.582031 2.9375 -2.660156 2.75 -2.734375 C 2.570312 -2.804688 2.382812 -2.878906 2.1875 -2.953125 C 1.988281 -3.035156 1.796875 -3.125 1.609375 -3.21875 C 1.421875 -3.320312 1.253906 -3.441406 1.109375 -3.578125 C 0.960938 -3.710938 0.84375 -3.875 0.75 -4.0625 C 0.664062 -4.25 0.625 -4.472656 0.625 -4.734375 C 0.625 -5.023438 0.675781 -5.28125 0.78125 -5.5 C 0.894531 -5.71875 1.039062 -5.898438 1.21875 -6.046875 C 1.40625 -6.203125 1.617188 -6.316406 1.859375 -6.390625 C 2.109375 -6.472656 2.367188 -6.515625 2.640625 -6.515625 C 3.035156 -6.515625 3.398438 -6.421875 3.734375 -6.234375 C 4.078125 -6.054688 4.359375 -5.773438 4.578125 -5.390625 L 3.625 -4.796875 C 3.507812 -5.015625 3.363281 -5.179688 3.1875 -5.296875 C 3.007812 -5.421875 2.8125 -5.484375 2.59375 -5.484375 C 2.4375 -5.484375 2.296875 -5.453125 2.171875 -5.390625 C 2.054688 -5.335938 1.960938 -5.257812 1.890625 -5.15625 C 1.816406 -5.050781 1.78125 -4.929688 1.78125 -4.796875 C 1.78125 -4.648438 1.820312 -4.519531 1.90625 -4.40625 C 2 -4.300781 2.117188 -4.207031 2.265625 -4.125 C 2.410156 -4.050781 2.578125 -3.976562 2.765625 -3.90625 C 2.953125 -3.832031 3.140625 -3.753906 3.328125 -3.671875 C 3.523438 -3.597656 3.71875 -3.507812 3.90625 -3.40625 C 4.09375 -3.3125 4.257812 -3.191406 4.40625 -3.046875 C 4.550781 -2.910156 4.664062 -2.742188 4.75 -2.546875 C 4.84375 -2.359375 4.890625 -2.132812 4.890625 -1.875 C 4.890625 -1.570312 4.832031 -1.296875 4.71875 -1.046875 C 4.601562 -0.804688 4.441406 -0.601562 4.234375 -0.4375 C 4.023438 -0.269531 3.785156 -0.140625 3.515625 -0.046875 C 3.253906 0.0351562 2.96875 0.078125 2.65625 0.078125 Z M 2.65625 0.078125 "/></g></g></g><g fill="#f8cf40" fill-opacity="1"><g transform="translate(114.983973, 26.973196)"><g><path d="M 2.109375 0 L 2.109375 -5.390625 L 0.09375 -5.390625 L 0.09375 -6.421875 L 5.265625 -6.421875 L 5.265625 -5.390625 L 3.25 -5.390625 L 3.25 0 Z M 2.109375 0 "/></g></g></g><g fill="#f8cf40" fill-opacity="1"><g transform="translate(121.93441, 26.973196)"><g><path d="M 0.046875 0 L 2.625 -6.421875 L 3.484375 -6.421875 L 6.046875 0 L 4.796875 0 L 4.296875 -1.390625 L 1.8125 -1.390625 L 1.3125 0 Z M 2.203125 -2.375 L 3.90625 -2.375 L 3.0625 -4.71875 Z M 2.203125 -2.375 "/></g></g></g><g fill="#f8cf40" fill-opacity="1"><g transform="translate(129.625149, 26.973196)"><g><path d="M 0.828125 0.015625 L 0.828125 -6.421875 L 2.90625 -6.421875 C 3.195312 -6.421875 3.476562 -6.378906 3.75 -6.296875 C 4.019531 -6.210938 4.253906 -6.085938 4.453125 -5.921875 C 4.660156 -5.753906 4.820312 -5.550781 4.9375 -5.3125 C 5.0625 -5.082031 5.125 -4.820312 5.125 -4.53125 C 5.125 -4.257812 5.066406 -4.007812 4.953125 -3.78125 C 4.847656 -3.5625 4.703125 -3.375 4.515625 -3.21875 C 4.328125 -3.0625 4.113281 -2.941406 3.875 -2.859375 L 5.65625 0.015625 L 4.328125 0.015625 L 2.75 -2.734375 L 1.984375 -2.734375 L 1.984375 0.015625 Z M 1.984375 -3.6875 L 3 -3.6875 C 3.3125 -3.695312 3.550781 -3.773438 3.71875 -3.921875 C 3.894531 -4.078125 3.984375 -4.269531 3.984375 -4.5 C 3.984375 -4.769531 3.882812 -4.984375 3.6875 -5.140625 C 3.5 -5.304688 3.238281 -5.390625 2.90625 -5.390625 L 1.984375 -5.390625 Z M 1.984375 -3.6875 "/></g></g></g><g fill="#f8cf40" fill-opacity="1"><g transform="translate(143.601038, 27.700679)"><g><path d="M 0.109375 0 L 5.375 -13.125 L 7.140625 -13.125 L 12.375 0 L 9.828125 0 L 8.8125 -2.859375 L 3.703125 -2.859375 L 2.6875 0 Z M 4.5 -4.875 L 8.015625 -4.875 L 6.265625 -9.671875 Z M 4.5 -4.875 "/></g></g></g><g fill="#f8cf40" fill-opacity="1"><g transform="translate(156.362423, 26.973196)"><g><path d="M 2.65625 0.078125 C 2.375 0.078125 2.097656 0.0390625 1.828125 -0.03125 C 1.554688 -0.113281 1.304688 -0.234375 1.078125 -0.390625 C 0.859375 -0.546875 0.671875 -0.742188 0.515625 -0.984375 C 0.359375 -1.222656 0.253906 -1.5 0.203125 -1.8125 L 1.34375 -2.109375 C 1.375 -1.835938 1.453125 -1.613281 1.578125 -1.4375 C 1.703125 -1.269531 1.859375 -1.144531 2.046875 -1.0625 C 2.242188 -0.988281 2.453125 -0.953125 2.671875 -0.953125 C 2.898438 -0.953125 3.09375 -0.988281 3.25 -1.0625 C 3.40625 -1.132812 3.523438 -1.226562 3.609375 -1.34375 C 3.691406 -1.46875 3.734375 -1.609375 3.734375 -1.765625 C 3.734375 -1.929688 3.6875 -2.070312 3.59375 -2.1875 C 3.507812 -2.3125 3.394531 -2.414062 3.25 -2.5 C 3.101562 -2.582031 2.9375 -2.660156 2.75 -2.734375 C 2.570312 -2.804688 2.382812 -2.878906 2.1875 -2.953125 C 1.988281 -3.035156 1.796875 -3.125 1.609375 -3.21875 C 1.421875 -3.320312 1.253906 -3.441406 1.109375 -3.578125 C 0.960938 -3.710938 0.84375 -3.875 0.75 -4.0625 C 0.664062 -4.25 0.625 -4.472656 0.625 -4.734375 C 0.625 -5.023438 0.675781 -5.28125 0.78125 -5.5 C 0.894531 -5.71875 1.039062 -5.898438 1.21875 -6.046875 C 1.40625 -6.203125 1.617188 -6.316406 1.859375 -6.390625 C 2.109375 -6.472656 2.367188 -6.515625 2.640625 -6.515625 C 3.035156 -6.515625 3.398438 -6.421875 3.734375 -6.234375 C 4.078125 -6.054688 4.359375 -5.773438 4.578125 -5.390625 L 3.625 -4.796875 C 3.507812 -5.015625 3.363281 -5.179688 3.1875 -5.296875 C 3.007812 -5.421875 2.8125 -5.484375 2.59375 -5.484375 C 2.4375 -5.484375 2.296875 -5.453125 2.171875 -5.390625 C 2.054688 -5.335938 1.960938 -5.257812 1.890625 -5.15625 C 1.816406 -5.050781 1.78125 -4.929688 1.78125 -4.796875 C 1.78125 -4.648438 1.820312 -4.519531 1.90625 -4.40625 C 2 -4.300781 2.117188 -4.207031 2.265625 -4.125 C 2.410156 -4.050781 2.578125 -3.976562 2.765625 -3.90625 C 2.953125 -3.832031 3.140625 -3.753906 3.328125 -3.671875 C 3.523438 -3.597656 3.71875 -3.507812 3.90625 -3.40625 C 4.09375 -3.3125 4.257812 -3.191406 4.40625 -3.046875 C 4.550781 -2.910156 4.664062 -2.742188 4.75 -2.546875 C 4.84375 -2.359375 4.890625 -2.132812 4.890625 -1.875 C 4.890625 -1.570312 4.832031 -1.296875 4.71875 -1.046875 C 4.601562 -0.804688 4.441406 -0.601562 4.234375 -0.4375 C 4.023438 -0.269531 3.785156 -0.140625 3.515625 -0.046875 C 3.253906 0.0351562 2.96875 0.078125 2.65625 0.078125 Z M 2.65625 0.078125 "/></g></g></g><g fill="#f8cf40" fill-opacity="1"><g transform="translate(163.117565, 26.973196)"><g><path d="M 2.65625 0.078125 C 2.375 0.078125 2.097656 0.0390625 1.828125 -0.03125 C 1.554688 -0.113281 1.304688 -0.234375 1.078125 -0.390625 C 0.859375 -0.546875 0.671875 -0.742188 0.515625 -0.984375 C 0.359375 -1.222656 0.253906 -1.5 0.203125 -1.8125 L 1.34375 -2.109375 C 1.375 -1.835938 1.453125 -1.613281 1.578125 -1.4375 C 1.703125 -1.269531 1.859375 -1.144531 2.046875 -1.0625 C 2.242188 -0.988281 2.453125 -0.953125 2.671875 -0.953125 C 2.898438 -0.953125 3.09375 -0.988281 3.25 -1.0625 C 3.40625 -1.132812 3.523438 -1.226562 3.609375 -1.34375 C 3.691406 -1.46875 3.734375 -1.609375 3.734375 -1.765625 C 3.734375 -1.929688 3.6875 -2.070312 3.59375 -2.1875 C 3.507812 -2.3125 3.394531 -2.414062 3.25 -2.5 C 3.101562 -2.582031 2.9375 -2.660156 2.75 -2.734375 C 2.570312 -2.804688 2.382812 -2.878906 2.1875 -2.953125 C 1.988281 -3.035156 1.796875 -3.125 1.609375 -3.21875 C 1.421875 -3.320312 1.253906 -3.441406 1.109375 -3.578125 C 0.960938 -3.710938 0.84375 -3.875 0.75 -4.0625 C 0.664062 -4.25 0.625 -4.472656 0.625 -4.734375 C 0.625 -5.023438 0.675781 -5.28125 0.78125 -5.5 C 0.894531 -5.71875 1.039062 -5.898438 1.21875 -6.046875 C 1.40625 -6.203125 1.617188 -6.316406 1.859375 -6.390625 C 2.109375 -6.472656 2.367188 -6.515625 2.640625 -6.515625 C 3.035156 -6.515625 3.398438 -6.421875 3.734375 -6.234375 C 4.078125 -6.054688 4.359375 -5.773438 4.578125 -5.390625 L 3.625 -4.796875 C 3.507812 -5.015625 3.363281 -5.179688 3.1875 -5.296875 C 3.007812 -5.421875 2.8125 -5.484375 2.59375 -5.484375 C 2.4375 -5.484375 2.296875 -5.453125 2.171875 -5.390625 C 2.054688 -5.335938 1.960938 -5.257812 1.890625 -5.15625 C 1.816406 -5.050781 1.78125 -4.929688 1.78125 -4.796875 C 1.78125 -4.648438 1.820312 -4.519531 1.90625 -4.40625 C 2 -4.300781 2.117188 -4.207031 2.265625 -4.125 C 2.410156 -4.050781 2.578125 -3.976562 2.765625 -3.90625 C 2.953125 -3.832031 3.140625 -3.753906 3.328125 -3.671875 C 3.523438 -3.597656 3.71875 -3.507812 3.90625 -3.40625 C 4.09375 -3.3125 4.257812 -3.191406 4.40625 -3.046875 C 4.550781 -2.910156 4.664062 -2.742188 4.75 -2.546875 C 4.84375 -2.359375 4.890625 -2.132812 4.890625 -1.875 C 4.890625 -1.570312 4.832031 -1.296875 4.71875 -1.046875 C 4.601562 -0.804688 4.441406 -0.601562 4.234375 -0.4375 C 4.023438 -0.269531 3.785156 -0.140625 3.515625 -0.046875 C 3.253906 0.0351562 2.96875 0.078125 2.65625 0.078125 Z M 2.65625 0.078125 "/></g></g></g><g fill="#f8cf40" fill-opacity="1"><g transform="translate(169.872707, 26.973196)"><g><path d="M 3.46875 0.09375 C 3.039062 0.09375 2.660156 0.0351562 2.328125 -0.078125 C 1.992188 -0.191406 1.703125 -0.351562 1.453125 -0.5625 C 1.210938 -0.769531 1.007812 -1.015625 0.84375 -1.296875 C 0.6875 -1.578125 0.566406 -1.878906 0.484375 -2.203125 C 0.410156 -2.523438 0.375 -2.859375 0.375 -3.203125 C 0.375 -3.554688 0.410156 -3.894531 0.484375 -4.21875 C 0.566406 -4.539062 0.6875 -4.84375 0.84375 -5.125 C 1.007812 -5.40625 1.210938 -5.648438 1.453125 -5.859375 C 1.703125 -6.066406 1.992188 -6.226562 2.328125 -6.34375 C 2.660156 -6.457031 3.039062 -6.515625 3.46875 -6.515625 C 3.894531 -6.515625 4.273438 -6.457031 4.609375 -6.34375 C 4.941406 -6.226562 5.226562 -6.066406 5.46875 -5.859375 C 5.71875 -5.648438 5.921875 -5.40625 6.078125 -5.125 C 6.242188 -4.84375 6.363281 -4.539062 6.4375 -4.21875 C 6.519531 -3.894531 6.5625 -3.554688 6.5625 -3.203125 C 6.5625 -2.859375 6.519531 -2.523438 6.4375 -2.203125 C 6.363281 -1.878906 6.242188 -1.578125 6.078125 -1.296875 C 5.921875 -1.015625 5.71875 -0.769531 5.46875 -0.5625 C 5.226562 -0.351562 4.941406 -0.191406 4.609375 -0.078125 C 4.273438 0.0351562 3.894531 0.09375 3.46875 0.09375 Z M 3.46875 -0.9375 C 3.8125 -0.9375 4.101562 -0.992188 4.34375 -1.109375 C 4.582031 -1.234375 4.773438 -1.398438 4.921875 -1.609375 C 5.066406 -1.828125 5.171875 -2.070312 5.234375 -2.34375 C 5.304688 -2.613281 5.34375 -2.898438 5.34375 -3.203125 C 5.34375 -3.503906 5.304688 -3.789062 5.234375 -4.0625 C 5.171875 -4.34375 5.066406 -4.585938 4.921875 -4.796875 C 4.773438 -5.003906 4.582031 -5.171875 4.34375 -5.296875 C 4.101562 -5.421875 3.8125 -5.484375 3.46875 -5.484375 C 3.125 -5.484375 2.832031 -5.421875 2.59375 -5.296875 C 2.351562 -5.171875 2.160156 -5.003906 2.015625 -4.796875 C 1.867188 -4.585938 1.757812 -4.34375 1.6875 -4.0625 C 1.625 -3.789062 1.59375 -3.503906 1.59375 -3.203125 C 1.59375 -2.898438 1.625 -2.613281 1.6875 -2.34375 C 1.757812 -2.070312 1.867188 -1.828125 2.015625 -1.609375 C 2.160156 -1.398438 2.351562 -1.234375 2.59375 -1.109375 C 2.832031 -0.992188 3.125 -0.9375 3.46875 -0.9375 Z M 3.46875 -0.9375 "/></g></g></g><g fill="#f8cf40" fill-opacity="1"><g transform="translate(178.403667, 26.973196)"><g><path d="M 3.484375 0.09375 C 3.054688 0.09375 2.675781 0.0351562 2.34375 -0.078125 C 2.007812 -0.191406 1.71875 -0.351562 1.46875 -0.5625 C 1.226562 -0.769531 1.023438 -1.007812 0.859375 -1.28125 C 0.691406 -1.5625 0.566406 -1.863281 0.484375 -2.1875 C 0.410156 -2.519531 0.375 -2.859375 0.375 -3.203125 C 0.375 -3.554688 0.410156 -3.894531 0.484375 -4.21875 C 0.566406 -4.550781 0.6875 -4.851562 0.84375 -5.125 C 1.007812 -5.40625 1.210938 -5.648438 1.453125 -5.859375 C 1.703125 -6.066406 1.992188 -6.226562 2.328125 -6.34375 C 2.671875 -6.457031 3.050781 -6.515625 3.46875 -6.515625 C 3.894531 -6.515625 4.285156 -6.441406 4.640625 -6.296875 C 5.003906 -6.160156 5.320312 -5.957031 5.59375 -5.6875 C 5.875 -5.414062 6.101562 -5.078125 6.28125 -4.671875 L 5.203125 -4.25 C 5.117188 -4.53125 4.992188 -4.753906 4.828125 -4.921875 C 4.660156 -5.097656 4.457031 -5.222656 4.21875 -5.296875 C 3.988281 -5.378906 3.734375 -5.421875 3.453125 -5.421875 C 3.117188 -5.421875 2.828125 -5.363281 2.578125 -5.25 C 2.335938 -5.132812 2.140625 -4.976562 1.984375 -4.78125 C 1.828125 -4.582031 1.707031 -4.351562 1.625 -4.09375 C 1.550781 -3.832031 1.515625 -3.550781 1.515625 -3.25 C 1.515625 -2.9375 1.550781 -2.640625 1.625 -2.359375 C 1.707031 -2.085938 1.828125 -1.847656 1.984375 -1.640625 C 2.140625 -1.441406 2.335938 -1.285156 2.578125 -1.171875 C 2.828125 -1.054688 3.128906 -1 3.484375 -1 C 3.890625 -1 4.234375 -1.085938 4.515625 -1.265625 C 4.804688 -1.453125 5.039062 -1.757812 5.21875 -2.1875 L 6.28125 -1.75 C 6.113281 -1.351562 5.890625 -1.015625 5.609375 -0.734375 C 5.335938 -0.460938 5.019531 -0.253906 4.65625 -0.109375 C 4.300781 0.0234375 3.910156 0.09375 3.484375 0.09375 Z M 3.484375 0.09375 "/></g></g></g><g fill="#f8cf40" fill-opacity="1"><g transform="translate(186.49862, 26.973196)"><g><path d="M 0.828125 0 L 0.828125 -6.421875 L 1.984375 -6.421875 L 1.984375 0 Z M 0.828125 0 "/></g></g></g><g fill="#f8cf40" fill-opacity="1"><g transform="translate(190.896603, 26.973196)"><g><path d="M 0.046875 0 L 2.625 -6.421875 L 3.484375 -6.421875 L 6.046875 0 L 4.796875 0 L 4.296875 -1.390625 L 1.8125 -1.390625 L 1.3125 0 Z M 2.203125 -2.375 L 3.90625 -2.375 L 3.0625 -4.71875 Z M 2.203125 -2.375 "/></g></g></g><g fill="#f8cf40" fill-opacity="1"><g transform="translate(198.587342, 26.973196)"><g><path d="M 2.109375 0 L 2.109375 -5.390625 L 0.09375 -5.390625 L 0.09375 -6.421875 L 5.265625 -6.421875 L 5.265625 -5.390625 L 3.25 -5.390625 L 3.25 0 Z M 2.109375 0 "/></g></g></g><g fill="#f8cf40" fill-opacity="1"><g transform="translate(205.537779, 26.973196)"><g><path d="M 0.828125 0 L 0.828125 -6.421875 L 5.09375 -6.421875 L 5.09375 -5.359375 L 1.984375 -5.359375 L 1.984375 -3.734375 L 4.875 -3.734375 L 4.875 -2.671875 L 1.984375 -2.671875 L 1.984375 -1.09375 L 5.09375 -1.09375 L 5.09375 0 Z M 0.828125 0 "/></g></g></g><g fill="#f8cf40" fill-opacity="1"><g transform="translate(212.783428, 26.973196)"><g><path d="M 2.65625 0.078125 C 2.375 0.078125 2.097656 0.0390625 1.828125 -0.03125 C 1.554688 -0.113281 1.304688 -0.234375 1.078125 -0.390625 C 0.859375 -0.546875 0.671875 -0.742188 0.515625 -0.984375 C 0.359375 -1.222656 0.253906 -1.5 0.203125 -1.8125 L 1.34375 -2.109375 C 1.375 -1.835938 1.453125 -1.613281 1.578125 -1.4375 C 1.703125 -1.269531 1.859375 -1.144531 2.046875 -1.0625 C 2.242188 -0.988281 2.453125 -0.953125 2.671875 -0.953125 C 2.898438 -0.953125 3.09375 -0.988281 3.25 -1.0625 C 3.40625 -1.132812 3.523438 -1.226562 3.609375 -1.34375 C 3.691406 -1.46875 3.734375 -1.609375 3.734375 -1.765625 C 3.734375 -1.929688 3.6875 -2.070312 3.59375 -2.1875 C 3.507812 -2.3125 3.394531 -2.414062 3.25 -2.5 C 3.101562 -2.582031 2.9375 -2.660156 2.75 -2.734375 C 2.570312 -2.804688 2.382812 -2.878906 2.1875 -2.953125 C 1.988281 -3.035156 1.796875 -3.125 1.609375 -3.21875 C 1.421875 -3.320312 1.253906 -3.441406 1.109375 -3.578125 C 0.960938 -3.710938 0.84375 -3.875 0.75 -4.0625 C 0.664062 -4.25 0.625 -4.472656 0.625 -4.734375 C 0.625 -5.023438 0.675781 -5.28125 0.78125 -5.5 C 0.894531 -5.71875 1.039062 -5.898438 1.21875 -6.046875 C 1.40625 -6.203125 1.617188 -6.316406 1.859375 -6.390625 C 2.109375 -6.472656 2.367188 -6.515625 2.640625 -6.515625 C 3.035156 -6.515625 3.398438 -6.421875 3.734375 -6.234375 C 4.078125 -6.054688 4.359375 -5.773438 4.578125 -5.390625 L 3.625 -4.796875 C 3.507812 -5.015625 3.363281 -5.179688 3.1875 -5.296875 C 3.007812 -5.421875 2.8125 -5.484375 2.59375 -5.484375 C 2.4375 -5.484375 2.296875 -5.453125 2.171875 -5.390625 C 2.054688 -5.335938 1.960938 -5.257812 1.890625 -5.15625 C 1.816406 -5.050781 1.78125 -4.929688 1.78125 -4.796875 C 1.78125 -4.648438 1.820312 -4.519531 1.90625 -4.40625 C 2 -4.300781 2.117188 -4.207031 2.265625 -4.125 C 2.410156 -4.050781 2.578125 -3.976562 2.765625 -3.90625 C 2.953125 -3.832031 3.140625 -3.753906 3.328125 -3.671875 C 3.523438 -3.597656 3.71875 -3.507812 3.90625 -3.40625 C 4.09375 -3.3125 4.257812 -3.191406 4.40625 -3.046875 C 4.550781 -2.910156 4.664062 -2.742188 4.75 -2.546875 C 4.84375 -2.359375 4.890625 -2.132812 4.890625 -1.875 C 4.890625 -1.570312 4.832031 -1.296875 4.71875 -1.046875 C 4.601562 -0.804688 4.441406 -0.601562 4.234375 -0.4375 C 4.023438 -0.269531 3.785156 -0.140625 3.515625 -0.046875 C 3.253906 0.0351562 2.96875 0.078125 2.65625 0.078125 Z M 2.65625 0.078125 "/></g></g></g></svg>