<svg xmlns="http://www.w3.org/2000/svg" xmlns:xlink="http://www.w3.org/1999/xlink" width="335" zoomAndPan="magnify" viewBox="0 0 251.25 48" height="64" preserveAspectRatio="xMidYMid meet" version="1.0"><defs><g/><clipPath id="8980142103"><path d="M 2.195312 0 L 248.320312 0 L 248.320312 47.019531 L 2.195312 47.019531 Z M 2.195312 0 " clip-rule="nonzero"/></clipPath><clipPath id="9a80f16970"><path d="M 33.472656 1.785156 L 95.039062 1.785156 L 95.039062 37.089844 L 33.472656 37.089844 Z M 33.472656 1.785156 " clip-rule="nonzero"/></clipPath><clipPath id="1a65759298"><path d="M 34 37 L 80 37 L 80 37.089844 L 34 37.089844 Z M 34 37 " clip-rule="nonzero"/></clipPath></defs><g clip-path="url(#8980142103)"><path fill="#ffffff" d="M 2.195312 0 L 248.320312 0 L 248.320312 47.019531 L 2.195312 47.019531 Z M 2.195312 0 " fill-opacity="1" fill-rule="nonzero"/><path fill="#ffffff" d="M 2.195312 0 L 248.320312 0 L 248.320312 47.019531 L 2.195312 47.019531 Z M 2.195312 0 " fill-opacity="1" fill-rule="nonzero"/></g><g fill="#212932" fill-opacity="1"><g transform="translate(99.715413, 35.833631)"><g><path d="M 0.015625 0 L 0.96875 -2.375 L 1.296875 -2.375 L 2.234375 0 L 1.78125 0 L 1.59375 -0.515625 L 0.671875 -0.515625 L 0.484375 0 Z M 0.8125 -0.875 L 1.453125 -0.875 L 1.125 -1.75 Z M 0.8125 -0.875 "/></g></g></g><g fill="#212932" fill-opacity="1"><g transform="translate(103.28306, 35.833631)"><g/></g></g><g fill="#212932" fill-opacity="1"><g transform="translate(105.419436, 35.833631)"><g><path d="M 1.28125 0.03125 C 1.125 0.03125 0.984375 0.0078125 0.859375 -0.03125 C 0.742188 -0.0703125 0.640625 -0.128906 0.546875 -0.203125 C 0.453125 -0.285156 0.375 -0.375 0.3125 -0.46875 C 0.257812 -0.570312 0.21875 -0.679688 0.1875 -0.796875 C 0.15625 -0.921875 0.140625 -1.050781 0.140625 -1.1875 C 0.140625 -1.3125 0.15625 -1.4375 0.1875 -1.5625 C 0.21875 -1.6875 0.257812 -1.796875 0.3125 -1.890625 C 0.375 -1.992188 0.445312 -2.082031 0.53125 -2.15625 C 0.625 -2.238281 0.734375 -2.300781 0.859375 -2.34375 C 0.984375 -2.382812 1.125 -2.40625 1.28125 -2.40625 C 1.4375 -2.40625 1.582031 -2.378906 1.71875 -2.328125 C 1.851562 -2.273438 1.96875 -2.195312 2.0625 -2.09375 C 2.164062 -2 2.25 -1.878906 2.3125 -1.734375 L 1.921875 -1.578125 C 1.890625 -1.679688 1.84375 -1.765625 1.78125 -1.828125 C 1.71875 -1.890625 1.644531 -1.929688 1.5625 -1.953125 C 1.476562 -1.984375 1.382812 -2 1.28125 -2 C 1.15625 -2 1.046875 -1.976562 0.953125 -1.9375 C 0.859375 -1.894531 0.78125 -1.835938 0.71875 -1.765625 C 0.664062 -1.691406 0.625 -1.609375 0.59375 -1.515625 C 0.570312 -1.421875 0.5625 -1.316406 0.5625 -1.203125 C 0.5625 -1.085938 0.570312 -0.976562 0.59375 -0.875 C 0.625 -0.769531 0.671875 -0.679688 0.734375 -0.609375 C 0.796875 -0.535156 0.867188 -0.476562 0.953125 -0.4375 C 1.046875 -0.394531 1.15625 -0.375 1.28125 -0.375 C 1.4375 -0.375 1.566406 -0.40625 1.671875 -0.46875 C 1.773438 -0.539062 1.859375 -0.65625 1.921875 -0.8125 L 2.328125 -0.65625 C 2.265625 -0.5 2.179688 -0.367188 2.078125 -0.265625 C 1.972656 -0.171875 1.851562 -0.0976562 1.71875 -0.046875 C 1.582031 0.00390625 1.4375 0.03125 1.28125 0.03125 Z M 1.28125 0.03125 "/></g></g></g><g fill="#212932" fill-opacity="1"><g transform="translate(109.136769, 35.833631)"><g><path d="M 1.28125 0.03125 C 1.125 0.03125 0.984375 0.0078125 0.859375 -0.03125 C 0.734375 -0.0703125 0.625 -0.128906 0.53125 -0.203125 C 0.445312 -0.285156 0.375 -0.375 0.3125 -0.46875 C 0.25 -0.570312 0.203125 -0.6875 0.171875 -0.8125 C 0.148438 -0.9375 0.140625 -1.0625 0.140625 -1.1875 C 0.140625 -1.3125 0.148438 -1.429688 0.171875 -1.546875 C 0.203125 -1.671875 0.25 -1.785156 0.3125 -1.890625 C 0.375 -1.992188 0.445312 -2.082031 0.53125 -2.15625 C 0.625 -2.238281 0.734375 -2.300781 0.859375 -2.34375 C 0.984375 -2.382812 1.125 -2.40625 1.28125 -2.40625 C 1.4375 -2.40625 1.578125 -2.382812 1.703125 -2.34375 C 1.828125 -2.300781 1.929688 -2.238281 2.015625 -2.15625 C 2.109375 -2.082031 2.1875 -1.992188 2.25 -1.890625 C 2.3125 -1.785156 2.351562 -1.671875 2.375 -1.546875 C 2.40625 -1.429688 2.421875 -1.3125 2.421875 -1.1875 C 2.421875 -1.0625 2.40625 -0.9375 2.375 -0.8125 C 2.351562 -0.6875 2.3125 -0.570312 2.25 -0.46875 C 2.1875 -0.375 2.109375 -0.285156 2.015625 -0.203125 C 1.929688 -0.128906 1.828125 -0.0703125 1.703125 -0.03125 C 1.578125 0.0078125 1.4375 0.03125 1.28125 0.03125 Z M 1.28125 -0.34375 C 1.40625 -0.34375 1.507812 -0.363281 1.59375 -0.40625 C 1.6875 -0.457031 1.757812 -0.519531 1.8125 -0.59375 C 1.875 -0.675781 1.914062 -0.765625 1.9375 -0.859375 C 1.96875 -0.960938 1.984375 -1.070312 1.984375 -1.1875 C 1.984375 -1.300781 1.96875 -1.40625 1.9375 -1.5 C 1.914062 -1.601562 1.875 -1.691406 1.8125 -1.765625 C 1.757812 -1.847656 1.6875 -1.910156 1.59375 -1.953125 C 1.507812 -2.003906 1.40625 -2.03125 1.28125 -2.03125 C 1.15625 -2.03125 1.046875 -2.003906 0.953125 -1.953125 C 0.867188 -1.910156 0.796875 -1.847656 0.734375 -1.765625 C 0.679688 -1.691406 0.644531 -1.601562 0.625 -1.5 C 0.601562 -1.40625 0.59375 -1.300781 0.59375 -1.1875 C 0.59375 -1.070312 0.601562 -0.960938 0.625 -0.859375 C 0.644531 -0.765625 0.679688 -0.675781 0.734375 -0.59375 C 0.796875 -0.519531 0.867188 -0.457031 0.953125 -0.40625 C 1.046875 -0.363281 1.15625 -0.34375 1.28125 -0.34375 Z M 1.28125 -0.34375 "/></g></g></g><g fill="#212932" fill-opacity="1"><g transform="translate(113.015561, 35.833631)"><g><path d="M 0.3125 0 L 0.3125 -2.375 L 0.875 -2.375 L 1.515625 -0.6875 L 2.140625 -2.375 L 2.71875 -2.375 L 2.71875 0 L 2.296875 0 L 2.296875 -1.78125 L 1.71875 -0.203125 L 1.296875 -0.203125 L 0.71875 -1.78125 L 0.71875 0 Z M 0.3125 0 "/></g></g></g><g fill="#212932" fill-opacity="1"><g transform="translate(117.348457, 35.833631)"><g><path d="M 0.3125 0 L 0.3125 -2.375 L 1.046875 -2.375 C 1.171875 -2.375 1.28125 -2.359375 1.375 -2.328125 C 1.476562 -2.296875 1.566406 -2.25 1.640625 -2.1875 C 1.722656 -2.125 1.785156 -2.050781 1.828125 -1.96875 C 1.867188 -1.882812 1.890625 -1.785156 1.890625 -1.671875 C 1.890625 -1.554688 1.867188 -1.457031 1.828125 -1.375 C 1.785156 -1.289062 1.722656 -1.21875 1.640625 -1.15625 C 1.566406 -1.101562 1.476562 -1.0625 1.375 -1.03125 C 1.28125 -1 1.171875 -0.984375 1.046875 -0.984375 L 0.734375 -0.984375 L 0.734375 0 Z M 0.734375 -1.375 L 1.046875 -1.375 C 1.191406 -1.375 1.296875 -1.398438 1.359375 -1.453125 C 1.429688 -1.503906 1.46875 -1.578125 1.46875 -1.671875 C 1.46875 -1.765625 1.429688 -1.835938 1.359375 -1.890625 C 1.296875 -1.941406 1.191406 -1.96875 1.046875 -1.96875 L 0.734375 -1.96875 Z M 0.734375 -1.375 "/></g></g></g><g fill="#212932" fill-opacity="1"><g transform="translate(120.620094, 35.833631)"><g><path d="M 0.3125 0 L 0.3125 -2.375 L 0.734375 -2.375 L 0.734375 -0.40625 L 1.75 -0.40625 L 1.75 0 Z M 0.3125 0 "/></g></g></g><g fill="#212932" fill-opacity="1"><g transform="translate(123.716817, 35.833631)"><g><path d="M 0.3125 0 L 0.3125 -2.375 L 1.890625 -2.375 L 1.890625 -1.984375 L 0.734375 -1.984375 L 0.734375 -1.375 L 1.796875 -1.375 L 1.796875 -0.984375 L 0.734375 -0.984375 L 0.734375 -0.40625 L 1.890625 -0.40625 L 1.890625 0 Z M 0.3125 0 "/></g></g></g><g fill="#212932" fill-opacity="1"><g transform="translate(127.11964, 35.833631)"><g><path d="M 0.78125 0 L 0.78125 -1.984375 L 0.03125 -1.984375 L 0.03125 -2.375 L 1.953125 -2.375 L 1.953125 -1.984375 L 1.203125 -1.984375 L 1.203125 0 Z M 0.78125 0 "/></g></g></g><g fill="#212932" fill-opacity="1"><g transform="translate(130.413142, 35.833631)"><g><path d="M 0.3125 0 L 0.3125 -2.375 L 1.890625 -2.375 L 1.890625 -1.984375 L 0.734375 -1.984375 L 0.734375 -1.375 L 1.796875 -1.375 L 1.796875 -0.984375 L 0.734375 -0.984375 L 0.734375 -0.40625 L 1.890625 -0.40625 L 1.890625 0 Z M 0.3125 0 "/></g></g></g><g fill="#212932" fill-opacity="1"><g transform="translate(133.815965, 35.833631)"><g/></g></g><g fill="#212932" fill-opacity="1"><g transform="translate(135.952341, 35.833631)"><g><path d="M 1.28125 0.03125 C 1.125 0.03125 0.984375 0.0078125 0.859375 -0.03125 C 0.742188 -0.0703125 0.640625 -0.128906 0.546875 -0.203125 C 0.453125 -0.285156 0.375 -0.375 0.3125 -0.46875 C 0.257812 -0.570312 0.21875 -0.679688 0.1875 -0.796875 C 0.15625 -0.921875 0.140625 -1.050781 0.140625 -1.1875 C 0.140625 -1.3125 0.15625 -1.4375 0.1875 -1.5625 C 0.21875 -1.6875 0.257812 -1.796875 0.3125 -1.890625 C 0.375 -1.992188 0.445312 -2.082031 0.53125 -2.15625 C 0.625 -2.238281 0.734375 -2.300781 0.859375 -2.34375 C 0.984375 -2.382812 1.125 -2.40625 1.28125 -2.40625 C 1.4375 -2.40625 1.582031 -2.378906 1.71875 -2.328125 C 1.851562 -2.273438 1.96875 -2.195312 2.0625 -2.09375 C 2.164062 -2 2.25 -1.878906 2.3125 -1.734375 L 1.921875 -1.578125 C 1.890625 -1.679688 1.84375 -1.765625 1.78125 -1.828125 C 1.71875 -1.890625 1.644531 -1.929688 1.5625 -1.953125 C 1.476562 -1.984375 1.382812 -2 1.28125 -2 C 1.15625 -2 1.046875 -1.976562 0.953125 -1.9375 C 0.859375 -1.894531 0.78125 -1.835938 0.71875 -1.765625 C 0.664062 -1.691406 0.625 -1.609375 0.59375 -1.515625 C 0.570312 -1.421875 0.5625 -1.316406 0.5625 -1.203125 C 0.5625 -1.085938 0.570312 -0.976562 0.59375 -0.875 C 0.625 -0.769531 0.671875 -0.679688 0.734375 -0.609375 C 0.796875 -0.535156 0.867188 -0.476562 0.953125 -0.4375 C 1.046875 -0.394531 1.15625 -0.375 1.28125 -0.375 C 1.4375 -0.375 1.566406 -0.40625 1.671875 -0.46875 C 1.773438 -0.539062 1.859375 -0.65625 1.921875 -0.8125 L 2.328125 -0.65625 C 2.265625 -0.5 2.179688 -0.367188 2.078125 -0.265625 C 1.972656 -0.171875 1.851562 -0.0976562 1.71875 -0.046875 C 1.582031 0.00390625 1.4375 0.03125 1.28125 0.03125 Z M 1.28125 0.03125 "/></g></g></g><g fill="#212932" fill-opacity="1"><g transform="translate(139.669675, 35.833631)"><g><path d="M 1.28125 0.03125 C 1.125 0.03125 0.984375 0.0078125 0.859375 -0.03125 C 0.734375 -0.0703125 0.625 -0.128906 0.53125 -0.203125 C 0.445312 -0.285156 0.375 -0.375 0.3125 -0.46875 C 0.25 -0.570312 0.203125 -0.6875 0.171875 -0.8125 C 0.148438 -0.9375 0.140625 -1.0625 0.140625 -1.1875 C 0.140625 -1.3125 0.148438 -1.429688 0.171875 -1.546875 C 0.203125 -1.671875 0.25 -1.785156 0.3125 -1.890625 C 0.375 -1.992188 0.445312 -2.082031 0.53125 -2.15625 C 0.625 -2.238281 0.734375 -2.300781 0.859375 -2.34375 C 0.984375 -2.382812 1.125 -2.40625 1.28125 -2.40625 C 1.4375 -2.40625 1.578125 -2.382812 1.703125 -2.34375 C 1.828125 -2.300781 1.929688 -2.238281 2.015625 -2.15625 C 2.109375 -2.082031 2.1875 -1.992188 2.25 -1.890625 C 2.3125 -1.785156 2.351562 -1.671875 2.375 -1.546875 C 2.40625 -1.429688 2.421875 -1.3125 2.421875 -1.1875 C 2.421875 -1.0625 2.40625 -0.9375 2.375 -0.8125 C 2.351562 -0.6875 2.3125 -0.570312 2.25 -0.46875 C 2.1875 -0.375 2.109375 -0.285156 2.015625 -0.203125 C 1.929688 -0.128906 1.828125 -0.0703125 1.703125 -0.03125 C 1.578125 0.0078125 1.4375 0.03125 1.28125 0.03125 Z M 1.28125 -0.34375 C 1.40625 -0.34375 1.507812 -0.363281 1.59375 -0.40625 C 1.6875 -0.457031 1.757812 -0.519531 1.8125 -0.59375 C 1.875 -0.675781 1.914062 -0.765625 1.9375 -0.859375 C 1.96875 -0.960938 1.984375 -1.070312 1.984375 -1.1875 C 1.984375 -1.300781 1.96875 -1.40625 1.9375 -1.5 C 1.914062 -1.601562 1.875 -1.691406 1.8125 -1.765625 C 1.757812 -1.847656 1.6875 -1.910156 1.59375 -1.953125 C 1.507812 -2.003906 1.40625 -2.03125 1.28125 -2.03125 C 1.15625 -2.03125 1.046875 -2.003906 0.953125 -1.953125 C 0.867188 -1.910156 0.796875 -1.847656 0.734375 -1.765625 C 0.679688 -1.691406 0.644531 -1.601562 0.625 -1.5 C 0.601562 -1.40625 0.59375 -1.300781 0.59375 -1.1875 C 0.59375 -1.070312 0.601562 -0.960938 0.625 -0.859375 C 0.644531 -0.765625 0.679688 -0.675781 0.734375 -0.59375 C 0.796875 -0.519531 0.867188 -0.457031 0.953125 -0.40625 C 1.046875 -0.363281 1.15625 -0.34375 1.28125 -0.34375 Z M 1.28125 -0.34375 "/></g></g></g><g fill="#212932" fill-opacity="1"><g transform="translate(143.548467, 35.833631)"><g><path d="M 0.3125 0 L 0.3125 -2.375 L 0.734375 -2.375 L 1.71875 -0.71875 L 1.71875 -2.375 L 2.140625 -2.375 L 2.140625 0 L 1.703125 0 L 0.71875 -1.65625 L 0.71875 0 Z M 0.3125 0 "/></g></g></g><g fill="#212932" fill-opacity="1"><g transform="translate(147.3028, 35.833631)"><g><path d="M 0.984375 0.03125 C 0.878906 0.03125 0.773438 0.015625 0.671875 -0.015625 C 0.578125 -0.046875 0.488281 -0.0859375 0.40625 -0.140625 C 0.320312 -0.203125 0.25 -0.273438 0.1875 -0.359375 C 0.132812 -0.453125 0.0976562 -0.554688 0.078125 -0.671875 L 0.5 -0.78125 C 0.507812 -0.675781 0.535156 -0.59375 0.578125 -0.53125 C 0.628906 -0.46875 0.6875 -0.421875 0.75 -0.390625 C 0.820312 -0.359375 0.898438 -0.34375 0.984375 -0.34375 C 1.078125 -0.34375 1.148438 -0.359375 1.203125 -0.390625 C 1.265625 -0.421875 1.304688 -0.457031 1.328125 -0.5 C 1.359375 -0.539062 1.375 -0.59375 1.375 -0.65625 C 1.375 -0.71875 1.359375 -0.769531 1.328125 -0.8125 C 1.296875 -0.851562 1.253906 -0.890625 1.203125 -0.921875 C 1.148438 -0.953125 1.085938 -0.976562 1.015625 -1 C 0.953125 -1.03125 0.882812 -1.0625 0.8125 -1.09375 C 0.738281 -1.125 0.664062 -1.15625 0.59375 -1.1875 C 0.53125 -1.226562 0.46875 -1.269531 0.40625 -1.3125 C 0.351562 -1.363281 0.3125 -1.425781 0.28125 -1.5 C 0.25 -1.570312 0.234375 -1.65625 0.234375 -1.75 C 0.234375 -1.851562 0.25 -1.945312 0.28125 -2.03125 C 0.320312 -2.113281 0.378906 -2.179688 0.453125 -2.234375 C 0.523438 -2.296875 0.601562 -2.335938 0.6875 -2.359375 C 0.78125 -2.390625 0.875 -2.40625 0.96875 -2.40625 C 1.113281 -2.40625 1.25 -2.367188 1.375 -2.296875 C 1.507812 -2.234375 1.613281 -2.128906 1.6875 -1.984375 L 1.34375 -1.78125 C 1.300781 -1.851562 1.242188 -1.910156 1.171875 -1.953125 C 1.109375 -2.003906 1.035156 -2.03125 0.953125 -2.03125 C 0.898438 -2.03125 0.847656 -2.019531 0.796875 -2 C 0.753906 -1.976562 0.71875 -1.945312 0.6875 -1.90625 C 0.664062 -1.863281 0.65625 -1.820312 0.65625 -1.78125 C 0.65625 -1.71875 0.671875 -1.664062 0.703125 -1.625 C 0.734375 -1.59375 0.773438 -1.5625 0.828125 -1.53125 C 0.890625 -1.5 0.953125 -1.46875 1.015625 -1.4375 C 1.085938 -1.414062 1.160156 -1.390625 1.234375 -1.359375 C 1.304688 -1.328125 1.375 -1.289062 1.4375 -1.25 C 1.507812 -1.21875 1.570312 -1.175781 1.625 -1.125 C 1.675781 -1.070312 1.71875 -1.007812 1.75 -0.9375 C 1.789062 -0.875 1.8125 -0.789062 1.8125 -0.6875 C 1.8125 -0.582031 1.785156 -0.484375 1.734375 -0.390625 C 1.691406 -0.296875 1.632812 -0.21875 1.5625 -0.15625 C 1.488281 -0.101562 1.398438 -0.0546875 1.296875 -0.015625 C 1.203125 0.015625 1.097656 0.03125 0.984375 0.03125 Z M 0.984375 0.03125 "/></g></g></g><g fill="#212932" fill-opacity="1"><g transform="translate(150.523981, 35.833631)"><g><path d="M 0.78125 0 L 0.78125 -1.984375 L 0.03125 -1.984375 L 0.03125 -2.375 L 1.953125 -2.375 L 1.953125 -1.984375 L 1.203125 -1.984375 L 1.203125 0 Z M 0.78125 0 "/></g></g></g><g fill="#212932" fill-opacity="1"><g transform="translate(153.817483, 35.833631)"><g><path d="M 0.3125 0 L 0.3125 -2.375 L 1.078125 -2.375 C 1.179688 -2.375 1.28125 -2.359375 1.375 -2.328125 C 1.476562 -2.296875 1.566406 -2.25 1.640625 -2.1875 C 1.722656 -2.125 1.785156 -2.050781 1.828125 -1.96875 C 1.867188 -1.882812 1.890625 -1.785156 1.890625 -1.671875 C 1.890625 -1.578125 1.867188 -1.488281 1.828125 -1.40625 C 1.796875 -1.320312 1.742188 -1.25 1.671875 -1.1875 C 1.597656 -1.132812 1.519531 -1.09375 1.4375 -1.0625 L 2.09375 0 L 1.59375 0 L 1.015625 -1.015625 L 0.734375 -1.015625 L 0.734375 0 Z M 0.734375 -1.359375 L 1.109375 -1.359375 C 1.222656 -1.367188 1.3125 -1.398438 1.375 -1.453125 C 1.4375 -1.503906 1.46875 -1.578125 1.46875 -1.671875 C 1.46875 -1.765625 1.429688 -1.835938 1.359375 -1.890625 C 1.296875 -1.953125 1.203125 -1.984375 1.078125 -1.984375 L 0.734375 -1.984375 Z M 0.734375 -1.359375 "/></g></g></g><g fill="#212932" fill-opacity="1"><g transform="translate(157.258989, 35.833631)"><g><path d="M 1.15625 0.03125 C 0.945312 0.03125 0.773438 -0.00390625 0.640625 -0.078125 C 0.503906 -0.160156 0.40625 -0.273438 0.34375 -0.421875 C 0.28125 -0.566406 0.25 -0.734375 0.25 -0.921875 L 0.25 -2.375 L 0.671875 -2.375 L 0.671875 -0.96875 C 0.671875 -0.84375 0.6875 -0.734375 0.71875 -0.640625 C 0.75 -0.554688 0.796875 -0.488281 0.859375 -0.4375 C 0.929688 -0.394531 1.03125 -0.375 1.15625 -0.375 C 1.28125 -0.375 1.378906 -0.394531 1.453125 -0.4375 C 1.523438 -0.488281 1.570312 -0.554688 1.59375 -0.640625 C 1.625 -0.734375 1.640625 -0.84375 1.640625 -0.96875 L 1.640625 -2.375 L 2.0625 -2.375 L 2.0625 -0.9375 C 2.0625 -0.738281 2.03125 -0.566406 1.96875 -0.421875 C 1.90625 -0.273438 1.804688 -0.160156 1.671875 -0.078125 C 1.546875 -0.00390625 1.375 0.03125 1.15625 0.03125 Z M 1.15625 0.03125 "/></g></g></g><g fill="#212932" fill-opacity="1"><g transform="translate(160.888864, 35.833631)"><g><path d="M 1.28125 0.03125 C 1.125 0.03125 0.984375 0.0078125 0.859375 -0.03125 C 0.742188 -0.0703125 0.640625 -0.128906 0.546875 -0.203125 C 0.453125 -0.285156 0.375 -0.375 0.3125 -0.46875 C 0.257812 -0.570312 0.21875 -0.679688 0.1875 -0.796875 C 0.15625 -0.921875 0.140625 -1.050781 0.140625 -1.1875 C 0.140625 -1.3125 0.15625 -1.4375 0.1875 -1.5625 C 0.21875 -1.6875 0.257812 -1.796875 0.3125 -1.890625 C 0.375 -1.992188 0.445312 -2.082031 0.53125 -2.15625 C 0.625 -2.238281 0.734375 -2.300781 0.859375 -2.34375 C 0.984375 -2.382812 1.125 -2.40625 1.28125 -2.40625 C 1.4375 -2.40625 1.582031 -2.378906 1.71875 -2.328125 C 1.851562 -2.273438 1.96875 -2.195312 2.0625 -2.09375 C 2.164062 -2 2.25 -1.878906 2.3125 -1.734375 L 1.921875 -1.578125 C 1.890625 -1.679688 1.84375 -1.765625 1.78125 -1.828125 C 1.71875 -1.890625 1.644531 -1.929688 1.5625 -1.953125 C 1.476562 -1.984375 1.382812 -2 1.28125 -2 C 1.15625 -2 1.046875 -1.976562 0.953125 -1.9375 C 0.859375 -1.894531 0.78125 -1.835938 0.71875 -1.765625 C 0.664062 -1.691406 0.625 -1.609375 0.59375 -1.515625 C 0.570312 -1.421875 0.5625 -1.316406 0.5625 -1.203125 C 0.5625 -1.085938 0.570312 -0.976562 0.59375 -0.875 C 0.625 -0.769531 0.671875 -0.679688 0.734375 -0.609375 C 0.796875 -0.535156 0.867188 -0.476562 0.953125 -0.4375 C 1.046875 -0.394531 1.15625 -0.375 1.28125 -0.375 C 1.4375 -0.375 1.566406 -0.40625 1.671875 -0.46875 C 1.773438 -0.539062 1.859375 -0.65625 1.921875 -0.8125 L 2.328125 -0.65625 C 2.265625 -0.5 2.179688 -0.367188 2.078125 -0.265625 C 1.972656 -0.171875 1.851562 -0.0976562 1.71875 -0.046875 C 1.582031 0.00390625 1.4375 0.03125 1.28125 0.03125 Z M 1.28125 0.03125 "/></g></g></g><g fill="#212932" fill-opacity="1"><g transform="translate(164.606196, 35.833631)"><g><path d="M 0.78125 0 L 0.78125 -1.984375 L 0.03125 -1.984375 L 0.03125 -2.375 L 1.953125 -2.375 L 1.953125 -1.984375 L 1.203125 -1.984375 L 1.203125 0 Z M 0.78125 0 "/></g></g></g><g fill="#212932" fill-opacity="1"><g transform="translate(167.899697, 35.833631)"><g><path d="M 0.3125 0 L 0.3125 -2.375 L 0.734375 -2.375 L 0.734375 0 Z M 0.3125 0 "/></g></g></g><g fill="#212932" fill-opacity="1"><g transform="translate(170.247989, 35.833631)"><g><path d="M 1.28125 0.03125 C 1.125 0.03125 0.984375 0.0078125 0.859375 -0.03125 C 0.734375 -0.0703125 0.625 -0.128906 0.53125 -0.203125 C 0.445312 -0.285156 0.375 -0.375 0.3125 -0.46875 C 0.25 -0.570312 0.203125 -0.6875 0.171875 -0.8125 C 0.148438 -0.9375 0.140625 -1.0625 0.140625 -1.1875 C 0.140625 -1.3125 0.148438 -1.429688 0.171875 -1.546875 C 0.203125 -1.671875 0.25 -1.785156 0.3125 -1.890625 C 0.375 -1.992188 0.445312 -2.082031 0.53125 -2.15625 C 0.625 -2.238281 0.734375 -2.300781 0.859375 -2.34375 C 0.984375 -2.382812 1.125 -2.40625 1.28125 -2.40625 C 1.4375 -2.40625 1.578125 -2.382812 1.703125 -2.34375 C 1.828125 -2.300781 1.929688 -2.238281 2.015625 -2.15625 C 2.109375 -2.082031 2.1875 -1.992188 2.25 -1.890625 C 2.3125 -1.785156 2.351562 -1.671875 2.375 -1.546875 C 2.40625 -1.429688 2.421875 -1.3125 2.421875 -1.1875 C 2.421875 -1.0625 2.40625 -0.9375 2.375 -0.8125 C 2.351562 -0.6875 2.3125 -0.570312 2.25 -0.46875 C 2.1875 -0.375 2.109375 -0.285156 2.015625 -0.203125 C 1.929688 -0.128906 1.828125 -0.0703125 1.703125 -0.03125 C 1.578125 0.0078125 1.4375 0.03125 1.28125 0.03125 Z M 1.28125 -0.34375 C 1.40625 -0.34375 1.507812 -0.363281 1.59375 -0.40625 C 1.6875 -0.457031 1.757812 -0.519531 1.8125 -0.59375 C 1.875 -0.675781 1.914062 -0.765625 1.9375 -0.859375 C 1.96875 -0.960938 1.984375 -1.070312 1.984375 -1.1875 C 1.984375 -1.300781 1.96875 -1.40625 1.9375 -1.5 C 1.914062 -1.601562 1.875 -1.691406 1.8125 -1.765625 C 1.757812 -1.847656 1.6875 -1.910156 1.59375 -1.953125 C 1.507812 -2.003906 1.40625 -2.03125 1.28125 -2.03125 C 1.15625 -2.03125 1.046875 -2.003906 0.953125 -1.953125 C 0.867188 -1.910156 0.796875 -1.847656 0.734375 -1.765625 C 0.679688 -1.691406 0.644531 -1.601562 0.625 -1.5 C 0.601562 -1.40625 0.59375 -1.300781 0.59375 -1.1875 C 0.59375 -1.070312 0.601562 -0.960938 0.625 -0.859375 C 0.644531 -0.765625 0.679688 -0.675781 0.734375 -0.59375 C 0.796875 -0.519531 0.867188 -0.457031 0.953125 -0.40625 C 1.046875 -0.363281 1.15625 -0.34375 1.28125 -0.34375 Z M 1.28125 -0.34375 "/></g></g></g><g fill="#212932" fill-opacity="1"><g transform="translate(174.126785, 35.833631)"><g><path d="M 0.3125 0 L 0.3125 -2.375 L 0.734375 -2.375 L 1.71875 -0.71875 L 1.71875 -2.375 L 2.140625 -2.375 L 2.140625 0 L 1.703125 0 L 0.71875 -1.65625 L 0.71875 0 Z M 0.3125 0 "/></g></g></g><g fill="#212932" fill-opacity="1"><g transform="translate(177.881118, 35.833631)"><g/></g></g><g fill="#212932" fill-opacity="1"><g transform="translate(180.017494, 35.833631)"><g><path d="M 0.3125 0 L 0.3125 -2.375 L 1.078125 -2.375 C 1.179688 -2.375 1.28125 -2.359375 1.375 -2.328125 C 1.476562 -2.296875 1.566406 -2.25 1.640625 -2.1875 C 1.722656 -2.125 1.785156 -2.050781 1.828125 -1.96875 C 1.867188 -1.882812 1.890625 -1.785156 1.890625 -1.671875 C 1.890625 -1.578125 1.867188 -1.488281 1.828125 -1.40625 C 1.796875 -1.320312 1.742188 -1.25 1.671875 -1.1875 C 1.597656 -1.132812 1.519531 -1.09375 1.4375 -1.0625 L 2.09375 0 L 1.59375 0 L 1.015625 -1.015625 L 0.734375 -1.015625 L 0.734375 0 Z M 0.734375 -1.359375 L 1.109375 -1.359375 C 1.222656 -1.367188 1.3125 -1.398438 1.375 -1.453125 C 1.4375 -1.503906 1.46875 -1.578125 1.46875 -1.671875 C 1.46875 -1.765625 1.429688 -1.835938 1.359375 -1.890625 C 1.296875 -1.953125 1.203125 -1.984375 1.078125 -1.984375 L 0.734375 -1.984375 Z M 0.734375 -1.359375 "/></g></g></g><g fill="#212932" fill-opacity="1"><g transform="translate(183.459, 35.833631)"><g><path d="M 0.3125 0 L 0.3125 -2.375 L 1.890625 -2.375 L 1.890625 -1.984375 L 0.734375 -1.984375 L 0.734375 -1.375 L 1.796875 -1.375 L 1.796875 -0.984375 L 0.734375 -0.984375 L 0.734375 -0.40625 L 1.890625 -0.40625 L 1.890625 0 Z M 0.3125 0 "/></g></g></g><g fill="#212932" fill-opacity="1"><g transform="translate(186.861823, 35.833631)"><g><path d="M 0.96875 0 L 0.015625 -2.375 L 0.484375 -2.375 L 1.125 -0.6875 L 1.765625 -2.375 L 2.234375 -2.375 L 1.296875 0 Z M 0.96875 0 "/></g></g></g><g fill="#212932" fill-opacity="1"><g transform="translate(190.429469, 35.833631)"><g><path d="M 0.3125 0 L 0.3125 -2.375 L 1.890625 -2.375 L 1.890625 -1.984375 L 0.734375 -1.984375 L 0.734375 -1.375 L 1.796875 -1.375 L 1.796875 -0.984375 L 0.734375 -0.984375 L 0.734375 -0.40625 L 1.890625 -0.40625 L 1.890625 0 Z M 0.3125 0 "/></g></g></g><g fill="#212932" fill-opacity="1"><g transform="translate(193.832292, 35.833631)"><g><path d="M 0.3125 0 L 0.3125 -2.375 L 0.734375 -2.375 L 0.734375 -0.40625 L 1.75 -0.40625 L 1.75 0 Z M 0.3125 0 "/></g></g></g><g fill="#212932" fill-opacity="1"><g transform="translate(196.929015, 35.833631)"><g><path d="M 0.015625 0 L 0.96875 -2.375 L 1.296875 -2.375 L 2.234375 0 L 1.78125 0 L 1.59375 -0.515625 L 0.671875 -0.515625 L 0.484375 0 Z M 0.8125 -0.875 L 1.453125 -0.875 L 1.125 -1.75 Z M 0.8125 -0.875 "/></g></g></g><g fill="#212932" fill-opacity="1"><g transform="translate(200.496661, 35.833631)"><g><path d="M 0.78125 0 L 0.78125 -1.984375 L 0.03125 -1.984375 L 0.03125 -2.375 L 1.953125 -2.375 L 1.953125 -1.984375 L 1.203125 -1.984375 L 1.203125 0 Z M 0.78125 0 "/></g></g></g><g fill="#212932" fill-opacity="1"><g transform="translate(203.790162, 35.833631)"><g><path d="M 0.3125 0 L 0.3125 -2.375 L 0.734375 -2.375 L 0.734375 0 Z M 0.3125 0 "/></g></g></g><g fill="#212932" fill-opacity="1"><g transform="translate(206.138454, 35.833631)"><g><path d="M 1.28125 0.03125 C 1.125 0.03125 0.984375 0.0078125 0.859375 -0.03125 C 0.734375 -0.0703125 0.625 -0.128906 0.53125 -0.203125 C 0.445312 -0.285156 0.375 -0.375 0.3125 -0.46875 C 0.25 -0.570312 0.203125 -0.6875 0.171875 -0.8125 C 0.148438 -0.9375 0.140625 -1.0625 0.140625 -1.1875 C 0.140625 -1.3125 0.148438 -1.429688 0.171875 -1.546875 C 0.203125 -1.671875 0.25 -1.785156 0.3125 -1.890625 C 0.375 -1.992188 0.445312 -2.082031 0.53125 -2.15625 C 0.625 -2.238281 0.734375 -2.300781 0.859375 -2.34375 C 0.984375 -2.382812 1.125 -2.40625 1.28125 -2.40625 C 1.4375 -2.40625 1.578125 -2.382812 1.703125 -2.34375 C 1.828125 -2.300781 1.929688 -2.238281 2.015625 -2.15625 C 2.109375 -2.082031 2.1875 -1.992188 2.25 -1.890625 C 2.3125 -1.785156 2.351562 -1.671875 2.375 -1.546875 C 2.40625 -1.429688 2.421875 -1.3125 2.421875 -1.1875 C 2.421875 -1.0625 2.40625 -0.9375 2.375 -0.8125 C 2.351562 -0.6875 2.3125 -0.570312 2.25 -0.46875 C 2.1875 -0.375 2.109375 -0.285156 2.015625 -0.203125 C 1.929688 -0.128906 1.828125 -0.0703125 1.703125 -0.03125 C 1.578125 0.0078125 1.4375 0.03125 1.28125 0.03125 Z M 1.28125 -0.34375 C 1.40625 -0.34375 1.507812 -0.363281 1.59375 -0.40625 C 1.6875 -0.457031 1.757812 -0.519531 1.8125 -0.59375 C 1.875 -0.675781 1.914062 -0.765625 1.9375 -0.859375 C 1.96875 -0.960938 1.984375 -1.070312 1.984375 -1.1875 C 1.984375 -1.300781 1.96875 -1.40625 1.9375 -1.5 C 1.914062 -1.601562 1.875 -1.691406 1.8125 -1.765625 C 1.757812 -1.847656 1.6875 -1.910156 1.59375 -1.953125 C 1.507812 -2.003906 1.40625 -2.03125 1.28125 -2.03125 C 1.15625 -2.03125 1.046875 -2.003906 0.953125 -1.953125 C 0.867188 -1.910156 0.796875 -1.847656 0.734375 -1.765625 C 0.679688 -1.691406 0.644531 -1.601562 0.625 -1.5 C 0.601562 -1.40625 0.59375 -1.300781 0.59375 -1.1875 C 0.59375 -1.070312 0.601562 -0.960938 0.625 -0.859375 C 0.644531 -0.765625 0.679688 -0.675781 0.734375 -0.59375 C 0.796875 -0.519531 0.867188 -0.457031 0.953125 -0.40625 C 1.046875 -0.363281 1.15625 -0.34375 1.28125 -0.34375 Z M 1.28125 -0.34375 "/></g></g></g><g fill="#212932" fill-opacity="1"><g transform="translate(210.017245, 35.833631)"><g><path d="M 0.3125 0 L 0.3125 -2.375 L 0.734375 -2.375 L 1.71875 -0.71875 L 1.71875 -2.375 L 2.140625 -2.375 L 2.140625 0 L 1.703125 0 L 0.71875 -1.65625 L 0.71875 0 Z M 0.3125 0 "/></g></g></g><g clip-path="url(#9a80f16970)"><path fill="#212932" d="M 95.515625 37.933594 C 94.882812 37.519531 94.125 37.300781 93.472656 36.957031 C 93.496094 36.898438 93.574219 36.929688 93.625 36.921875 C 94.078125 36.921875 94.53125 36.925781 94.980469 36.929688 C 95.074219 36.917969 95.234375 36.964844 95.273438 36.851562 C 95.265625 36.675781 95.296875 36.460938 95.25 36.292969 C 95.105469 36.136719 94.878906 36.441406 94.910156 36.007812 C 94.90625 35.554688 94.902344 35.101562 94.898438 34.648438 C 94.882812 34.558594 94.941406 34.382812 94.8125 34.363281 C 94.1875 34.351562 93.5625 34.324219 92.941406 34.339844 C 92.789062 34.367188 92.878906 35.121094 92.839844 35.296875 C 92.835938 35.429688 92.820312 35.441406 92.691406 35.445312 C 92.503906 35.449219 92.492188 35.4375 92.492188 35.242188 C 92.492188 35.140625 92.496094 35.039062 92.496094 34.933594 C 92.492188 34.148438 92.507812 33.363281 92.492188 32.578125 C 92.496094 32.480469 92.398438 32.46875 92.320312 32.480469 C 92.121094 32.492188 92.125 32.457031 92.117188 32.28125 C 92.085938 30.96875 92.132812 29.652344 92.066406 28.339844 C 91.957031 28.324219 91.898438 28.414062 91.828125 28.464844 C 91.117188 29.023438 90.3125 29.523438 89.640625 30.101562 C 89.546875 31.300781 89.621094 32.527344 89.589844 33.734375 C 89.585938 34.101562 89.59375 34.46875 89.59375 34.835938 C 89.578125 34.90625 89.605469 35.03125 89.53125 35.0625 C 89.398438 35.03125 89.464844 34.171875 89.433594 33.996094 C 89.449219 33.636719 89.378906 33.699219 89.074219 33.699219 C 88.964844 33.699219 88.988281 33.570312 88.984375 33.496094 C 88.992188 32.757812 89.003906 32.023438 89.011719 31.292969 C 89.011719 30.941406 89.050781 30.980469 88.695312 30.980469 C 88.375 30.980469 88.394531 31.007812 88.394531 30.675781 C 88.394531 29.273438 88.40625 27.871094 88.394531 26.472656 C 88.394531 26.445312 88.375 26.414062 88.355469 26.394531 C 88.347656 26.386719 88.308594 26.40625 88.289062 26.421875 C 87.835938 26.824219 87.390625 27.234375 86.933594 27.628906 C 86.703125 27.832031 86.816406 28.183594 86.765625 28.457031 C 86.808594 28.933594 86.445312 28.625 86.1875 28.761719 C 86.140625 29.097656 86.144531 29.4375 86.140625 29.777344 C 86.128906 29.898438 86.1875 30.089844 86 30.066406 C 85.804688 30.070312 85.609375 30.070312 85.414062 30.070312 C 85.101562 30.070312 85.121094 30.097656 85.121094 29.78125 C 85.128906 26.359375 85.136719 22.933594 85.121094 19.507812 C 85.121094 19.351562 85.070312 19.261719 84.941406 19.179688 C 84.53125 18.917969 84.125 18.648438 83.722656 18.375 C 82.488281 17.566406 81.292969 16.652344 80.019531 15.921875 C 79.921875 21.125 79.984375 26.339844 79.953125 31.546875 C 79.953125 31.761719 79.945312 31.761719 79.738281 31.757812 C 79.554688 31.753906 79.550781 31.75 79.546875 31.570312 C 79.539062 27.882812 79.558594 24.191406 79.539062 20.503906 C 79.535156 20.351562 79.527344 20.34375 79.378906 20.34375 C 78.910156 20.339844 78.441406 20.339844 77.972656 20.335938 C 77.75 20.335938 77.75 20.324219 77.75 20.5625 C 77.746094 21.394531 77.753906 22.222656 77.742188 23.050781 C 77.796875 23.230469 77.027344 23.09375 76.902344 23.121094 C 76.710938 23.082031 76.808594 23.558594 76.785156 23.6875 C 76.777344 24.996094 76.789062 26.300781 76.777344 27.609375 C 76.773438 27.667969 76.742188 27.703125 76.679688 27.703125 C 76.167969 27.703125 75.65625 27.703125 75.144531 27.707031 C 74.980469 27.707031 74.980469 27.707031 74.96875 27.878906 C 74.9375 29.722656 74.945312 31.566406 74.9375 33.410156 C 74.933594 33.644531 74.929688 33.644531 74.6875 33.644531 C 74.625 33.644531 74.59375 33.609375 74.589844 33.550781 C 74.558594 28.519531 74.59375 23.492188 74.578125 18.460938 C 74.574219 18.308594 74.5625 18.296875 74.417969 18.296875 C 74.230469 18.300781 74.042969 18.3125 73.855469 18.316406 C 73.496094 18.324219 73.527344 18.34375 73.527344 17.984375 C 73.496094 15.121094 73.601562 12.171875 73.507812 9.351562 C 73.476562 9.34375 73.421875 9.394531 73.386719 9.429688 C 73.164062 9.65625 72.945312 9.882812 72.730469 10.113281 C 71.9375 10.976562 71.152344 11.84375 70.359375 12.703125 C 70.242188 12.832031 70.183594 12.960938 70.183594 13.136719 C 70.15625 14.929688 70.1875 16.722656 70.160156 18.515625 C 70.160156 18.675781 69.949219 18.617188 69.84375 18.628906 C 69.507812 18.628906 69.175781 18.628906 68.84375 18.632812 C 68.519531 18.632812 68.566406 18.609375 68.5625 18.898438 C 68.5625 19.863281 68.554688 20.828125 68.535156 21.792969 C 68.53125 22 68.527344 22 68.316406 22.003906 C 67.914062 22.007812 67.511719 22.011719 67.109375 22.015625 C 67.003906 22.019531 66.992188 22.027344 66.988281 22.132812 C 66.964844 24 66.980469 25.871094 66.972656 27.742188 C 66.972656 27.914062 66.972656 28.082031 66.964844 28.253906 C 66.960938 28.390625 66.933594 28.414062 66.792969 28.417969 C 66.683594 28.414062 66.59375 28.421875 66.597656 28.28125 C 66.601562 24.449219 66.59375 20.613281 66.585938 16.78125 C 66.585938 13.304688 66.59375 9.828125 66.585938 6.355469 C 66.601562 6.195312 66.457031 6.132812 66.351562 6.050781 C 64.414062 4.644531 62.519531 3.183594 60.574219 1.796875 C 60.332031 7.042969 60.570312 12.660156 60.488281 18.027344 C 60.480469 18.027344 60.476562 18.027344 60.46875 18.027344 C 60.460938 23.4375 60.484375 28.855469 60.46875 34.269531 C 60.515625 34.429688 59.890625 34.316406 59.796875 34.339844 C 59.539062 26.148438 59.78125 17.667969 59.703125 9.382812 C 59.691406 9.269531 59.757812 9.074219 59.589844 9.070312 C 58.855469 9.0625 58.121094 9.066406 57.386719 9.0625 C 57.328125 9.046875 57.238281 9.070312 57.21875 9.132812 C 57.179688 10.488281 57.222656 11.847656 57.195312 13.203125 C 57.273438 13.371094 55.996094 13.277344 55.835938 13.308594 C 55.527344 13.289062 55.570312 13.363281 55.566406 13.625 C 55.5625 20.378906 55.542969 27.132812 55.546875 33.890625 C 55.546875 34.117188 55.546875 34.117188 55.324219 34.117188 C 54.980469 34.105469 54.976562 34.171875 54.988281 33.796875 C 54.984375 30.832031 54.984375 27.871094 54.984375 24.90625 C 54.984375 24.003906 54.988281 23.097656 54.988281 22.191406 C 54.988281 22.054688 54.972656 22.042969 54.847656 22.035156 C 53.257812 22.027344 51.671875 22.019531 50.082031 22.019531 C 50.019531 22.019531 49.984375 22.050781 49.984375 22.113281 C 49.976562 23.855469 49.988281 25.597656 49.988281 27.335938 C 49.988281 27.628906 50.007812 27.613281 49.710938 27.617188 C 49.042969 27.617188 48.378906 27.617188 47.710938 27.621094 C 47.578125 27.621094 47.566406 27.628906 47.5625 27.765625 C 47.492188 30.386719 47.546875 33.007812 47.527344 35.628906 C 47.523438 35.714844 47.5 35.742188 47.425781 35.746094 C 47.230469 35.75 47.03125 35.75 46.835938 35.75 C 46.753906 35.746094 46.734375 35.726562 46.730469 35.636719 C 46.691406 32.613281 46.734375 29.59375 46.699219 26.570312 C 46.675781 26.414062 46.769531 26.1875 46.59375 26.101562 C 45.332031 25.371094 44.089844 24.601562 42.816406 23.886719 C 42.753906 23.855469 42.71875 23.875 42.710938 23.941406 C 42.703125 24.503906 42.703125 25.070312 42.699219 25.632812 C 42.695312 27.628906 42.703125 29.628906 42.695312 31.625 C 42.699219 31.785156 42.539062 31.734375 42.4375 31.742188 C 42.246094 31.746094 42.058594 31.746094 41.871094 31.75 C 41.738281 31.753906 41.734375 31.753906 41.726562 31.898438 C 41.714844 32.871094 41.703125 33.84375 41.695312 34.820312 C 41.691406 35.175781 41.695312 35.535156 41.691406 35.894531 C 41.691406 36.023438 41.664062 36.042969 41.539062 36.039062 C 41.386719 36.054688 41.410156 35.929688 41.410156 35.820312 C 41.414062 34.011719 41.402344 32.199219 41.417969 30.390625 C 41.421875 30.269531 41.375 30.203125 41.273438 30.152344 C 40.265625 29.59375 39.277344 28.996094 38.277344 28.425781 C 38.078125 28.285156 38.082031 28.378906 38.089844 28.605469 C 38.082031 30.132812 38.085938 31.660156 38.074219 33.1875 C 38.082031 33.414062 37.824219 33.304688 37.683594 33.324219 C 37.359375 33.320312 37.390625 33.277344 37.386719 33.597656 C 37.378906 34.316406 37.375 35.035156 37.363281 35.75 C 37.375 36.3125 37.210938 36.097656 36.722656 36.125 C 36.632812 36.121094 36.609375 36.09375 36.605469 35.992188 C 36.601562 35.753906 36.601562 35.515625 36.601562 35.273438 C 36.597656 35.15625 36.585938 35.140625 36.46875 35.140625 C 35.941406 35.136719 35.410156 35.132812 34.878906 35.128906 C 34.761719 35.128906 34.746094 35.148438 34.742188 35.261719 C 34.730469 35.5 34.722656 35.738281 34.71875 35.976562 C 34.710938 36.289062 34.726562 36.261719 34.417969 36.257812 C 34.160156 36.28125 33.425781 36.175781 33.472656 36.347656 C 33.53125 36.898438 33.269531 36.988281 33.964844 36.960938 C 48.753906 37.105469 63.574219 36.742188 78.351562 37.101562 C 81.269531 37.492188 84.171875 38.015625 86.96875 38.964844 C 87.847656 39.265625 88.726562 39.5625 89.582031 39.933594 C 89.765625 40.011719 89.929688 40.023438 90.121094 39.953125 C 90.605469 39.785156 91.097656 39.644531 91.585938 39.496094 C 91.679688 39.464844 91.785156 39.472656 91.851562 39.386719 C 90.089844 38.203125 88 37.648438 86.011719 36.996094 C 87.191406 36.941406 88.382812 36.996094 89.566406 36.976562 C 90.085938 36.980469 90.554688 37.226562 91.039062 37.382812 C 91.683594 37.613281 92.324219 37.851562 92.941406 38.140625 C 93.300781 38.261719 93.863281 38.722656 94.210938 38.554688 C 94.636719 38.382812 95.058594 38.191406 95.507812 38.078125 C 95.582031 38.050781 95.585938 37.96875 95.515625 37.933594 Z M 95.515625 37.933594 " fill-opacity="1" fill-rule="nonzero"/></g><g clip-path="url(#1a65759298)"><path fill="#212932" d="M 79.882812 43.171875 C 71.769531 40.117188 63.0625 39.269531 54.480469 38.574219 C 47.859375 38.070312 41.238281 37.523438 34.613281 37.082031 C 34.613281 37.082031 34.613281 37.085938 34.613281 37.085938 C 34.480469 37.09375 34.339844 37.070312 34.210938 37.101562 C 43.238281 38.410156 52.335938 39.480469 61.257812 41.464844 C 65.492188 42.378906 69.675781 43.527344 73.773438 44.941406 C 73.894531 44.980469 74.003906 44.988281 74.121094 44.953125 C 75.222656 44.625 76.324219 44.289062 77.429688 43.960938 C 78.214844 43.726562 79 43.5 79.785156 43.265625 C 79.828125 43.25 79.886719 43.242188 79.898438 43.191406 C 79.902344 43.1875 79.890625 43.175781 79.882812 43.171875 Z M 79.882812 43.171875 " fill-opacity="1" fill-rule="nonzero"/></g><g fill="#212932" fill-opacity="1"><g transform="translate(37.450631, 45.040377)"><g><path d="M 1.71875 0.046875 C 1.539062 0.046875 1.363281 0.0195312 1.1875 -0.03125 C 1.007812 -0.0820312 0.847656 -0.15625 0.703125 -0.25 C 0.554688 -0.351562 0.429688 -0.484375 0.328125 -0.640625 C 0.234375 -0.796875 0.164062 -0.972656 0.125 -1.171875 L 0.875 -1.359375 C 0.894531 -1.191406 0.941406 -1.050781 1.015625 -0.9375 C 1.097656 -0.832031 1.203125 -0.75 1.328125 -0.6875 C 1.453125 -0.632812 1.585938 -0.609375 1.734375 -0.609375 C 1.890625 -0.609375 2.015625 -0.628906 2.109375 -0.671875 C 2.210938 -0.722656 2.289062 -0.789062 2.34375 -0.875 C 2.394531 -0.957031 2.421875 -1.046875 2.421875 -1.140625 C 2.421875 -1.253906 2.390625 -1.347656 2.328125 -1.421875 C 2.273438 -1.492188 2.203125 -1.554688 2.109375 -1.609375 C 2.015625 -1.671875 1.90625 -1.722656 1.78125 -1.765625 C 1.664062 -1.816406 1.539062 -1.867188 1.40625 -1.921875 C 1.28125 -1.972656 1.15625 -2.03125 1.03125 -2.09375 C 0.914062 -2.15625 0.8125 -2.226562 0.71875 -2.3125 C 0.625 -2.40625 0.546875 -2.515625 0.484375 -2.640625 C 0.429688 -2.765625 0.40625 -2.910156 0.40625 -3.078125 C 0.40625 -3.253906 0.4375 -3.414062 0.5 -3.5625 C 0.570312 -3.707031 0.671875 -3.828125 0.796875 -3.921875 C 0.921875 -4.023438 1.0625 -4.097656 1.21875 -4.140625 C 1.375 -4.191406 1.535156 -4.21875 1.703125 -4.21875 C 1.960938 -4.21875 2.203125 -4.160156 2.421875 -4.046875 C 2.648438 -3.929688 2.832031 -3.75 2.96875 -3.5 L 2.359375 -3.109375 C 2.285156 -3.253906 2.1875 -3.363281 2.0625 -3.4375 C 1.945312 -3.519531 1.820312 -3.5625 1.6875 -3.5625 C 1.582031 -3.5625 1.488281 -3.539062 1.40625 -3.5 C 1.332031 -3.46875 1.269531 -3.414062 1.21875 -3.34375 C 1.175781 -3.28125 1.15625 -3.203125 1.15625 -3.109375 C 1.15625 -3.015625 1.179688 -2.929688 1.234375 -2.859375 C 1.296875 -2.785156 1.375 -2.722656 1.46875 -2.671875 C 1.5625 -2.617188 1.664062 -2.570312 1.78125 -2.53125 C 1.90625 -2.488281 2.03125 -2.441406 2.15625 -2.390625 C 2.289062 -2.335938 2.414062 -2.28125 2.53125 -2.21875 C 2.65625 -2.15625 2.765625 -2.078125 2.859375 -1.984375 C 2.953125 -1.890625 3.023438 -1.78125 3.078125 -1.65625 C 3.140625 -1.53125 3.171875 -1.382812 3.171875 -1.21875 C 3.171875 -1.019531 3.128906 -0.84375 3.046875 -0.6875 C 2.972656 -0.53125 2.867188 -0.394531 2.734375 -0.28125 C 2.609375 -0.175781 2.457031 -0.09375 2.28125 -0.03125 C 2.101562 0.0195312 1.914062 0.046875 1.71875 0.046875 Z M 1.71875 0.046875 "/></g></g></g><g fill="#212932" fill-opacity="1"><g transform="translate(43.089702, 45.040377)"><g><path d="M 0.53125 0 L 0.53125 -4.15625 L 1.28125 -4.15625 L 1.28125 0 Z M 0.53125 0 "/></g></g></g><g fill="#212932" fill-opacity="1"><g transform="translate(47.201219, 45.040377)"><g><path d="M 0.53125 0 L 0.53125 -4.15625 L 1.28125 -4.15625 L 3.03125 -1.25 L 3.03125 -4.15625 L 3.75 -4.15625 L 3.75 0 L 3 0 L 1.25 -2.921875 L 1.25 0 Z M 0.53125 0 "/></g></g></g><g fill="#212932" fill-opacity="1"><g transform="translate(53.773305, 45.040377)"><g><path d="M 2.25 0.0625 C 1.976562 0.0625 1.734375 0.0234375 1.515625 -0.046875 C 1.304688 -0.128906 1.117188 -0.234375 0.953125 -0.359375 C 0.796875 -0.492188 0.660156 -0.648438 0.546875 -0.828125 C 0.441406 -1.015625 0.363281 -1.210938 0.3125 -1.421875 C 0.257812 -1.628906 0.234375 -1.847656 0.234375 -2.078125 C 0.234375 -2.304688 0.257812 -2.523438 0.3125 -2.734375 C 0.363281 -2.953125 0.441406 -3.148438 0.546875 -3.328125 C 0.660156 -3.503906 0.796875 -3.660156 0.953125 -3.796875 C 1.109375 -3.929688 1.296875 -4.035156 1.515625 -4.109375 C 1.734375 -4.191406 1.976562 -4.234375 2.25 -4.234375 C 2.519531 -4.234375 2.769531 -4.1875 3 -4.09375 C 3.238281 -4 3.445312 -3.863281 3.625 -3.6875 C 3.8125 -3.507812 3.957031 -3.289062 4.0625 -3.03125 L 3.375 -2.75 C 3.320312 -2.9375 3.238281 -3.082031 3.125 -3.1875 C 3.019531 -3.300781 2.890625 -3.382812 2.734375 -3.4375 C 2.585938 -3.488281 2.425781 -3.515625 2.25 -3.515625 C 2.03125 -3.515625 1.835938 -3.476562 1.671875 -3.40625 C 1.515625 -3.332031 1.382812 -3.226562 1.28125 -3.09375 C 1.175781 -2.96875 1.097656 -2.820312 1.046875 -2.65625 C 1.003906 -2.488281 0.984375 -2.304688 0.984375 -2.109375 C 0.984375 -1.898438 1.003906 -1.707031 1.046875 -1.53125 C 1.097656 -1.351562 1.175781 -1.195312 1.28125 -1.0625 C 1.382812 -0.9375 1.515625 -0.835938 1.671875 -0.765625 C 1.835938 -0.691406 2.03125 -0.65625 2.25 -0.65625 C 2.519531 -0.65625 2.75 -0.710938 2.9375 -0.828125 C 3.125 -0.941406 3.273438 -1.140625 3.390625 -1.421875 L 4.078125 -1.140625 C 3.960938 -0.878906 3.816406 -0.660156 3.640625 -0.484375 C 3.460938 -0.304688 3.253906 -0.171875 3.015625 -0.078125 C 2.785156 0.015625 2.53125 0.0625 2.25 0.0625 Z M 2.25 0.0625 "/></g></g></g><g fill="#212932" fill-opacity="1"><g transform="translate(60.280639, 45.040377)"><g><path d="M 0.53125 0 L 0.53125 -4.15625 L 3.296875 -4.15625 L 3.296875 -3.46875 L 1.28125 -3.46875 L 1.28125 -2.421875 L 3.171875 -2.421875 L 3.171875 -1.734375 L 1.28125 -1.734375 L 1.28125 -0.703125 L 3.296875 -0.703125 L 3.296875 0 Z M 0.53125 0 "/></g></g></g><g fill="#212932" fill-opacity="1"><g transform="translate(66.237582, 45.040377)"><g/></g></g><g fill="#212932" fill-opacity="1"><g transform="translate(69.978248, 45.040377)"><g><path d="M 0.140625 0 L 0.140625 -0.59375 C 0.140625 -0.59375 0.171875 -0.613281 0.234375 -0.65625 C 0.304688 -0.695312 0.394531 -0.753906 0.5 -0.828125 C 0.601562 -0.898438 0.722656 -0.984375 0.859375 -1.078125 C 0.992188 -1.171875 1.128906 -1.273438 1.265625 -1.390625 C 1.410156 -1.503906 1.546875 -1.625 1.671875 -1.75 C 1.796875 -1.875 1.90625 -2 2 -2.125 C 2.101562 -2.257812 2.1875 -2.394531 2.25 -2.53125 C 2.3125 -2.664062 2.34375 -2.800781 2.34375 -2.9375 C 2.34375 -3.050781 2.320312 -3.15625 2.28125 -3.25 C 2.238281 -3.34375 2.171875 -3.414062 2.078125 -3.46875 C 1.992188 -3.519531 1.882812 -3.546875 1.75 -3.546875 C 1.613281 -3.546875 1.5 -3.519531 1.40625 -3.46875 C 1.320312 -3.414062 1.25 -3.34375 1.1875 -3.25 C 1.132812 -3.164062 1.09375 -3.070312 1.0625 -2.96875 C 1.039062 -2.863281 1.03125 -2.753906 1.03125 -2.640625 L 0.296875 -2.6875 C 0.296875 -2.882812 0.328125 -3.070312 0.390625 -3.25 C 0.453125 -3.4375 0.546875 -3.601562 0.671875 -3.75 C 0.796875 -3.894531 0.945312 -4.007812 1.125 -4.09375 C 1.3125 -4.175781 1.519531 -4.21875 1.75 -4.21875 C 1.9375 -4.21875 2.109375 -4.1875 2.265625 -4.125 C 2.429688 -4.0625 2.578125 -3.972656 2.703125 -3.859375 C 2.828125 -3.753906 2.921875 -3.625 2.984375 -3.46875 C 3.054688 -3.320312 3.09375 -3.160156 3.09375 -2.984375 C 3.09375 -2.828125 3.0625 -2.671875 3 -2.515625 C 2.945312 -2.359375 2.875 -2.207031 2.78125 -2.0625 C 2.695312 -1.914062 2.597656 -1.773438 2.484375 -1.640625 C 2.367188 -1.515625 2.25 -1.394531 2.125 -1.28125 C 1.988281 -1.144531 1.851562 -1.023438 1.71875 -0.921875 C 1.582031 -0.816406 1.460938 -0.734375 1.359375 -0.671875 L 3.296875 -0.671875 L 3.296875 0 Z M 0.140625 0 "/></g></g></g><g fill="#212932" fill-opacity="1"><g transform="translate(75.767427, 45.040377)"><g><path d="M 1.78125 0.0625 C 1.5625 0.0625 1.367188 0.03125 1.203125 -0.03125 C 1.035156 -0.09375 0.890625 -0.179688 0.765625 -0.296875 C 0.640625 -0.410156 0.53125 -0.535156 0.4375 -0.671875 C 0.351562 -0.816406 0.285156 -0.96875 0.234375 -1.125 C 0.179688 -1.289062 0.144531 -1.453125 0.125 -1.609375 C 0.101562 -1.773438 0.09375 -1.929688 0.09375 -2.078125 C 0.09375 -2.222656 0.101562 -2.378906 0.125 -2.546875 C 0.144531 -2.710938 0.179688 -2.875 0.234375 -3.03125 C 0.285156 -3.1875 0.351562 -3.335938 0.4375 -3.484375 C 0.519531 -3.628906 0.625 -3.753906 0.75 -3.859375 C 0.875 -3.972656 1.015625 -4.0625 1.171875 -4.125 C 1.335938 -4.195312 1.523438 -4.234375 1.734375 -4.234375 C 1.960938 -4.234375 2.164062 -4.191406 2.34375 -4.109375 C 2.53125 -4.023438 2.691406 -3.910156 2.828125 -3.765625 C 2.960938 -3.628906 3.070312 -3.46875 3.15625 -3.28125 C 3.25 -3.09375 3.316406 -2.894531 3.359375 -2.6875 C 3.398438 -2.488281 3.421875 -2.285156 3.421875 -2.078125 C 3.421875 -1.867188 3.398438 -1.660156 3.359375 -1.453125 C 3.316406 -1.253906 3.25 -1.0625 3.15625 -0.875 C 3.070312 -0.695312 2.960938 -0.535156 2.828125 -0.390625 C 2.703125 -0.253906 2.550781 -0.144531 2.375 -0.0625 C 2.195312 0.0195312 2 0.0625 1.78125 0.0625 Z M 1.765625 -0.640625 C 1.890625 -0.640625 2 -0.664062 2.09375 -0.71875 C 2.1875 -0.78125 2.269531 -0.859375 2.34375 -0.953125 C 2.414062 -1.054688 2.472656 -1.171875 2.515625 -1.296875 C 2.554688 -1.421875 2.585938 -1.550781 2.609375 -1.6875 C 2.628906 -1.820312 2.640625 -1.957031 2.640625 -2.09375 C 2.640625 -2.21875 2.628906 -2.347656 2.609375 -2.484375 C 2.585938 -2.617188 2.550781 -2.75 2.5 -2.875 C 2.457031 -3 2.398438 -3.109375 2.328125 -3.203125 C 2.265625 -3.296875 2.179688 -3.367188 2.078125 -3.421875 C 1.972656 -3.484375 1.859375 -3.515625 1.734375 -3.515625 C 1.609375 -3.515625 1.492188 -3.484375 1.390625 -3.421875 C 1.285156 -3.367188 1.195312 -3.296875 1.125 -3.203125 C 1.0625 -3.109375 1.003906 -3 0.953125 -2.875 C 0.910156 -2.75 0.878906 -2.617188 0.859375 -2.484375 C 0.835938 -2.347656 0.828125 -2.210938 0.828125 -2.078125 C 0.828125 -1.941406 0.835938 -1.804688 0.859375 -1.671875 C 0.878906 -1.535156 0.910156 -1.40625 0.953125 -1.28125 C 1.003906 -1.164062 1.066406 -1.054688 1.140625 -0.953125 C 1.210938 -0.859375 1.300781 -0.78125 1.40625 -0.71875 C 1.507812 -0.664062 1.628906 -0.640625 1.765625 -0.640625 Z M 1.765625 -0.640625 "/></g></g></g><g fill="#212932" fill-opacity="1"><g transform="translate(81.556606, 45.040377)"><g><path d="M 1.78125 0.0625 C 1.5625 0.0625 1.367188 0.03125 1.203125 -0.03125 C 1.035156 -0.09375 0.890625 -0.179688 0.765625 -0.296875 C 0.640625 -0.410156 0.53125 -0.535156 0.4375 -0.671875 C 0.351562 -0.816406 0.285156 -0.96875 0.234375 -1.125 C 0.179688 -1.289062 0.144531 -1.453125 0.125 -1.609375 C 0.101562 -1.773438 0.09375 -1.929688 0.09375 -2.078125 C 0.09375 -2.222656 0.101562 -2.378906 0.125 -2.546875 C 0.144531 -2.710938 0.179688 -2.875 0.234375 -3.03125 C 0.285156 -3.1875 0.351562 -3.335938 0.4375 -3.484375 C 0.519531 -3.628906 0.625 -3.753906 0.75 -3.859375 C 0.875 -3.972656 1.015625 -4.0625 1.171875 -4.125 C 1.335938 -4.195312 1.523438 -4.234375 1.734375 -4.234375 C 1.960938 -4.234375 2.164062 -4.191406 2.34375 -4.109375 C 2.53125 -4.023438 2.691406 -3.910156 2.828125 -3.765625 C 2.960938 -3.628906 3.070312 -3.46875 3.15625 -3.28125 C 3.25 -3.09375 3.316406 -2.894531 3.359375 -2.6875 C 3.398438 -2.488281 3.421875 -2.285156 3.421875 -2.078125 C 3.421875 -1.867188 3.398438 -1.660156 3.359375 -1.453125 C 3.316406 -1.253906 3.25 -1.0625 3.15625 -0.875 C 3.070312 -0.695312 2.960938 -0.535156 2.828125 -0.390625 C 2.703125 -0.253906 2.550781 -0.144531 2.375 -0.0625 C 2.195312 0.0195312 2 0.0625 1.78125 0.0625 Z M 1.765625 -0.640625 C 1.890625 -0.640625 2 -0.664062 2.09375 -0.71875 C 2.1875 -0.78125 2.269531 -0.859375 2.34375 -0.953125 C 2.414062 -1.054688 2.472656 -1.171875 2.515625 -1.296875 C 2.554688 -1.421875 2.585938 -1.550781 2.609375 -1.6875 C 2.628906 -1.820312 2.640625 -1.957031 2.640625 -2.09375 C 2.640625 -2.21875 2.628906 -2.347656 2.609375 -2.484375 C 2.585938 -2.617188 2.550781 -2.75 2.5 -2.875 C 2.457031 -3 2.398438 -3.109375 2.328125 -3.203125 C 2.265625 -3.296875 2.179688 -3.367188 2.078125 -3.421875 C 1.972656 -3.484375 1.859375 -3.515625 1.734375 -3.515625 C 1.609375 -3.515625 1.492188 -3.484375 1.390625 -3.421875 C 1.285156 -3.367188 1.195312 -3.296875 1.125 -3.203125 C 1.0625 -3.109375 1.003906 -3 0.953125 -2.875 C 0.910156 -2.75 0.878906 -2.617188 0.859375 -2.484375 C 0.835938 -2.347656 0.828125 -2.210938 0.828125 -2.078125 C 0.828125 -1.941406 0.835938 -1.804688 0.859375 -1.671875 C 0.878906 -1.535156 0.910156 -1.40625 0.953125 -1.28125 C 1.003906 -1.164062 1.066406 -1.054688 1.140625 -0.953125 C 1.210938 -0.859375 1.300781 -0.78125 1.40625 -0.71875 C 1.507812 -0.664062 1.628906 -0.640625 1.765625 -0.640625 Z M 1.765625 -0.640625 "/></g></g></g><g fill="#212932" fill-opacity="1"><g transform="translate(87.345785, 45.040377)"><g><path d="M 1.953125 0 L 1.953125 -0.984375 L 0.03125 -0.984375 L 0.03125 -1.40625 L 2.0625 -4.15625 L 2.6875 -4.15625 L 2.6875 -1.65625 L 3.34375 -1.65625 L 3.34375 -0.984375 L 2.6875 -0.984375 L 2.6875 0 Z M 0.984375 -1.65625 L 1.953125 -1.65625 L 1.953125 -3.015625 Z M 0.984375 -1.65625 "/></g></g></g><g fill="#212932" fill-opacity="1"><g transform="translate(96.956884, 28.938286)"><g><path d="M 0.109375 0 L 5.328125 -13.015625 L 7.078125 -13.015625 L 12.25 0 L 9.734375 0 L 8.734375 -2.828125 L 3.671875 -2.828125 L 2.65625 0 Z M 4.46875 -4.828125 L 7.9375 -4.828125 L 6.203125 -9.578125 Z M 4.46875 -4.828125 "/></g></g></g><g fill="#212932" fill-opacity="1"><g transform="translate(109.765993, 28.217539)"><g><path d="M 2.640625 0.078125 C 2.359375 0.078125 2.082031 0.0390625 1.8125 -0.03125 C 1.539062 -0.113281 1.289062 -0.234375 1.0625 -0.390625 C 0.84375 -0.546875 0.65625 -0.738281 0.5 -0.96875 C 0.351562 -1.207031 0.253906 -1.484375 0.203125 -1.796875 L 1.34375 -2.078125 C 1.363281 -1.816406 1.4375 -1.601562 1.5625 -1.4375 C 1.6875 -1.269531 1.84375 -1.144531 2.03125 -1.0625 C 2.21875 -0.976562 2.425781 -0.9375 2.65625 -0.9375 C 2.882812 -0.9375 3.078125 -0.972656 3.234375 -1.046875 C 3.390625 -1.117188 3.503906 -1.21875 3.578125 -1.34375 C 3.660156 -1.46875 3.703125 -1.601562 3.703125 -1.75 C 3.703125 -1.914062 3.65625 -2.054688 3.5625 -2.171875 C 3.476562 -2.285156 3.363281 -2.382812 3.21875 -2.46875 C 3.070312 -2.5625 2.90625 -2.644531 2.71875 -2.71875 C 2.539062 -2.789062 2.351562 -2.863281 2.15625 -2.9375 C 1.96875 -3.019531 1.78125 -3.109375 1.59375 -3.203125 C 1.414062 -3.296875 1.253906 -3.410156 1.109375 -3.546875 C 0.960938 -3.679688 0.84375 -3.84375 0.75 -4.03125 C 0.664062 -4.21875 0.625 -4.441406 0.625 -4.703125 C 0.625 -4.984375 0.675781 -5.234375 0.78125 -5.453125 C 0.882812 -5.671875 1.03125 -5.851562 1.21875 -6 C 1.40625 -6.144531 1.613281 -6.253906 1.84375 -6.328125 C 2.082031 -6.410156 2.335938 -6.453125 2.609375 -6.453125 C 3.003906 -6.453125 3.367188 -6.363281 3.703125 -6.1875 C 4.046875 -6.007812 4.328125 -5.726562 4.546875 -5.34375 L 3.59375 -4.765625 C 3.488281 -4.972656 3.34375 -5.132812 3.15625 -5.25 C 2.976562 -5.375 2.78125 -5.4375 2.5625 -5.4375 C 2.414062 -5.4375 2.28125 -5.40625 2.15625 -5.34375 C 2.039062 -5.289062 1.945312 -5.210938 1.875 -5.109375 C 1.800781 -5.003906 1.765625 -4.890625 1.765625 -4.765625 C 1.765625 -4.609375 1.804688 -4.476562 1.890625 -4.375 C 1.984375 -4.269531 2.101562 -4.175781 2.25 -4.09375 C 2.394531 -4.007812 2.554688 -3.929688 2.734375 -3.859375 C 2.921875 -3.796875 3.109375 -3.722656 3.296875 -3.640625 C 3.492188 -3.566406 3.6875 -3.476562 3.875 -3.375 C 4.0625 -3.28125 4.226562 -3.164062 4.375 -3.03125 C 4.519531 -2.894531 4.632812 -2.726562 4.71875 -2.53125 C 4.800781 -2.34375 4.84375 -2.117188 4.84375 -1.859375 C 4.84375 -1.554688 4.785156 -1.285156 4.671875 -1.046875 C 4.554688 -0.804688 4.394531 -0.601562 4.1875 -0.4375 C 3.988281 -0.269531 3.753906 -0.140625 3.484375 -0.046875 C 3.222656 0.0351562 2.941406 0.078125 2.640625 0.078125 Z M 2.640625 0.078125 "/></g></g></g><g fill="#212932" fill-opacity="1"><g transform="translate(116.45856, 28.217539)"><g><path d="M 2.078125 0 L 2.078125 -5.34375 L 0.09375 -5.34375 L 0.09375 -6.359375 L 5.21875 -6.359375 L 5.21875 -5.34375 L 3.234375 -5.34375 L 3.234375 0 Z M 2.078125 0 "/></g></g></g><g fill="#212932" fill-opacity="1"><g transform="translate(123.344612, 28.217539)"><g><path d="M 0.046875 0 L 2.609375 -6.359375 L 3.453125 -6.359375 L 5.984375 0 L 4.765625 0 L 4.265625 -1.375 L 1.796875 -1.375 L 1.296875 0 Z M 2.1875 -2.359375 L 3.875 -2.359375 L 3.03125 -4.6875 Z M 2.1875 -2.359375 "/></g></g></g><g fill="#212932" fill-opacity="1"><g transform="translate(130.964109, 28.217539)"><g><path d="M 0.8125 0.015625 L 0.8125 -6.359375 L 2.875 -6.359375 C 3.175781 -6.359375 3.457031 -6.316406 3.71875 -6.234375 C 3.988281 -6.148438 4.222656 -6.023438 4.421875 -5.859375 C 4.617188 -5.703125 4.773438 -5.507812 4.890625 -5.28125 C 5.015625 -5.050781 5.078125 -4.785156 5.078125 -4.484375 C 5.078125 -4.222656 5.023438 -3.984375 4.921875 -3.765625 C 4.816406 -3.546875 4.664062 -3.351562 4.46875 -3.1875 C 4.28125 -3.03125 4.066406 -2.910156 3.828125 -2.828125 L 5.609375 0.015625 L 4.296875 0.015625 L 2.734375 -2.71875 L 1.96875 -2.71875 L 1.96875 0.015625 Z M 1.96875 -3.65625 L 2.984375 -3.65625 C 3.285156 -3.664062 3.519531 -3.742188 3.6875 -3.890625 C 3.863281 -4.035156 3.953125 -4.226562 3.953125 -4.46875 C 3.953125 -4.726562 3.851562 -4.9375 3.65625 -5.09375 C 3.46875 -5.257812 3.210938 -5.34375 2.890625 -5.34375 L 1.96875 -5.34375 Z M 1.96875 -3.65625 "/></g></g></g><g fill="#212932" fill-opacity="1"><g transform="translate(142.482204, 28.938286)"><g><path d="M 0.109375 0 L 5.328125 -13.015625 L 7.078125 -13.015625 L 12.25 0 L 9.734375 0 L 8.734375 -2.828125 L 3.671875 -2.828125 L 2.65625 0 Z M 4.46875 -4.828125 L 7.9375 -4.828125 L 6.203125 -9.578125 Z M 4.46875 -4.828125 "/></g></g></g><g fill="#212932" fill-opacity="1"><g transform="translate(154.694846, 28.217539)"><g><path d="M 2.640625 0.078125 C 2.359375 0.078125 2.082031 0.0390625 1.8125 -0.03125 C 1.539062 -0.113281 1.289062 -0.234375 1.0625 -0.390625 C 0.84375 -0.546875 0.65625 -0.738281 0.5 -0.96875 C 0.351562 -1.207031 0.253906 -1.484375 0.203125 -1.796875 L 1.34375 -2.078125 C 1.363281 -1.816406 1.4375 -1.601562 1.5625 -1.4375 C 1.6875 -1.269531 1.84375 -1.144531 2.03125 -1.0625 C 2.21875 -0.976562 2.425781 -0.9375 2.65625 -0.9375 C 2.882812 -0.9375 3.078125 -0.972656 3.234375 -1.046875 C 3.390625 -1.117188 3.503906 -1.21875 3.578125 -1.34375 C 3.660156 -1.46875 3.703125 -1.601562 3.703125 -1.75 C 3.703125 -1.914062 3.65625 -2.054688 3.5625 -2.171875 C 3.476562 -2.285156 3.363281 -2.382812 3.21875 -2.46875 C 3.070312 -2.5625 2.90625 -2.644531 2.71875 -2.71875 C 2.539062 -2.789062 2.351562 -2.863281 2.15625 -2.9375 C 1.96875 -3.019531 1.78125 -3.109375 1.59375 -3.203125 C 1.414062 -3.296875 1.253906 -3.410156 1.109375 -3.546875 C 0.960938 -3.679688 0.84375 -3.84375 0.75 -4.03125 C 0.664062 -4.21875 0.625 -4.441406 0.625 -4.703125 C 0.625 -4.984375 0.675781 -5.234375 0.78125 -5.453125 C 0.882812 -5.671875 1.03125 -5.851562 1.21875 -6 C 1.40625 -6.144531 1.613281 -6.253906 1.84375 -6.328125 C 2.082031 -6.410156 2.335938 -6.453125 2.609375 -6.453125 C 3.003906 -6.453125 3.367188 -6.363281 3.703125 -6.1875 C 4.046875 -6.007812 4.328125 -5.726562 4.546875 -5.34375 L 3.59375 -4.765625 C 3.488281 -4.972656 3.34375 -5.132812 3.15625 -5.25 C 2.976562 -5.375 2.78125 -5.4375 2.5625 -5.4375 C 2.414062 -5.4375 2.28125 -5.40625 2.15625 -5.34375 C 2.039062 -5.289062 1.945312 -5.210938 1.875 -5.109375 C 1.800781 -5.003906 1.765625 -4.890625 1.765625 -4.765625 C 1.765625 -4.609375 1.804688 -4.476562 1.890625 -4.375 C 1.984375 -4.269531 2.101562 -4.175781 2.25 -4.09375 C 2.394531 -4.007812 2.554688 -3.929688 2.734375 -3.859375 C 2.921875 -3.796875 3.109375 -3.722656 3.296875 -3.640625 C 3.492188 -3.566406 3.6875 -3.476562 3.875 -3.375 C 4.0625 -3.28125 4.226562 -3.164062 4.375 -3.03125 C 4.519531 -2.894531 4.632812 -2.726562 4.71875 -2.53125 C 4.800781 -2.34375 4.84375 -2.117188 4.84375 -1.859375 C 4.84375 -1.554688 4.785156 -1.285156 4.671875 -1.046875 C 4.554688 -0.804688 4.394531 -0.601562 4.1875 -0.4375 C 3.988281 -0.269531 3.753906 -0.140625 3.484375 -0.046875 C 3.222656 0.0351562 2.941406 0.078125 2.640625 0.078125 Z M 2.640625 0.078125 "/></g></g></g><g fill="#212932" fill-opacity="1"><g transform="translate(161.387412, 28.217539)"><g><path d="M 2.640625 0.078125 C 2.359375 0.078125 2.082031 0.0390625 1.8125 -0.03125 C 1.539062 -0.113281 1.289062 -0.234375 1.0625 -0.390625 C 0.84375 -0.546875 0.65625 -0.738281 0.5 -0.96875 C 0.351562 -1.207031 0.253906 -1.484375 0.203125 -1.796875 L 1.34375 -2.078125 C 1.363281 -1.816406 1.4375 -1.601562 1.5625 -1.4375 C 1.6875 -1.269531 1.84375 -1.144531 2.03125 -1.0625 C 2.21875 -0.976562 2.425781 -0.9375 2.65625 -0.9375 C 2.882812 -0.9375 3.078125 -0.972656 3.234375 -1.046875 C 3.390625 -1.117188 3.503906 -1.21875 3.578125 -1.34375 C 3.660156 -1.46875 3.703125 -1.601562 3.703125 -1.75 C 3.703125 -1.914062 3.65625 -2.054688 3.5625 -2.171875 C 3.476562 -2.285156 3.363281 -2.382812 3.21875 -2.46875 C 3.070312 -2.5625 2.90625 -2.644531 2.71875 -2.71875 C 2.539062 -2.789062 2.351562 -2.863281 2.15625 -2.9375 C 1.96875 -3.019531 1.78125 -3.109375 1.59375 -3.203125 C 1.414062 -3.296875 1.253906 -3.410156 1.109375 -3.546875 C 0.960938 -3.679688 0.84375 -3.84375 0.75 -4.03125 C 0.664062 -4.21875 0.625 -4.441406 0.625 -4.703125 C 0.625 -4.984375 0.675781 -5.234375 0.78125 -5.453125 C 0.882812 -5.671875 1.03125 -5.851562 1.21875 -6 C 1.40625 -6.144531 1.613281 -6.253906 1.84375 -6.328125 C 2.082031 -6.410156 2.335938 -6.453125 2.609375 -6.453125 C 3.003906 -6.453125 3.367188 -6.363281 3.703125 -6.1875 C 4.046875 -6.007812 4.328125 -5.726562 4.546875 -5.34375 L 3.59375 -4.765625 C 3.488281 -4.972656 3.34375 -5.132812 3.15625 -5.25 C 2.976562 -5.375 2.78125 -5.4375 2.5625 -5.4375 C 2.414062 -5.4375 2.28125 -5.40625 2.15625 -5.34375 C 2.039062 -5.289062 1.945312 -5.210938 1.875 -5.109375 C 1.800781 -5.003906 1.765625 -4.890625 1.765625 -4.765625 C 1.765625 -4.609375 1.804688 -4.476562 1.890625 -4.375 C 1.984375 -4.269531 2.101562 -4.175781 2.25 -4.09375 C 2.394531 -4.007812 2.554688 -3.929688 2.734375 -3.859375 C 2.921875 -3.796875 3.109375 -3.722656 3.296875 -3.640625 C 3.492188 -3.566406 3.6875 -3.476562 3.875 -3.375 C 4.0625 -3.28125 4.226562 -3.164062 4.375 -3.03125 C 4.519531 -2.894531 4.632812 -2.726562 4.71875 -2.53125 C 4.800781 -2.34375 4.84375 -2.117188 4.84375 -1.859375 C 4.84375 -1.554688 4.785156 -1.285156 4.671875 -1.046875 C 4.554688 -0.804688 4.394531 -0.601562 4.1875 -0.4375 C 3.988281 -0.269531 3.753906 -0.140625 3.484375 -0.046875 C 3.222656 0.0351562 2.941406 0.078125 2.640625 0.078125 Z M 2.640625 0.078125 "/></g></g></g><g fill="#212932" fill-opacity="1"><g transform="translate(168.079979, 28.217539)"><g><path d="M 3.4375 0.09375 C 3.019531 0.09375 2.644531 0.0351562 2.3125 -0.078125 C 1.976562 -0.191406 1.6875 -0.351562 1.4375 -0.5625 C 1.195312 -0.769531 1 -1.007812 0.84375 -1.28125 C 0.6875 -1.5625 0.566406 -1.863281 0.484375 -2.1875 C 0.410156 -2.507812 0.375 -2.84375 0.375 -3.1875 C 0.375 -3.53125 0.410156 -3.863281 0.484375 -4.1875 C 0.566406 -4.507812 0.6875 -4.804688 0.84375 -5.078125 C 1 -5.359375 1.195312 -5.597656 1.4375 -5.796875 C 1.6875 -6.003906 1.976562 -6.164062 2.3125 -6.28125 C 2.644531 -6.394531 3.019531 -6.453125 3.4375 -6.453125 C 3.851562 -6.453125 4.226562 -6.394531 4.5625 -6.28125 C 4.894531 -6.164062 5.179688 -6.003906 5.421875 -5.796875 C 5.671875 -5.597656 5.875 -5.359375 6.03125 -5.078125 C 6.195312 -4.804688 6.316406 -4.507812 6.390625 -4.1875 C 6.472656 -3.863281 6.515625 -3.53125 6.515625 -3.1875 C 6.515625 -2.84375 6.472656 -2.507812 6.390625 -2.1875 C 6.316406 -1.863281 6.195312 -1.5625 6.03125 -1.28125 C 5.875 -1.007812 5.671875 -0.769531 5.421875 -0.5625 C 5.179688 -0.351562 4.894531 -0.191406 4.5625 -0.078125 C 4.226562 0.0351562 3.851562 0.09375 3.4375 0.09375 Z M 3.4375 -0.921875 C 3.78125 -0.921875 4.066406 -0.976562 4.296875 -1.09375 C 4.535156 -1.21875 4.726562 -1.382812 4.875 -1.59375 C 5.019531 -1.8125 5.125 -2.054688 5.1875 -2.328125 C 5.257812 -2.597656 5.296875 -2.882812 5.296875 -3.1875 C 5.296875 -3.476562 5.257812 -3.757812 5.1875 -4.03125 C 5.125 -4.300781 5.019531 -4.539062 4.875 -4.75 C 4.726562 -4.96875 4.535156 -5.132812 4.296875 -5.25 C 4.066406 -5.375 3.78125 -5.4375 3.4375 -5.4375 C 3.09375 -5.4375 2.800781 -5.375 2.5625 -5.25 C 2.332031 -5.132812 2.144531 -4.96875 2 -4.75 C 1.851562 -4.539062 1.742188 -4.300781 1.671875 -4.03125 C 1.609375 -3.757812 1.578125 -3.476562 1.578125 -3.1875 C 1.578125 -2.882812 1.609375 -2.597656 1.671875 -2.328125 C 1.742188 -2.054688 1.851562 -1.8125 2 -1.59375 C 2.144531 -1.382812 2.332031 -1.21875 2.5625 -1.09375 C 2.800781 -0.976562 3.09375 -0.921875 3.4375 -0.921875 Z M 3.4375 -0.921875 "/></g></g></g><g fill="#212932" fill-opacity="1"><g transform="translate(176.531914, 28.217539)"><g><path d="M 3.453125 0.09375 C 3.035156 0.09375 2.660156 0.0351562 2.328125 -0.078125 C 1.992188 -0.191406 1.703125 -0.347656 1.453125 -0.546875 C 1.210938 -0.753906 1.007812 -0.992188 0.84375 -1.265625 C 0.6875 -1.546875 0.566406 -1.847656 0.484375 -2.171875 C 0.410156 -2.492188 0.375 -2.832031 0.375 -3.1875 C 0.375 -3.53125 0.410156 -3.863281 0.484375 -4.1875 C 0.566406 -4.507812 0.6875 -4.804688 0.84375 -5.078125 C 1.007812 -5.359375 1.210938 -5.601562 1.453125 -5.8125 C 1.691406 -6.019531 1.976562 -6.179688 2.3125 -6.296875 C 2.644531 -6.410156 3.019531 -6.46875 3.4375 -6.46875 C 3.851562 -6.46875 4.238281 -6.394531 4.59375 -6.25 C 4.957031 -6.113281 5.273438 -5.910156 5.546875 -5.640625 C 5.828125 -5.367188 6.050781 -5.035156 6.21875 -4.640625 L 5.15625 -4.21875 C 5.070312 -4.488281 4.945312 -4.707031 4.78125 -4.875 C 4.613281 -5.050781 4.414062 -5.175781 4.1875 -5.25 C 3.957031 -5.332031 3.707031 -5.375 3.4375 -5.375 C 3.09375 -5.375 2.800781 -5.316406 2.5625 -5.203125 C 2.320312 -5.097656 2.125 -4.945312 1.96875 -4.75 C 1.8125 -4.550781 1.691406 -4.320312 1.609375 -4.0625 C 1.535156 -3.800781 1.5 -3.523438 1.5 -3.234375 C 1.5 -2.910156 1.535156 -2.613281 1.609375 -2.34375 C 1.691406 -2.070312 1.8125 -1.832031 1.96875 -1.625 C 2.125 -1.425781 2.320312 -1.269531 2.5625 -1.15625 C 2.8125 -1.050781 3.109375 -1 3.453125 -1 C 3.859375 -1 4.203125 -1.085938 4.484375 -1.265625 C 4.773438 -1.441406 5.003906 -1.742188 5.171875 -2.171875 L 6.234375 -1.734375 C 6.066406 -1.335938 5.84375 -1.003906 5.5625 -0.734375 C 5.289062 -0.460938 4.972656 -0.253906 4.609375 -0.109375 C 4.253906 0.0234375 3.867188 0.09375 3.453125 0.09375 Z M 3.453125 0.09375 "/></g></g></g><g fill="#212932" fill-opacity="1"><g transform="translate(184.551881, 28.217539)"><g><path d="M 0.8125 0 L 0.8125 -6.359375 L 1.96875 -6.359375 L 1.96875 0 Z M 0.8125 0 "/></g></g></g><g fill="#212932" fill-opacity="1"><g transform="translate(188.909124, 28.217539)"><g><path d="M 0.046875 0 L 2.609375 -6.359375 L 3.453125 -6.359375 L 5.984375 0 L 4.765625 0 L 4.265625 -1.375 L 1.796875 -1.375 L 1.296875 0 Z M 2.1875 -2.359375 L 3.875 -2.359375 L 3.03125 -4.6875 Z M 2.1875 -2.359375 "/></g></g></g><g fill="#212932" fill-opacity="1"><g transform="translate(196.528621, 28.217539)"><g><path d="M 2.078125 0 L 2.078125 -5.34375 L 0.09375 -5.34375 L 0.09375 -6.359375 L 5.21875 -6.359375 L 5.21875 -5.34375 L 3.234375 -5.34375 L 3.234375 0 Z M 2.078125 0 "/></g></g></g><g fill="#212932" fill-opacity="1"><g transform="translate(203.414673, 28.217539)"><g><path d="M 0.8125 0 L 0.8125 -6.359375 L 5.046875 -6.359375 L 5.046875 -5.3125 L 1.96875 -5.3125 L 1.96875 -3.703125 L 4.84375 -3.703125 L 4.84375 -2.65625 L 1.96875 -2.65625 L 1.96875 -1.078125 L 5.046875 -1.078125 L 5.046875 0 Z M 0.8125 0 "/></g></g></g><g fill="#212932" fill-opacity="1"><g transform="translate(210.593203, 28.217539)"><g><path d="M 2.640625 0.078125 C 2.359375 0.078125 2.082031 0.0390625 1.8125 -0.03125 C 1.539062 -0.113281 1.289062 -0.234375 1.0625 -0.390625 C 0.84375 -0.546875 0.65625 -0.738281 0.5 -0.96875 C 0.351562 -1.207031 0.253906 -1.484375 0.203125 -1.796875 L 1.34375 -2.078125 C 1.363281 -1.816406 1.4375 -1.601562 1.5625 -1.4375 C 1.6875 -1.269531 1.84375 -1.144531 2.03125 -1.0625 C 2.21875 -0.976562 2.425781 -0.9375 2.65625 -0.9375 C 2.882812 -0.9375 3.078125 -0.972656 3.234375 -1.046875 C 3.390625 -1.117188 3.503906 -1.21875 3.578125 -1.34375 C 3.660156 -1.46875 3.703125 -1.601562 3.703125 -1.75 C 3.703125 -1.914062 3.65625 -2.054688 3.5625 -2.171875 C 3.476562 -2.285156 3.363281 -2.382812 3.21875 -2.46875 C 3.070312 -2.5625 2.90625 -2.644531 2.71875 -2.71875 C 2.539062 -2.789062 2.351562 -2.863281 2.15625 -2.9375 C 1.96875 -3.019531 1.78125 -3.109375 1.59375 -3.203125 C 1.414062 -3.296875 1.253906 -3.410156 1.109375 -3.546875 C 0.960938 -3.679688 0.84375 -3.84375 0.75 -4.03125 C 0.664062 -4.21875 0.625 -4.441406 0.625 -4.703125 C 0.625 -4.984375 0.675781 -5.234375 0.78125 -5.453125 C 0.882812 -5.671875 1.03125 -5.851562 1.21875 -6 C 1.40625 -6.144531 1.613281 -6.253906 1.84375 -6.328125 C 2.082031 -6.410156 2.335938 -6.453125 2.609375 -6.453125 C 3.003906 -6.453125 3.367188 -6.363281 3.703125 -6.1875 C 4.046875 -6.007812 4.328125 -5.726562 4.546875 -5.34375 L 3.59375 -4.765625 C 3.488281 -4.972656 3.34375 -5.132812 3.15625 -5.25 C 2.976562 -5.375 2.78125 -5.4375 2.5625 -5.4375 C 2.414062 -5.4375 2.28125 -5.40625 2.15625 -5.34375 C 2.039062 -5.289062 1.945312 -5.210938 1.875 -5.109375 C 1.800781 -5.003906 1.765625 -4.890625 1.765625 -4.765625 C 1.765625 -4.609375 1.804688 -4.476562 1.890625 -4.375 C 1.984375 -4.269531 2.101562 -4.175781 2.25 -4.09375 C 2.394531 -4.007812 2.554688 -3.929688 2.734375 -3.859375 C 2.921875 -3.796875 3.109375 -3.722656 3.296875 -3.640625 C 3.492188 -3.566406 3.6875 -3.476562 3.875 -3.375 C 4.0625 -3.28125 4.226562 -3.164062 4.375 -3.03125 C 4.519531 -2.894531 4.632812 -2.726562 4.71875 -2.53125 C 4.800781 -2.34375 4.84375 -2.117188 4.84375 -1.859375 C 4.84375 -1.554688 4.785156 -1.285156 4.671875 -1.046875 C 4.554688 -0.804688 4.394531 -0.601562 4.1875 -0.4375 C 3.988281 -0.269531 3.753906 -0.140625 3.484375 -0.046875 C 3.222656 0.0351562 2.941406 0.078125 2.640625 0.078125 Z M 2.640625 0.078125 "/></g></g></g></svg>