<svg xmlns="http://www.w3.org/2000/svg" xmlns:xlink="http://www.w3.org/1999/xlink" width="335" zoomAndPan="magnify" viewBox="0 0 251.25 48" height="64" preserveAspectRatio="xMidYMid meet" version="1.0"><defs><g/><clipPath id="98546a0029"><path d="M 2.195312 0 L 248.320312 0 L 248.320312 47.019531 L 2.195312 47.019531 Z M 2.195312 0 " clip-rule="nonzero"/></clipPath><clipPath id="ed10232814"><path d="M 5.140625 3.480469 L 59.507812 3.480469 L 59.507812 42.421875 L 5.140625 42.421875 Z M 5.140625 3.480469 " clip-rule="nonzero"/></clipPath></defs><g clip-path="url(#98546a0029)"><path fill="#ffffff" d="M 2.195312 0 L 248.320312 0 L 248.320312 47.019531 L 2.195312 47.019531 Z M 2.195312 0 " fill-opacity="1" fill-rule="nonzero"/><path fill="#000000" d="M 2.195312 0 L 248.320312 0 L 248.320312 47.019531 L 2.195312 47.019531 Z M 2.195312 0 " fill-opacity="1" fill-rule="nonzero"/></g><g clip-path="url(#ed10232814)"><path fill="#f8cf40" d="M 28.054688 27.382812 L 31.820312 27.382812 L 29.9375 24.121094 L 27.375 19.6875 L 20.933594 30.855469 L 18.375 35.28125 L 14.3125 42.316406 L 19.429688 42.316406 L 23.492188 35.28125 L 26.046875 30.855469 Z M 39.296875 7.914062 L 36.734375 3.480469 L 34.179688 7.914062 L 36.734375 12.347656 L 39.296875 16.773438 L 47.417969 30.855469 L 49.980469 35.28125 L 54.042969 42.316406 L 59.160156 42.316406 L 55.097656 35.28125 L 52.542969 30.855469 L 41.851562 12.347656 Z M 40.808594 35.28125 L 44.871094 42.316406 L 49.984375 42.316406 L 45.925781 35.28125 L 43.367188 30.855469 L 37.265625 20.285156 L 34.707031 15.859375 L 32.148438 11.425781 L 30.121094 7.914062 L 27.5625 3.480469 L 25.003906 7.914062 L 22.792969 11.746094 L 11.757812 30.855469 L 9.203125 35.28125 L 5.140625 42.316406 L 10.257812 42.316406 L 14.320312 35.28125 L 16.875 30.855469 L 25.351562 16.175781 L 27.5625 12.347656 L 29.589844 15.859375 L 32.148438 20.285156 L 34.707031 24.71875 L 38.253906 30.855469 L 31.164062 30.855469 L 28.609375 35.28125 Z M 40.808594 35.28125 " fill-opacity="1" fill-rule="evenodd"/></g><g fill="#f8cf40" fill-opacity="1"><g transform="translate(68.487274, 29.71606)"><g><path d="M 4.03125 -1.1875 L 1.453125 -1.1875 L 0.953125 0 L -0.03125 0 L 2.28125 -5.140625 L 3.21875 -5.140625 L 5.53125 0 L 4.53125 0 Z M 3.703125 -1.9375 L 2.734375 -4.1875 L 1.78125 -1.9375 Z M 3.703125 -1.9375 "/></g></g></g><g fill="#f8cf40" fill-opacity="1"><g transform="translate(75.78746, 29.71606)"><g/></g></g><g fill="#f8cf40" fill-opacity="1"><g transform="translate(79.613809, 29.71606)"><g><path d="M 3.0625 0.078125 C 2.550781 0.078125 2.082031 -0.0351562 1.65625 -0.265625 C 1.238281 -0.492188 0.910156 -0.804688 0.671875 -1.203125 C 0.441406 -1.609375 0.328125 -2.066406 0.328125 -2.578125 C 0.328125 -3.078125 0.445312 -3.523438 0.6875 -3.921875 C 0.925781 -4.328125 1.253906 -4.644531 1.671875 -4.875 C 2.085938 -5.101562 2.554688 -5.21875 3.078125 -5.21875 C 3.492188 -5.21875 3.875 -5.144531 4.21875 -5 C 4.570312 -4.851562 4.867188 -4.640625 5.109375 -4.359375 L 4.5 -3.78125 C 4.125 -4.175781 3.664062 -4.375 3.125 -4.375 C 2.769531 -4.375 2.453125 -4.296875 2.171875 -4.140625 C 1.890625 -3.992188 1.671875 -3.78125 1.515625 -3.5 C 1.359375 -3.226562 1.28125 -2.921875 1.28125 -2.578125 C 1.28125 -2.222656 1.359375 -1.90625 1.515625 -1.625 C 1.671875 -1.351562 1.890625 -1.140625 2.171875 -0.984375 C 2.453125 -0.835938 2.769531 -0.765625 3.125 -0.765625 C 3.664062 -0.765625 4.125 -0.96875 4.5 -1.375 L 5.109375 -0.78125 C 4.867188 -0.507812 4.570312 -0.296875 4.21875 -0.140625 C 3.875 0.00390625 3.488281 0.078125 3.0625 0.078125 Z M 3.0625 0.078125 "/></g></g></g><g fill="#f8cf40" fill-opacity="1"><g transform="translate(86.752418, 29.71606)"><g><path d="M 3.09375 0.078125 C 2.570312 0.078125 2.097656 -0.0351562 1.671875 -0.265625 C 1.253906 -0.492188 0.925781 -0.8125 0.6875 -1.21875 C 0.445312 -1.625 0.328125 -2.078125 0.328125 -2.578125 C 0.328125 -3.066406 0.445312 -3.515625 0.6875 -3.921875 C 0.925781 -4.328125 1.253906 -4.644531 1.671875 -4.875 C 2.097656 -5.101562 2.570312 -5.21875 3.09375 -5.21875 C 3.613281 -5.21875 4.082031 -5.101562 4.5 -4.875 C 4.925781 -4.644531 5.257812 -4.328125 5.5 -3.921875 C 5.738281 -3.523438 5.859375 -3.078125 5.859375 -2.578125 C 5.859375 -2.066406 5.738281 -1.609375 5.5 -1.203125 C 5.257812 -0.804688 4.925781 -0.492188 4.5 -0.265625 C 4.082031 -0.0351562 3.613281 0.078125 3.09375 0.078125 Z M 3.09375 -0.765625 C 3.4375 -0.765625 3.742188 -0.835938 4.015625 -0.984375 C 4.285156 -1.140625 4.5 -1.359375 4.65625 -1.640625 C 4.8125 -1.921875 4.890625 -2.234375 4.890625 -2.578125 C 4.890625 -2.910156 4.8125 -3.21875 4.65625 -3.5 C 4.5 -3.78125 4.285156 -3.992188 4.015625 -4.140625 C 3.742188 -4.296875 3.4375 -4.375 3.09375 -4.375 C 2.75 -4.375 2.4375 -4.296875 2.15625 -4.140625 C 1.882812 -3.992188 1.671875 -3.78125 1.515625 -3.5 C 1.359375 -3.21875 1.28125 -2.910156 1.28125 -2.578125 C 1.28125 -2.234375 1.359375 -1.921875 1.515625 -1.640625 C 1.671875 -1.359375 1.882812 -1.140625 2.15625 -0.984375 C 2.4375 -0.835938 2.75 -0.765625 3.09375 -0.765625 Z M 3.09375 -0.765625 "/></g></g></g><g fill="#f8cf40" fill-opacity="1"><g transform="translate(94.735613, 29.71606)"><g><path d="M 5.40625 0 L 5.40625 -3.40625 L 3.71875 -0.59375 L 3.296875 -0.59375 L 1.59375 -3.359375 L 1.59375 0 L 0.6875 0 L 0.6875 -5.140625 L 1.46875 -5.140625 L 3.515625 -1.734375 L 5.515625 -5.140625 L 6.3125 -5.140625 L 6.3125 0 Z M 5.40625 0 "/></g></g></g><g fill="#f8cf40" fill-opacity="1"><g transform="translate(103.548716, 29.71606)"><g><path d="M 2.8125 -5.140625 C 3.25 -5.140625 3.632812 -5.066406 3.96875 -4.921875 C 4.300781 -4.773438 4.554688 -4.5625 4.734375 -4.28125 C 4.910156 -4.007812 5 -3.6875 5 -3.3125 C 5 -2.9375 4.910156 -2.609375 4.734375 -2.328125 C 4.554688 -2.054688 4.300781 -1.847656 3.96875 -1.703125 C 3.632812 -1.554688 3.25 -1.484375 2.8125 -1.484375 L 1.640625 -1.484375 L 1.640625 0 L 0.6875 0 L 0.6875 -5.140625 Z M 2.765625 -2.296875 C 3.179688 -2.296875 3.492188 -2.378906 3.703125 -2.546875 C 3.921875 -2.722656 4.03125 -2.976562 4.03125 -3.3125 C 4.03125 -3.632812 3.921875 -3.882812 3.703125 -4.0625 C 3.492188 -4.238281 3.179688 -4.328125 2.765625 -4.328125 L 1.640625 -4.328125 L 1.640625 -2.296875 Z M 2.765625 -2.296875 "/></g></g></g><g fill="#f8cf40" fill-opacity="1"><g transform="translate(110.679986, 29.71606)"><g><path d="M 0.6875 -5.140625 L 1.640625 -5.140625 L 1.640625 -0.8125 L 4.328125 -0.8125 L 4.328125 0 L 0.6875 0 Z M 0.6875 -5.140625 "/></g></g></g><g fill="#f8cf40" fill-opacity="1"><g transform="translate(116.87853, 29.71606)"><g><path d="M 4.546875 -0.796875 L 4.546875 0 L 0.6875 0 L 0.6875 -5.140625 L 4.4375 -5.140625 L 4.4375 -4.34375 L 1.640625 -4.34375 L 1.640625 -3 L 4.125 -3 L 4.125 -2.21875 L 1.640625 -2.21875 L 1.640625 -0.796875 Z M 4.546875 -0.796875 "/></g></g></g><g fill="#f8cf40" fill-opacity="1"><g transform="translate(123.598516, 29.71606)"><g><path d="M 1.734375 -4.328125 L 0.03125 -4.328125 L 0.03125 -5.140625 L 4.390625 -5.140625 L 4.390625 -4.328125 L 2.6875 -4.328125 L 2.6875 0 L 1.734375 0 Z M 1.734375 -4.328125 "/></g></g></g><g fill="#f8cf40" fill-opacity="1"><g transform="translate(129.81909, 29.71606)"><g><path d="M 4.546875 -0.796875 L 4.546875 0 L 0.6875 0 L 0.6875 -5.140625 L 4.4375 -5.140625 L 4.4375 -4.34375 L 1.640625 -4.34375 L 1.640625 -3 L 4.125 -3 L 4.125 -2.21875 L 1.640625 -2.21875 L 1.640625 -0.796875 Z M 4.546875 -0.796875 "/></g></g></g><g fill="#f8cf40" fill-opacity="1"><g transform="translate(136.539076, 29.71606)"><g/></g></g><g fill="#f8cf40" fill-opacity="1"><g transform="translate(140.365427, 29.71606)"><g><path d="M 3.0625 0.078125 C 2.550781 0.078125 2.082031 -0.0351562 1.65625 -0.265625 C 1.238281 -0.492188 0.910156 -0.804688 0.671875 -1.203125 C 0.441406 -1.609375 0.328125 -2.066406 0.328125 -2.578125 C 0.328125 -3.078125 0.445312 -3.523438 0.6875 -3.921875 C 0.925781 -4.328125 1.253906 -4.644531 1.671875 -4.875 C 2.085938 -5.101562 2.554688 -5.21875 3.078125 -5.21875 C 3.492188 -5.21875 3.875 -5.144531 4.21875 -5 C 4.570312 -4.851562 4.867188 -4.640625 5.109375 -4.359375 L 4.5 -3.78125 C 4.125 -4.175781 3.664062 -4.375 3.125 -4.375 C 2.769531 -4.375 2.453125 -4.296875 2.171875 -4.140625 C 1.890625 -3.992188 1.671875 -3.78125 1.515625 -3.5 C 1.359375 -3.226562 1.28125 -2.921875 1.28125 -2.578125 C 1.28125 -2.222656 1.359375 -1.90625 1.515625 -1.625 C 1.671875 -1.351562 1.890625 -1.140625 2.171875 -0.984375 C 2.453125 -0.835938 2.769531 -0.765625 3.125 -0.765625 C 3.664062 -0.765625 4.125 -0.96875 4.5 -1.375 L 5.109375 -0.78125 C 4.867188 -0.507812 4.570312 -0.296875 4.21875 -0.140625 C 3.875 0.00390625 3.488281 0.078125 3.0625 0.078125 Z M 3.0625 0.078125 "/></g></g></g><g fill="#f8cf40" fill-opacity="1"><g transform="translate(147.504032, 29.71606)"><g><path d="M 3.09375 0.078125 C 2.570312 0.078125 2.097656 -0.0351562 1.671875 -0.265625 C 1.253906 -0.492188 0.925781 -0.8125 0.6875 -1.21875 C 0.445312 -1.625 0.328125 -2.078125 0.328125 -2.578125 C 0.328125 -3.066406 0.445312 -3.515625 0.6875 -3.921875 C 0.925781 -4.328125 1.253906 -4.644531 1.671875 -4.875 C 2.097656 -5.101562 2.570312 -5.21875 3.09375 -5.21875 C 3.613281 -5.21875 4.082031 -5.101562 4.5 -4.875 C 4.925781 -4.644531 5.257812 -4.328125 5.5 -3.921875 C 5.738281 -3.523438 5.859375 -3.078125 5.859375 -2.578125 C 5.859375 -2.066406 5.738281 -1.609375 5.5 -1.203125 C 5.257812 -0.804688 4.925781 -0.492188 4.5 -0.265625 C 4.082031 -0.0351562 3.613281 0.078125 3.09375 0.078125 Z M 3.09375 -0.765625 C 3.4375 -0.765625 3.742188 -0.835938 4.015625 -0.984375 C 4.285156 -1.140625 4.5 -1.359375 4.65625 -1.640625 C 4.8125 -1.921875 4.890625 -2.234375 4.890625 -2.578125 C 4.890625 -2.910156 4.8125 -3.21875 4.65625 -3.5 C 4.5 -3.78125 4.285156 -3.992188 4.015625 -4.140625 C 3.742188 -4.296875 3.4375 -4.375 3.09375 -4.375 C 2.75 -4.375 2.4375 -4.296875 2.15625 -4.140625 C 1.882812 -3.992188 1.671875 -3.78125 1.515625 -3.5 C 1.359375 -3.21875 1.28125 -2.910156 1.28125 -2.578125 C 1.28125 -2.234375 1.359375 -1.921875 1.515625 -1.640625 C 1.671875 -1.359375 1.882812 -1.140625 2.15625 -0.984375 C 2.4375 -0.835938 2.75 -0.765625 3.09375 -0.765625 Z M 3.09375 -0.765625 "/></g></g></g><g fill="#f8cf40" fill-opacity="1"><g transform="translate(155.487228, 29.71606)"><g><path d="M 5.265625 -5.140625 L 5.265625 0 L 4.46875 0 L 1.640625 -3.484375 L 1.640625 0 L 0.6875 0 L 0.6875 -5.140625 L 1.46875 -5.140625 L 4.3125 -1.65625 L 4.3125 -5.140625 Z M 5.265625 -5.140625 "/></g></g></g><g fill="#f8cf40" fill-opacity="1"><g transform="translate(163.235408, 29.71606)"><g><path d="M 2.28125 0.078125 C 1.882812 0.078125 1.5 0.0195312 1.125 -0.09375 C 0.757812 -0.207031 0.46875 -0.359375 0.25 -0.546875 L 0.59375 -1.28125 C 0.800781 -1.113281 1.054688 -0.976562 1.359375 -0.875 C 1.671875 -0.769531 1.976562 -0.71875 2.28125 -0.71875 C 2.664062 -0.71875 2.953125 -0.78125 3.140625 -0.90625 C 3.328125 -1.03125 3.421875 -1.191406 3.421875 -1.390625 C 3.421875 -1.535156 3.367188 -1.65625 3.265625 -1.75 C 3.160156 -1.84375 3.023438 -1.914062 2.859375 -1.96875 C 2.703125 -2.03125 2.484375 -2.09375 2.203125 -2.15625 C 1.804688 -2.25 1.488281 -2.34375 1.25 -2.4375 C 1.007812 -2.53125 0.800781 -2.675781 0.625 -2.875 C 0.457031 -3.070312 0.375 -3.335938 0.375 -3.671875 C 0.375 -3.960938 0.445312 -4.222656 0.59375 -4.453125 C 0.75 -4.679688 0.984375 -4.863281 1.296875 -5 C 1.609375 -5.144531 1.988281 -5.21875 2.4375 -5.21875 C 2.75 -5.21875 3.054688 -5.175781 3.359375 -5.09375 C 3.660156 -5.019531 3.925781 -4.910156 4.15625 -4.765625 L 3.84375 -4.015625 C 3.625 -4.148438 3.390625 -4.25 3.140625 -4.3125 C 2.898438 -4.382812 2.664062 -4.421875 2.4375 -4.421875 C 2.050781 -4.421875 1.765625 -4.359375 1.578125 -4.234375 C 1.398438 -4.109375 1.3125 -3.9375 1.3125 -3.71875 C 1.3125 -3.570312 1.363281 -3.453125 1.46875 -3.359375 C 1.570312 -3.265625 1.703125 -3.191406 1.859375 -3.140625 C 2.023438 -3.085938 2.25 -3.023438 2.53125 -2.953125 C 2.914062 -2.867188 3.226562 -2.78125 3.46875 -2.6875 C 3.71875 -2.59375 3.925781 -2.445312 4.09375 -2.25 C 4.269531 -2.050781 4.359375 -1.785156 4.359375 -1.453125 C 4.359375 -1.171875 4.28125 -0.914062 4.125 -0.6875 C 3.976562 -0.457031 3.742188 -0.269531 3.421875 -0.125 C 3.109375 0.0078125 2.726562 0.078125 2.28125 0.078125 Z M 2.28125 0.078125 "/></g></g></g><g fill="#f8cf40" fill-opacity="1"><g transform="translate(169.654279, 29.71606)"><g><path d="M 1.734375 -4.328125 L 0.03125 -4.328125 L 0.03125 -5.140625 L 4.390625 -5.140625 L 4.390625 -4.328125 L 2.6875 -4.328125 L 2.6875 0 L 1.734375 0 Z M 1.734375 -4.328125 "/></g></g></g><g fill="#f8cf40" fill-opacity="1"><g transform="translate(175.874853, 29.71606)"><g><path d="M 4.046875 0 L 3 -1.5 C 2.957031 -1.5 2.894531 -1.5 2.8125 -1.5 L 1.640625 -1.5 L 1.640625 0 L 0.6875 0 L 0.6875 -5.140625 L 2.8125 -5.140625 C 3.25 -5.140625 3.632812 -5.066406 3.96875 -4.921875 C 4.300781 -4.773438 4.554688 -4.5625 4.734375 -4.28125 C 4.910156 -4.007812 5 -3.6875 5 -3.3125 C 5 -2.925781 4.898438 -2.59375 4.703125 -2.3125 C 4.515625 -2.03125 4.25 -1.820312 3.90625 -1.6875 L 5.078125 0 Z M 4.03125 -3.3125 C 4.03125 -3.632812 3.921875 -3.882812 3.703125 -4.0625 C 3.492188 -4.238281 3.179688 -4.328125 2.765625 -4.328125 L 1.640625 -4.328125 L 1.640625 -2.28125 L 2.765625 -2.28125 C 3.179688 -2.28125 3.492188 -2.367188 3.703125 -2.546875 C 3.921875 -2.722656 4.03125 -2.976562 4.03125 -3.3125 Z M 4.03125 -3.3125 "/></g></g></g><g fill="#f8cf40" fill-opacity="1"><g transform="translate(183.042842, 29.71606)"><g><path d="M 2.90625 0.078125 C 2.195312 0.078125 1.640625 -0.117188 1.234375 -0.515625 C 0.835938 -0.921875 0.640625 -1.492188 0.640625 -2.234375 L 0.640625 -5.140625 L 1.59375 -5.140625 L 1.59375 -2.28125 C 1.59375 -1.269531 2.03125 -0.765625 2.90625 -0.765625 C 3.769531 -0.765625 4.203125 -1.269531 4.203125 -2.28125 L 4.203125 -5.140625 L 5.140625 -5.140625 L 5.140625 -2.234375 C 5.140625 -1.492188 4.941406 -0.921875 4.546875 -0.515625 C 4.160156 -0.117188 3.613281 0.078125 2.90625 0.078125 Z M 2.90625 0.078125 "/></g></g></g><g fill="#f8cf40" fill-opacity="1"><g transform="translate(190.636795, 29.71606)"><g><path d="M 3.0625 0.078125 C 2.550781 0.078125 2.082031 -0.0351562 1.65625 -0.265625 C 1.238281 -0.492188 0.910156 -0.804688 0.671875 -1.203125 C 0.441406 -1.609375 0.328125 -2.066406 0.328125 -2.578125 C 0.328125 -3.078125 0.445312 -3.523438 0.6875 -3.921875 C 0.925781 -4.328125 1.253906 -4.644531 1.671875 -4.875 C 2.085938 -5.101562 2.554688 -5.21875 3.078125 -5.21875 C 3.492188 -5.21875 3.875 -5.144531 4.21875 -5 C 4.570312 -4.851562 4.867188 -4.640625 5.109375 -4.359375 L 4.5 -3.78125 C 4.125 -4.175781 3.664062 -4.375 3.125 -4.375 C 2.769531 -4.375 2.453125 -4.296875 2.171875 -4.140625 C 1.890625 -3.992188 1.671875 -3.78125 1.515625 -3.5 C 1.359375 -3.226562 1.28125 -2.921875 1.28125 -2.578125 C 1.28125 -2.222656 1.359375 -1.90625 1.515625 -1.625 C 1.671875 -1.351562 1.890625 -1.140625 2.171875 -0.984375 C 2.453125 -0.835938 2.769531 -0.765625 3.125 -0.765625 C 3.664062 -0.765625 4.125 -0.96875 4.5 -1.375 L 5.109375 -0.78125 C 4.867188 -0.507812 4.570312 -0.296875 4.21875 -0.140625 C 3.875 0.00390625 3.488281 0.078125 3.0625 0.078125 Z M 3.0625 0.078125 "/></g></g></g><g fill="#f8cf40" fill-opacity="1"><g transform="translate(197.775404, 29.71606)"><g><path d="M 1.734375 -4.328125 L 0.03125 -4.328125 L 0.03125 -5.140625 L 4.390625 -5.140625 L 4.390625 -4.328125 L 2.6875 -4.328125 L 2.6875 0 L 1.734375 0 Z M 1.734375 -4.328125 "/></g></g></g><g fill="#f8cf40" fill-opacity="1"><g transform="translate(203.995978, 29.71606)"><g><path d="M 0.6875 -5.140625 L 1.640625 -5.140625 L 1.640625 0 L 0.6875 0 Z M 0.6875 -5.140625 "/></g></g></g><g fill="#f8cf40" fill-opacity="1"><g transform="translate(208.138134, 29.71606)"><g><path d="M 3.09375 0.078125 C 2.570312 0.078125 2.097656 -0.0351562 1.671875 -0.265625 C 1.253906 -0.492188 0.925781 -0.8125 0.6875 -1.21875 C 0.445312 -1.625 0.328125 -2.078125 0.328125 -2.578125 C 0.328125 -3.066406 0.445312 -3.515625 0.6875 -3.921875 C 0.925781 -4.328125 1.253906 -4.644531 1.671875 -4.875 C 2.097656 -5.101562 2.570312 -5.21875 3.09375 -5.21875 C 3.613281 -5.21875 4.082031 -5.101562 4.5 -4.875 C 4.925781 -4.644531 5.257812 -4.328125 5.5 -3.921875 C 5.738281 -3.523438 5.859375 -3.078125 5.859375 -2.578125 C 5.859375 -2.066406 5.738281 -1.609375 5.5 -1.203125 C 5.257812 -0.804688 4.925781 -0.492188 4.5 -0.265625 C 4.082031 -0.0351562 3.613281 0.078125 3.09375 0.078125 Z M 3.09375 -0.765625 C 3.4375 -0.765625 3.742188 -0.835938 4.015625 -0.984375 C 4.285156 -1.140625 4.5 -1.359375 4.65625 -1.640625 C 4.8125 -1.921875 4.890625 -2.234375 4.890625 -2.578125 C 4.890625 -2.910156 4.8125 -3.21875 4.65625 -3.5 C 4.5 -3.78125 4.285156 -3.992188 4.015625 -4.140625 C 3.742188 -4.296875 3.4375 -4.375 3.09375 -4.375 C 2.75 -4.375 2.4375 -4.296875 2.15625 -4.140625 C 1.882812 -3.992188 1.671875 -3.78125 1.515625 -3.5 C 1.359375 -3.21875 1.28125 -2.910156 1.28125 -2.578125 C 1.28125 -2.234375 1.359375 -1.921875 1.515625 -1.640625 C 1.671875 -1.359375 1.882812 -1.140625 2.15625 -0.984375 C 2.4375 -0.835938 2.75 -0.765625 3.09375 -0.765625 Z M 3.09375 -0.765625 "/></g></g></g><g fill="#f8cf40" fill-opacity="1"><g transform="translate(216.121331, 29.71606)"><g><path d="M 5.265625 -5.140625 L 5.265625 0 L 4.46875 0 L 1.640625 -3.484375 L 1.640625 0 L 0.6875 0 L 0.6875 -5.140625 L 1.46875 -5.140625 L 4.3125 -1.65625 L 4.3125 -5.140625 Z M 5.265625 -5.140625 "/></g></g></g><g fill="#f8cf40" fill-opacity="1"><g transform="translate(112.495152, 40.732374)"><g><path d="M 4.046875 0 L 3 -1.5 C 2.957031 -1.5 2.894531 -1.5 2.8125 -1.5 L 1.640625 -1.5 L 1.640625 0 L 0.6875 0 L 0.6875 -5.140625 L 2.8125 -5.140625 C 3.25 -5.140625 3.632812 -5.066406 3.96875 -4.921875 C 4.300781 -4.773438 4.554688 -4.5625 4.734375 -4.28125 C 4.910156 -4.007812 5 -3.6875 5 -3.3125 C 5 -2.925781 4.898438 -2.59375 4.703125 -2.3125 C 4.515625 -2.03125 4.25 -1.820312 3.90625 -1.6875 L 5.078125 0 Z M 4.03125 -3.3125 C 4.03125 -3.632812 3.921875 -3.882812 3.703125 -4.0625 C 3.492188 -4.238281 3.179688 -4.328125 2.765625 -4.328125 L 1.640625 -4.328125 L 1.640625 -2.28125 L 2.765625 -2.28125 C 3.179688 -2.28125 3.492188 -2.367188 3.703125 -2.546875 C 3.921875 -2.722656 4.03125 -2.976562 4.03125 -3.3125 Z M 4.03125 -3.3125 "/></g></g></g><g fill="#f8cf40" fill-opacity="1"><g transform="translate(119.66314, 40.732374)"><g><path d="M 4.546875 -0.796875 L 4.546875 0 L 0.6875 0 L 0.6875 -5.140625 L 4.4375 -5.140625 L 4.4375 -4.34375 L 1.640625 -4.34375 L 1.640625 -3 L 4.125 -3 L 4.125 -2.21875 L 1.640625 -2.21875 L 1.640625 -0.796875 Z M 4.546875 -0.796875 "/></g></g></g><g fill="#f8cf40" fill-opacity="1"><g transform="translate(126.383125, 40.732374)"><g><path d="M 5.390625 -5.140625 L 3.15625 0 L 2.203125 0 L -0.03125 -5.140625 L 1 -5.140625 L 2.703125 -1.171875 L 4.4375 -5.140625 Z M 5.390625 -5.140625 "/></g></g></g><g fill="#f8cf40" fill-opacity="1"><g transform="translate(133.536422, 40.732374)"><g><path d="M 4.546875 -0.796875 L 4.546875 0 L 0.6875 0 L 0.6875 -5.140625 L 4.4375 -5.140625 L 4.4375 -4.34375 L 1.640625 -4.34375 L 1.640625 -3 L 4.125 -3 L 4.125 -2.21875 L 1.640625 -2.21875 L 1.640625 -0.796875 Z M 4.546875 -0.796875 "/></g></g></g><g fill="#f8cf40" fill-opacity="1"><g transform="translate(140.256408, 40.732374)"><g><path d="M 0.6875 -5.140625 L 1.640625 -5.140625 L 1.640625 -0.8125 L 4.328125 -0.8125 L 4.328125 0 L 0.6875 0 Z M 0.6875 -5.140625 "/></g></g></g><g fill="#f8cf40" fill-opacity="1"><g transform="translate(146.454952, 40.732374)"><g><path d="M 4.03125 -1.1875 L 1.453125 -1.1875 L 0.953125 0 L -0.03125 0 L 2.28125 -5.140625 L 3.21875 -5.140625 L 5.53125 0 L 4.53125 0 Z M 3.703125 -1.9375 L 2.734375 -4.1875 L 1.78125 -1.9375 Z M 3.703125 -1.9375 "/></g></g></g><g fill="#f8cf40" fill-opacity="1"><g transform="translate(153.755138, 40.732374)"><g><path d="M 1.734375 -4.328125 L 0.03125 -4.328125 L 0.03125 -5.140625 L 4.390625 -5.140625 L 4.390625 -4.328125 L 2.6875 -4.328125 L 2.6875 0 L 1.734375 0 Z M 1.734375 -4.328125 "/></g></g></g><g fill="#f8cf40" fill-opacity="1"><g transform="translate(159.975712, 40.732374)"><g><path d="M 0.6875 -5.140625 L 1.640625 -5.140625 L 1.640625 0 L 0.6875 0 Z M 0.6875 -5.140625 "/></g></g></g><g fill="#f8cf40" fill-opacity="1"><g transform="translate(164.117868, 40.732374)"><g><path d="M 3.09375 0.078125 C 2.570312 0.078125 2.097656 -0.0351562 1.671875 -0.265625 C 1.253906 -0.492188 0.925781 -0.8125 0.6875 -1.21875 C 0.445312 -1.625 0.328125 -2.078125 0.328125 -2.578125 C 0.328125 -3.066406 0.445312 -3.515625 0.6875 -3.921875 C 0.925781 -4.328125 1.253906 -4.644531 1.671875 -4.875 C 2.097656 -5.101562 2.570312 -5.21875 3.09375 -5.21875 C 3.613281 -5.21875 4.082031 -5.101562 4.5 -4.875 C 4.925781 -4.644531 5.257812 -4.328125 5.5 -3.921875 C 5.738281 -3.523438 5.859375 -3.078125 5.859375 -2.578125 C 5.859375 -2.066406 5.738281 -1.609375 5.5 -1.203125 C 5.257812 -0.804688 4.925781 -0.492188 4.5 -0.265625 C 4.082031 -0.0351562 3.613281 0.078125 3.09375 0.078125 Z M 3.09375 -0.765625 C 3.4375 -0.765625 3.742188 -0.835938 4.015625 -0.984375 C 4.285156 -1.140625 4.5 -1.359375 4.65625 -1.640625 C 4.8125 -1.921875 4.890625 -2.234375 4.890625 -2.578125 C 4.890625 -2.910156 4.8125 -3.21875 4.65625 -3.5 C 4.5 -3.78125 4.285156 -3.992188 4.015625 -4.140625 C 3.742188 -4.296875 3.4375 -4.375 3.09375 -4.375 C 2.75 -4.375 2.4375 -4.296875 2.15625 -4.140625 C 1.882812 -3.992188 1.671875 -3.78125 1.515625 -3.5 C 1.359375 -3.21875 1.28125 -2.910156 1.28125 -2.578125 C 1.28125 -2.234375 1.359375 -1.921875 1.515625 -1.640625 C 1.671875 -1.359375 1.882812 -1.140625 2.15625 -0.984375 C 2.4375 -0.835938 2.75 -0.765625 3.09375 -0.765625 Z M 3.09375 -0.765625 "/></g></g></g><g fill="#f8cf40" fill-opacity="1"><g transform="translate(172.101065, 40.732374)"><g><path d="M 5.265625 -5.140625 L 5.265625 0 L 4.46875 0 L 1.640625 -3.484375 L 1.640625 0 L 0.6875 0 L 0.6875 -5.140625 L 1.46875 -5.140625 L 4.3125 -1.65625 L 4.3125 -5.140625 Z M 5.265625 -5.140625 "/></g></g></g><g fill="#f8cf40" fill-opacity="1"><g transform="translate(85.172213, 17.419554)"><g><path d="M 0.109375 0 L 5.375 -13.125 L 7.140625 -13.125 L 12.375 0 L 9.828125 0 L 8.8125 -2.859375 L 3.703125 -2.859375 L 2.6875 0 Z M 4.5 -4.875 L 8.015625 -4.875 L 6.265625 -9.671875 Z M 4.5 -4.875 "/></g></g></g><g fill="#f8cf40" fill-opacity="1"><g transform="translate(98.101096, 16.692067)"><g><path d="M 2.65625 0.078125 C 2.375 0.078125 2.097656 0.0390625 1.828125 -0.03125 C 1.554688 -0.113281 1.304688 -0.234375 1.078125 -0.390625 C 0.859375 -0.546875 0.671875 -0.742188 0.515625 -0.984375 C 0.359375 -1.222656 0.253906 -1.5 0.203125 -1.8125 L 1.34375 -2.109375 C 1.375 -1.835938 1.453125 -1.613281 1.578125 -1.4375 C 1.703125 -1.269531 1.859375 -1.144531 2.046875 -1.0625 C 2.242188 -0.988281 2.453125 -0.953125 2.671875 -0.953125 C 2.898438 -0.953125 3.09375 -0.988281 3.25 -1.0625 C 3.40625 -1.132812 3.523438 -1.226562 3.609375 -1.34375 C 3.691406 -1.46875 3.734375 -1.609375 3.734375 -1.765625 C 3.734375 -1.929688 3.6875 -2.070312 3.59375 -2.1875 C 3.507812 -2.3125 3.394531 -2.414062 3.25 -2.5 C 3.101562 -2.582031 2.9375 -2.660156 2.75 -2.734375 C 2.570312 -2.804688 2.382812 -2.878906 2.1875 -2.953125 C 1.988281 -3.035156 1.796875 -3.125 1.609375 -3.21875 C 1.421875 -3.320312 1.253906 -3.441406 1.109375 -3.578125 C 0.960938 -3.710938 0.84375 -3.875 0.75 -4.0625 C 0.664062 -4.25 0.625 -4.472656 0.625 -4.734375 C 0.625 -5.023438 0.675781 -5.28125 0.78125 -5.5 C 0.894531 -5.71875 1.039062 -5.898438 1.21875 -6.046875 C 1.40625 -6.203125 1.617188 -6.316406 1.859375 -6.390625 C 2.109375 -6.472656 2.367188 -6.515625 2.640625 -6.515625 C 3.035156 -6.515625 3.398438 -6.421875 3.734375 -6.234375 C 4.078125 -6.054688 4.359375 -5.773438 4.578125 -5.390625 L 3.625 -4.796875 C 3.507812 -5.015625 3.363281 -5.179688 3.1875 -5.296875 C 3.007812 -5.421875 2.8125 -5.484375 2.59375 -5.484375 C 2.4375 -5.484375 2.296875 -5.453125 2.171875 -5.390625 C 2.054688 -5.335938 1.960938 -5.257812 1.890625 -5.15625 C 1.816406 -5.050781 1.78125 -4.929688 1.78125 -4.796875 C 1.78125 -4.648438 1.820312 -4.519531 1.90625 -4.40625 C 2 -4.300781 2.117188 -4.207031 2.265625 -4.125 C 2.410156 -4.050781 2.578125 -3.976562 2.765625 -3.90625 C 2.953125 -3.832031 3.140625 -3.753906 3.328125 -3.671875 C 3.523438 -3.597656 3.71875 -3.507812 3.90625 -3.40625 C 4.09375 -3.3125 4.257812 -3.191406 4.40625 -3.046875 C 4.550781 -2.910156 4.664062 -2.742188 4.75 -2.546875 C 4.84375 -2.359375 4.890625 -2.132812 4.890625 -1.875 C 4.890625 -1.570312 4.832031 -1.296875 4.71875 -1.046875 C 4.601562 -0.804688 4.441406 -0.601562 4.234375 -0.4375 C 4.023438 -0.269531 3.785156 -0.140625 3.515625 -0.046875 C 3.253906 0.0351562 2.96875 0.078125 2.65625 0.078125 Z M 2.65625 0.078125 "/></g></g></g><g fill="#f8cf40" fill-opacity="1"><g transform="translate(104.856238, 16.692067)"><g><path d="M 2.109375 0 L 2.109375 -5.390625 L 0.09375 -5.390625 L 0.09375 -6.421875 L 5.265625 -6.421875 L 5.265625 -5.390625 L 3.25 -5.390625 L 3.25 0 Z M 2.109375 0 "/></g></g></g><g fill="#f8cf40" fill-opacity="1"><g transform="translate(111.806675, 16.692067)"><g><path d="M 0.046875 0 L 2.625 -6.421875 L 3.484375 -6.421875 L 6.046875 0 L 4.796875 0 L 4.296875 -1.390625 L 1.8125 -1.390625 L 1.3125 0 Z M 2.203125 -2.375 L 3.90625 -2.375 L 3.0625 -4.71875 Z M 2.203125 -2.375 "/></g></g></g><g fill="#f8cf40" fill-opacity="1"><g transform="translate(119.497414, 16.692067)"><g><path d="M 0.828125 0.015625 L 0.828125 -6.421875 L 2.90625 -6.421875 C 3.195312 -6.421875 3.476562 -6.378906 3.75 -6.296875 C 4.019531 -6.210938 4.253906 -6.085938 4.453125 -5.921875 C 4.660156 -5.753906 4.820312 -5.550781 4.9375 -5.3125 C 5.0625 -5.082031 5.125 -4.820312 5.125 -4.53125 C 5.125 -4.257812 5.066406 -4.007812 4.953125 -3.78125 C 4.847656 -3.5625 4.703125 -3.375 4.515625 -3.21875 C 4.328125 -3.0625 4.113281 -2.941406 3.875 -2.859375 L 5.65625 0.015625 L 4.328125 0.015625 L 2.75 -2.734375 L 1.984375 -2.734375 L 1.984375 0.015625 Z M 1.984375 -3.6875 L 3 -3.6875 C 3.3125 -3.695312 3.550781 -3.773438 3.71875 -3.921875 C 3.894531 -4.078125 3.984375 -4.269531 3.984375 -4.5 C 3.984375 -4.769531 3.882812 -4.984375 3.6875 -5.140625 C 3.5 -5.304688 3.238281 -5.390625 2.90625 -5.390625 L 1.984375 -5.390625 Z M 1.984375 -3.6875 "/></g></g></g><g fill="#f8cf40" fill-opacity="1"><g transform="translate(133.473296, 17.419554)"><g><path d="M 0.109375 0 L 5.375 -13.125 L 7.140625 -13.125 L 12.375 0 L 9.828125 0 L 8.8125 -2.859375 L 3.703125 -2.859375 L 2.6875 0 Z M 4.5 -4.875 L 8.015625 -4.875 L 6.265625 -9.671875 Z M 4.5 -4.875 "/></g></g></g><g fill="#f8cf40" fill-opacity="1"><g transform="translate(146.234695, 16.692067)"><g><path d="M 2.65625 0.078125 C 2.375 0.078125 2.097656 0.0390625 1.828125 -0.03125 C 1.554688 -0.113281 1.304688 -0.234375 1.078125 -0.390625 C 0.859375 -0.546875 0.671875 -0.742188 0.515625 -0.984375 C 0.359375 -1.222656 0.253906 -1.5 0.203125 -1.8125 L 1.34375 -2.109375 C 1.375 -1.835938 1.453125 -1.613281 1.578125 -1.4375 C 1.703125 -1.269531 1.859375 -1.144531 2.046875 -1.0625 C 2.242188 -0.988281 2.453125 -0.953125 2.671875 -0.953125 C 2.898438 -0.953125 3.09375 -0.988281 3.25 -1.0625 C 3.40625 -1.132812 3.523438 -1.226562 3.609375 -1.34375 C 3.691406 -1.46875 3.734375 -1.609375 3.734375 -1.765625 C 3.734375 -1.929688 3.6875 -2.070312 3.59375 -2.1875 C 3.507812 -2.3125 3.394531 -2.414062 3.25 -2.5 C 3.101562 -2.582031 2.9375 -2.660156 2.75 -2.734375 C 2.570312 -2.804688 2.382812 -2.878906 2.1875 -2.953125 C 1.988281 -3.035156 1.796875 -3.125 1.609375 -3.21875 C 1.421875 -3.320312 1.253906 -3.441406 1.109375 -3.578125 C 0.960938 -3.710938 0.84375 -3.875 0.75 -4.0625 C 0.664062 -4.25 0.625 -4.472656 0.625 -4.734375 C 0.625 -5.023438 0.675781 -5.28125 0.78125 -5.5 C 0.894531 -5.71875 1.039062 -5.898438 1.21875 -6.046875 C 1.40625 -6.203125 1.617188 -6.316406 1.859375 -6.390625 C 2.109375 -6.472656 2.367188 -6.515625 2.640625 -6.515625 C 3.035156 -6.515625 3.398438 -6.421875 3.734375 -6.234375 C 4.078125 -6.054688 4.359375 -5.773438 4.578125 -5.390625 L 3.625 -4.796875 C 3.507812 -5.015625 3.363281 -5.179688 3.1875 -5.296875 C 3.007812 -5.421875 2.8125 -5.484375 2.59375 -5.484375 C 2.4375 -5.484375 2.296875 -5.453125 2.171875 -5.390625 C 2.054688 -5.335938 1.960938 -5.257812 1.890625 -5.15625 C 1.816406 -5.050781 1.78125 -4.929688 1.78125 -4.796875 C 1.78125 -4.648438 1.820312 -4.519531 1.90625 -4.40625 C 2 -4.300781 2.117188 -4.207031 2.265625 -4.125 C 2.410156 -4.050781 2.578125 -3.976562 2.765625 -3.90625 C 2.953125 -3.832031 3.140625 -3.753906 3.328125 -3.671875 C 3.523438 -3.597656 3.71875 -3.507812 3.90625 -3.40625 C 4.09375 -3.3125 4.257812 -3.191406 4.40625 -3.046875 C 4.550781 -2.910156 4.664062 -2.742188 4.75 -2.546875 C 4.84375 -2.359375 4.890625 -2.132812 4.890625 -1.875 C 4.890625 -1.570312 4.832031 -1.296875 4.71875 -1.046875 C 4.601562 -0.804688 4.441406 -0.601562 4.234375 -0.4375 C 4.023438 -0.269531 3.785156 -0.140625 3.515625 -0.046875 C 3.253906 0.0351562 2.96875 0.078125 2.65625 0.078125 Z M 2.65625 0.078125 "/></g></g></g><g fill="#f8cf40" fill-opacity="1"><g transform="translate(152.989837, 16.692067)"><g><path d="M 2.65625 0.078125 C 2.375 0.078125 2.097656 0.0390625 1.828125 -0.03125 C 1.554688 -0.113281 1.304688 -0.234375 1.078125 -0.390625 C 0.859375 -0.546875 0.671875 -0.742188 0.515625 -0.984375 C 0.359375 -1.222656 0.253906 -1.5 0.203125 -1.8125 L 1.34375 -2.109375 C 1.375 -1.835938 1.453125 -1.613281 1.578125 -1.4375 C 1.703125 -1.269531 1.859375 -1.144531 2.046875 -1.0625 C 2.242188 -0.988281 2.453125 -0.953125 2.671875 -0.953125 C 2.898438 -0.953125 3.09375 -0.988281 3.25 -1.0625 C 3.40625 -1.132812 3.523438 -1.226562 3.609375 -1.34375 C 3.691406 -1.46875 3.734375 -1.609375 3.734375 -1.765625 C 3.734375 -1.929688 3.6875 -2.070312 3.59375 -2.1875 C 3.507812 -2.3125 3.394531 -2.414062 3.25 -2.5 C 3.101562 -2.582031 2.9375 -2.660156 2.75 -2.734375 C 2.570312 -2.804688 2.382812 -2.878906 2.1875 -2.953125 C 1.988281 -3.035156 1.796875 -3.125 1.609375 -3.21875 C 1.421875 -3.320312 1.253906 -3.441406 1.109375 -3.578125 C 0.960938 -3.710938 0.84375 -3.875 0.75 -4.0625 C 0.664062 -4.25 0.625 -4.472656 0.625 -4.734375 C 0.625 -5.023438 0.675781 -5.28125 0.78125 -5.5 C 0.894531 -5.71875 1.039062 -5.898438 1.21875 -6.046875 C 1.40625 -6.203125 1.617188 -6.316406 1.859375 -6.390625 C 2.109375 -6.472656 2.367188 -6.515625 2.640625 -6.515625 C 3.035156 -6.515625 3.398438 -6.421875 3.734375 -6.234375 C 4.078125 -6.054688 4.359375 -5.773438 4.578125 -5.390625 L 3.625 -4.796875 C 3.507812 -5.015625 3.363281 -5.179688 3.1875 -5.296875 C 3.007812 -5.421875 2.8125 -5.484375 2.59375 -5.484375 C 2.4375 -5.484375 2.296875 -5.453125 2.171875 -5.390625 C 2.054688 -5.335938 1.960938 -5.257812 1.890625 -5.15625 C 1.816406 -5.050781 1.78125 -4.929688 1.78125 -4.796875 C 1.78125 -4.648438 1.820312 -4.519531 1.90625 -4.40625 C 2 -4.300781 2.117188 -4.207031 2.265625 -4.125 C 2.410156 -4.050781 2.578125 -3.976562 2.765625 -3.90625 C 2.953125 -3.832031 3.140625 -3.753906 3.328125 -3.671875 C 3.523438 -3.597656 3.71875 -3.507812 3.90625 -3.40625 C 4.09375 -3.3125 4.257812 -3.191406 4.40625 -3.046875 C 4.550781 -2.910156 4.664062 -2.742188 4.75 -2.546875 C 4.84375 -2.359375 4.890625 -2.132812 4.890625 -1.875 C 4.890625 -1.570312 4.832031 -1.296875 4.71875 -1.046875 C 4.601562 -0.804688 4.441406 -0.601562 4.234375 -0.4375 C 4.023438 -0.269531 3.785156 -0.140625 3.515625 -0.046875 C 3.253906 0.0351562 2.96875 0.078125 2.65625 0.078125 Z M 2.65625 0.078125 "/></g></g></g><g fill="#f8cf40" fill-opacity="1"><g transform="translate(159.744979, 16.692067)"><g><path d="M 3.46875 0.09375 C 3.039062 0.09375 2.660156 0.0351562 2.328125 -0.078125 C 1.992188 -0.191406 1.703125 -0.351562 1.453125 -0.5625 C 1.210938 -0.769531 1.007812 -1.015625 0.84375 -1.296875 C 0.6875 -1.578125 0.566406 -1.878906 0.484375 -2.203125 C 0.410156 -2.523438 0.375 -2.859375 0.375 -3.203125 C 0.375 -3.554688 0.410156 -3.894531 0.484375 -4.21875 C 0.566406 -4.539062 0.6875 -4.84375 0.84375 -5.125 C 1.007812 -5.40625 1.210938 -5.648438 1.453125 -5.859375 C 1.703125 -6.066406 1.992188 -6.226562 2.328125 -6.34375 C 2.660156 -6.457031 3.039062 -6.515625 3.46875 -6.515625 C 3.894531 -6.515625 4.273438 -6.457031 4.609375 -6.34375 C 4.941406 -6.226562 5.226562 -6.066406 5.46875 -5.859375 C 5.71875 -5.648438 5.921875 -5.40625 6.078125 -5.125 C 6.242188 -4.84375 6.363281 -4.539062 6.4375 -4.21875 C 6.519531 -3.894531 6.5625 -3.554688 6.5625 -3.203125 C 6.5625 -2.859375 6.519531 -2.523438 6.4375 -2.203125 C 6.363281 -1.878906 6.242188 -1.578125 6.078125 -1.296875 C 5.921875 -1.015625 5.71875 -0.769531 5.46875 -0.5625 C 5.226562 -0.351562 4.941406 -0.191406 4.609375 -0.078125 C 4.273438 0.0351562 3.894531 0.09375 3.46875 0.09375 Z M 3.46875 -0.9375 C 3.8125 -0.9375 4.101562 -0.992188 4.34375 -1.109375 C 4.582031 -1.234375 4.773438 -1.398438 4.921875 -1.609375 C 5.066406 -1.828125 5.171875 -2.070312 5.234375 -2.34375 C 5.304688 -2.613281 5.34375 -2.898438 5.34375 -3.203125 C 5.34375 -3.503906 5.304688 -3.789062 5.234375 -4.0625 C 5.171875 -4.34375 5.066406 -4.585938 4.921875 -4.796875 C 4.773438 -5.003906 4.582031 -5.171875 4.34375 -5.296875 C 4.101562 -5.421875 3.8125 -5.484375 3.46875 -5.484375 C 3.125 -5.484375 2.832031 -5.421875 2.59375 -5.296875 C 2.351562 -5.171875 2.160156 -5.003906 2.015625 -4.796875 C 1.867188 -4.585938 1.757812 -4.34375 1.6875 -4.0625 C 1.625 -3.789062 1.59375 -3.503906 1.59375 -3.203125 C 1.59375 -2.898438 1.625 -2.613281 1.6875 -2.34375 C 1.757812 -2.070312 1.867188 -1.828125 2.015625 -1.609375 C 2.160156 -1.398438 2.351562 -1.234375 2.59375 -1.109375 C 2.832031 -0.992188 3.125 -0.9375 3.46875 -0.9375 Z M 3.46875 -0.9375 "/></g></g></g><g fill="#f8cf40" fill-opacity="1"><g transform="translate(168.275939, 16.692067)"><g><path d="M 3.484375 0.09375 C 3.054688 0.09375 2.675781 0.0351562 2.34375 -0.078125 C 2.007812 -0.191406 1.71875 -0.351562 1.46875 -0.5625 C 1.226562 -0.769531 1.023438 -1.007812 0.859375 -1.28125 C 0.691406 -1.5625 0.566406 -1.863281 0.484375 -2.1875 C 0.410156 -2.519531 0.375 -2.859375 0.375 -3.203125 C 0.375 -3.554688 0.410156 -3.894531 0.484375 -4.21875 C 0.566406 -4.550781 0.6875 -4.851562 0.84375 -5.125 C 1.007812 -5.40625 1.210938 -5.648438 1.453125 -5.859375 C 1.703125 -6.066406 1.992188 -6.226562 2.328125 -6.34375 C 2.671875 -6.457031 3.050781 -6.515625 3.46875 -6.515625 C 3.894531 -6.515625 4.285156 -6.441406 4.640625 -6.296875 C 5.003906 -6.160156 5.320312 -5.957031 5.59375 -5.6875 C 5.875 -5.414062 6.101562 -5.078125 6.28125 -4.671875 L 5.203125 -4.25 C 5.117188 -4.53125 4.992188 -4.753906 4.828125 -4.921875 C 4.660156 -5.097656 4.457031 -5.222656 4.21875 -5.296875 C 3.988281 -5.378906 3.734375 -5.421875 3.453125 -5.421875 C 3.117188 -5.421875 2.828125 -5.363281 2.578125 -5.25 C 2.335938 -5.132812 2.140625 -4.976562 1.984375 -4.78125 C 1.828125 -4.582031 1.707031 -4.351562 1.625 -4.09375 C 1.550781 -3.832031 1.515625 -3.550781 1.515625 -3.25 C 1.515625 -2.9375 1.550781 -2.640625 1.625 -2.359375 C 1.707031 -2.085938 1.828125 -1.847656 1.984375 -1.640625 C 2.140625 -1.441406 2.335938 -1.285156 2.578125 -1.171875 C 2.828125 -1.054688 3.128906 -1 3.484375 -1 C 3.890625 -1 4.234375 -1.085938 4.515625 -1.265625 C 4.804688 -1.453125 5.039062 -1.757812 5.21875 -2.1875 L 6.28125 -1.75 C 6.113281 -1.351562 5.890625 -1.015625 5.609375 -0.734375 C 5.335938 -0.460938 5.019531 -0.253906 4.65625 -0.109375 C 4.300781 0.0234375 3.910156 0.09375 3.484375 0.09375 Z M 3.484375 0.09375 "/></g></g></g><g fill="#f8cf40" fill-opacity="1"><g transform="translate(176.370893, 16.692067)"><g><path d="M 0.828125 0 L 0.828125 -6.421875 L 1.984375 -6.421875 L 1.984375 0 Z M 0.828125 0 "/></g></g></g><g fill="#f8cf40" fill-opacity="1"><g transform="translate(180.768875, 16.692067)"><g><path d="M 0.046875 0 L 2.625 -6.421875 L 3.484375 -6.421875 L 6.046875 0 L 4.796875 0 L 4.296875 -1.390625 L 1.8125 -1.390625 L 1.3125 0 Z M 2.203125 -2.375 L 3.90625 -2.375 L 3.0625 -4.71875 Z M 2.203125 -2.375 "/></g></g></g><g fill="#f8cf40" fill-opacity="1"><g transform="translate(188.459615, 16.692067)"><g><path d="M 2.109375 0 L 2.109375 -5.390625 L 0.09375 -5.390625 L 0.09375 -6.421875 L 5.265625 -6.421875 L 5.265625 -5.390625 L 3.25 -5.390625 L 3.25 0 Z M 2.109375 0 "/></g></g></g><g fill="#f8cf40" fill-opacity="1"><g transform="translate(195.410051, 16.692067)"><g><path d="M 0.828125 0 L 0.828125 -6.421875 L 5.09375 -6.421875 L 5.09375 -5.359375 L 1.984375 -5.359375 L 1.984375 -3.734375 L 4.875 -3.734375 L 4.875 -2.671875 L 1.984375 -2.671875 L 1.984375 -1.09375 L 5.09375 -1.09375 L 5.09375 0 Z M 0.828125 0 "/></g></g></g><g fill="#f8cf40" fill-opacity="1"><g transform="translate(202.655701, 16.692067)"><g><path d="M 2.65625 0.078125 C 2.375 0.078125 2.097656 0.0390625 1.828125 -0.03125 C 1.554688 -0.113281 1.304688 -0.234375 1.078125 -0.390625 C 0.859375 -0.546875 0.671875 -0.742188 0.515625 -0.984375 C 0.359375 -1.222656 0.253906 -1.5 0.203125 -1.8125 L 1.34375 -2.109375 C 1.375 -1.835938 1.453125 -1.613281 1.578125 -1.4375 C 1.703125 -1.269531 1.859375 -1.144531 2.046875 -1.0625 C 2.242188 -0.988281 2.453125 -0.953125 2.671875 -0.953125 C 2.898438 -0.953125 3.09375 -0.988281 3.25 -1.0625 C 3.40625 -1.132812 3.523438 -1.226562 3.609375 -1.34375 C 3.691406 -1.46875 3.734375 -1.609375 3.734375 -1.765625 C 3.734375 -1.929688 3.6875 -2.070312 3.59375 -2.1875 C 3.507812 -2.3125 3.394531 -2.414062 3.25 -2.5 C 3.101562 -2.582031 2.9375 -2.660156 2.75 -2.734375 C 2.570312 -2.804688 2.382812 -2.878906 2.1875 -2.953125 C 1.988281 -3.035156 1.796875 -3.125 1.609375 -3.21875 C 1.421875 -3.320312 1.253906 -3.441406 1.109375 -3.578125 C 0.960938 -3.710938 0.84375 -3.875 0.75 -4.0625 C 0.664062 -4.25 0.625 -4.472656 0.625 -4.734375 C 0.625 -5.023438 0.675781 -5.28125 0.78125 -5.5 C 0.894531 -5.71875 1.039062 -5.898438 1.21875 -6.046875 C 1.40625 -6.203125 1.617188 -6.316406 1.859375 -6.390625 C 2.109375 -6.472656 2.367188 -6.515625 2.640625 -6.515625 C 3.035156 -6.515625 3.398438 -6.421875 3.734375 -6.234375 C 4.078125 -6.054688 4.359375 -5.773438 4.578125 -5.390625 L 3.625 -4.796875 C 3.507812 -5.015625 3.363281 -5.179688 3.1875 -5.296875 C 3.007812 -5.421875 2.8125 -5.484375 2.59375 -5.484375 C 2.4375 -5.484375 2.296875 -5.453125 2.171875 -5.390625 C 2.054688 -5.335938 1.960938 -5.257812 1.890625 -5.15625 C 1.816406 -5.050781 1.78125 -4.929688 1.78125 -4.796875 C 1.78125 -4.648438 1.820312 -4.519531 1.90625 -4.40625 C 2 -4.300781 2.117188 -4.207031 2.265625 -4.125 C 2.410156 -4.050781 2.578125 -3.976562 2.765625 -3.90625 C 2.953125 -3.832031 3.140625 -3.753906 3.328125 -3.671875 C 3.523438 -3.597656 3.71875 -3.507812 3.90625 -3.40625 C 4.09375 -3.3125 4.257812 -3.191406 4.40625 -3.046875 C 4.550781 -2.910156 4.664062 -2.742188 4.75 -2.546875 C 4.84375 -2.359375 4.890625 -2.132812 4.890625 -1.875 C 4.890625 -1.570312 4.832031 -1.296875 4.71875 -1.046875 C 4.601562 -0.804688 4.441406 -0.601562 4.234375 -0.4375 C 4.023438 -0.269531 3.785156 -0.140625 3.515625 -0.046875 C 3.253906 0.0351562 2.96875 0.078125 2.65625 0.078125 Z M 2.65625 0.078125 "/></g></g></g></svg>